<svg width="886" height="1080" viewBox="0 0 886 1080" fill="none" xmlns="http://www.w3.org/2000/svg">
<path d="M569.703 1080C569.703 1080 780.568 966.562 835.048 713.975C889.527 461.387 842.981 289.467 851.117 180.567C859.253 71.6667 886 -9 886 -9H30V1080H569.703Z" fill="#226799" fill-opacity="0.32"/>
<path d="M540.334 1080C540.334 1080 751.445 966.979 805.988 715.319C860.532 463.66 813.931 292.37 822.076 183.87C830.222 75.3704 857 -5 857 -5H0V1080H540.334Z" fill="#226799" fill-opacity="0.35"/>
<path d="M0 -0.000244141L782.5 0.499931C652.5 143 996.5 796 533 1080H0V-0.000244141Z" fill="white"/>
</svg>
