<svg width="1070" height="1080" viewBox="0 0 1070 1080" fill="none" xmlns="http://www.w3.org/2000/svg">
<path d="M688.301 1080C688.301 1080 942.767 967.5 1008.51 717C1074.26 466.5 1018.09 296 1027.9 188C1037.72 80 1070 0 1070 0H37.0001V1080H688.301Z" fill="#226799" fill-opacity="0.32"/>
<path d="M806 1080C806 1080 961.628 1034 1027.5 783.5C1093.37 533 982.985 296 992.823 188C1002.66 80 1035 0 1035 0H0V1080H806Z" fill="#226799" fill-opacity="0.35"/>
<path d="M0 -4.57693e-05L974 -6.10352e-05C820.909 190.588 1125.2 675.812 861.67 1081C858.411 1081 0 1080.5 0 1080.5V-4.57693e-05Z" fill="white"/>
</svg>
