<svg width="145" height="123" viewBox="0 0 145 123" fill="none" xmlns="http://www.w3.org/2000/svg">
<path d="M63.4922 36.8C63.4922 45.6 62.0255 54.1333 59.0922 62.4C56.1589 70.4 52.1589 78.1333 47.0922 85.6C42.0255 93.0667 36.1589 100 29.4922 106.4C22.8255 112.533 15.7589 118 8.29219 122.8L0.692188 112C5.49219 108 9.75885 104.267 13.4922 100.8C17.4922 97.3333 21.0922 93.7333 24.2922 90C27.4922 86.2667 30.2922 82.4 32.6922 78.4C35.3589 74.1333 37.7589 69.3333 39.8922 64L28.2922 53.6C22.1589 48.2666 18.0255 43.3333 15.8922 38.8C13.7589 34 12.6922 29.0667 12.6922 24C12.6922 16 14.8255 10.1333 19.0922 6.39999C23.3589 2.39999 29.0922 0.399995 36.2922 0.399995C40.2922 0.399995 44.0255 1.06666 47.4922 2.39999C51.2255 3.46666 54.6922 5.46666 57.8922 8.39999C61.6255 17.4666 63.4922 26.9333 63.4922 36.8ZM144.692 36.8C144.692 45.6 143.226 54.1333 140.292 62.4C137.359 70.4 133.359 78.1333 128.292 85.6C123.226 93.0667 117.359 100 110.692 106.4C104.026 112.533 96.9589 118 89.4922 122.8L81.8922 112C86.6922 108 90.9589 104.267 94.6922 100.8C98.6922 97.3333 102.292 93.7333 105.492 90C108.692 86.2667 111.492 82.4 113.892 78.4C116.559 74.1333 118.959 69.3333 121.092 64L109.492 53.6C103.359 48.2666 99.2255 43.3333 97.0922 38.8C94.9589 34 93.8922 29.0667 93.8922 24C93.8922 16 96.0255 10.1333 100.292 6.39999C104.559 2.39999 110.292 0.399995 117.492 0.399995C121.492 0.399995 125.226 1.06666 128.692 2.39999C132.426 3.46666 135.892 5.46666 139.092 8.39999C142.826 17.4666 144.692 26.9333 144.692 36.8Z" fill="#226799" fill-opacity="0.35"/>
</svg>
