<svg width="585" height="426" viewBox="0 0 585 426" fill="none" xmlns="http://www.w3.org/2000/svg">
<path d="M484.041 383.348C480.867 383.348 477.676 383.225 474.449 382.923C462.12 381.771 449.622 381.195 437.354 379.551C409.199 375.777 381.032 375.554 352.671 375.554C341.411 375.554 330.151 375.449 318.893 375.449C302.501 375.449 286.116 375.672 269.756 376.768C244.23 378.478 218.661 378.751 193.089 378.751C189.237 378.751 185.384 378.745 181.532 378.736C181.282 378.736 181.033 378.736 180.784 378.736C166.628 378.736 152.529 379.609 138.395 380.226C124.196 380.846 110.388 381.863 96.2713 381.863C94.9987 381.863 93.7228 381.855 92.4449 381.837C78.34 381.643 56.8631 377.529 46.8006 367.042C40.8262 360.811 41.6362 345.821 47.6191 339.814C50.2332 337.189 54.447 335.133 57.8889 333.883C67.6941 330.32 77.6726 330.312 87.9181 330.238C88.043 330.237 88.1669 330.237 88.2919 330.237C95.363 330.237 102.715 331.663 109.492 333.646C115.657 335.449 121.955 336.082 128.225 337.205C133.356 338.124 138.844 338.563 144.273 338.563C147.806 338.563 151.314 338.377 154.679 338.014C163.782 337.036 172.951 336.58 182.081 335.809C183.992 335.648 185.896 335.454 187.795 335.239C188.856 335.924 189.989 336.512 191.12 337.063C195.214 339.059 199.595 341.076 204.178 342.883C205.878 344.313 207.706 345.589 209.636 346.688C213.901 349.114 219.454 349.834 224.98 349.834C229.256 349.834 233.515 349.404 237.149 348.997C245.011 348.12 252.707 345.769 259.719 342.102C264.232 339.742 268.3 336.959 267.674 331.537C267.493 329.968 267.141 328.489 266.614 327.122C270.273 327.059 273.931 327.029 277.59 327.018C278.804 327.014 280.017 327.013 281.231 327.013C288.37 327.013 295.51 327.066 302.646 327.066C308.448 327.066 314.247 327.049 320.046 327.049C339.892 327.049 359.721 327.253 379.513 329.055C385.646 329.613 391.74 329.276 397.788 330.605C403.859 331.938 409.989 333.155 416.21 333.393C419.284 333.511 422.361 333.583 425.444 333.623C425.467 333.633 425.491 333.643 425.515 333.652C425.521 333.643 425.528 333.633 425.535 333.624C427.763 333.652 429.994 333.664 432.225 333.664C441.728 333.664 451.249 333.452 460.719 333.418C461.669 333.414 462.991 333.408 464.631 333.408C466.919 333.408 469.816 333.42 473.163 333.465C473.533 336.693 474.046 339.905 474.753 343.091C478.437 343.113 482.122 343.136 485.806 343.157C486.567 340.05 487.368 336.951 488.21 333.864C517.697 335.055 558.398 339.295 554.415 354.124C552.378 361.709 540.54 371.582 533.898 374.759C525.509 378.774 516.334 381.149 507.099 381.949C499.316 382.624 491.727 383.348 484.041 383.348Z" fill="#F7E2E7"/>
<path d="M59.5115 173.014C60.7613 172.268 62.6928 172.057 64.2255 171.229C64.9983 170.811 64.9685 169.036 66.5996 169.853C67.2021 170.155 68.2238 171.034 69.3762 171.594C71.0568 172.412 73.5398 172.573 75.6751 172.297C84.0645 171.211 92.4832 170.282 100.985 170.175C101.47 170.169 101.95 170.178 102.379 169.929C103.147 169.482 103.316 168.659 103.573 167.86C104.761 164.154 106.052 160.533 107.929 157.1C109.605 154.038 111.521 151.15 114.405 149.134C117.288 147.117 120.933 146.3 124.141 147.647C126.545 148.656 128.444 150.563 128.731 153.189C129.443 159.701 123.15 163.972 119.236 168.148C115.533 172.099 112.369 175.449 108.541 179.034C108.068 179.477 107.619 179.889 106.991 180.11C106.364 180.33 105.664 180.284 105.009 180.218C96.5771 179.363 88.3802 178.312 79.9642 179.301C77.6518 179.573 75.6208 178.909 73.4191 179.447C72.014 179.791 71.1828 181.083 69.8708 181.62C68.5593 182.159 67.0197 182.686 65.6061 182.658C62.4918 182.593 59.1977 179.683 58.4181 176.615C57.9097 174.613 58.4777 173.63 59.5115 173.014Z" fill="#EFBFA5"/>
<path d="M119.345 165.807C114.749 163.587 109.861 162.047 105.418 159.457C107.454 155.565 113.759 139.555 114.768 137.661C118.623 130.43 119.525 127.248 124.275 123.67C134.418 116.028 145.085 122.628 143.571 134.609C141.927 147.616 133.959 158.203 125.507 167.63C125.323 167.835 125.085 167.986 124.788 168.068C124.492 168.151 124.063 168.004 123.73 167.837C122.302 167.122 120.796 166.508 119.345 165.807Z" fill="#353A85"/>
<path d="M116.36 346.617C114.689 346.673 113.085 346.299 111.445 346.147C110.598 329.867 112.135 312.804 112.801 296.446C116.978 296.669 121.155 296.892 125.332 297.115C122.423 305.858 120.347 314.877 119.133 324.011C118.94 325.458 116.598 346.609 116.36 346.617Z" fill="#EFBFA5"/>
<path d="M110.939 342.989C109.908 342.805 109.3 343.264 108.613 343.893C108.214 344.258 107.942 344.776 107.461 345.037C106.979 345.298 106.507 345.35 105.934 345.407C102.921 345.71 95.9793 345.584 99.6776 350.63C103.036 355.213 111.956 353.389 117.108 352.144C117.447 352.062 117.805 352.011 118.054 351.749C118.302 351.485 118.469 351.112 118.575 350.725C119.163 348.568 119.967 345.875 117.319 344.972C116.189 344.587 115.15 345.336 113.953 344.92C112.974 344.581 111.97 343.173 110.939 342.989Z" fill="#292949"/>
<path d="M103.436 306.265C111.954 306.1 120.472 305.934 128.99 305.769C135.881 272.924 141.949 239.906 147.188 206.756C147.593 204.187 147.989 201.514 147.249 199.019C145.851 194.302 140.804 191.609 135.972 190.706C128.464 189.301 114.668 191.256 110.818 199.074C106.749 207.334 107.432 222.088 106.445 231.216C103.752 256.127 102.743 281.219 103.436 306.265Z" fill="#292949"/>
<path d="M165.073 346.617C166.743 346.673 168.348 346.299 169.988 346.147C170.834 329.867 169.297 312.804 168.631 296.446C164.454 296.669 160.277 296.892 156.1 297.115C159.009 305.858 161.086 314.877 162.3 324.011C162.492 325.458 164.835 346.609 165.073 346.617Z" fill="#EFBFA5"/>
<path d="M170.493 342.989C171.524 342.805 172.133 343.264 172.82 343.893C173.219 344.258 173.49 344.776 173.972 345.037C174.453 345.298 174.926 345.35 175.498 345.407C178.511 345.71 185.453 345.584 181.755 350.63C178.396 355.213 169.477 353.389 164.324 352.144C163.985 352.062 163.627 352.011 163.379 351.749C163.13 351.485 162.963 351.112 162.858 350.725C162.269 348.568 161.466 345.875 164.113 344.972C165.243 344.587 166.283 345.336 167.479 344.92C168.458 344.581 169.462 343.173 170.493 342.989Z" fill="#292949"/>
<path d="M177.996 306.265C169.479 306.1 160.96 305.934 152.442 305.769C145.551 272.924 139.483 239.906 134.245 206.756C133.839 204.187 133.444 201.514 134.183 199.019C135.582 194.302 140.629 191.609 145.46 190.706C152.969 189.301 166.764 191.256 170.614 199.074C174.684 207.334 174.001 222.088 174.987 231.216C177.68 256.127 178.689 281.219 177.996 306.265Z" fill="#292949"/>
<path d="M156.155 126.161C162.983 132.669 168.099 141.029 171.18 149.688C176.636 165.023 176.741 181.397 176.792 197.44C176.808 202.781 176.825 208.121 176.842 213.46C176.858 218.714 176.394 219.845 170.692 219.152C160.125 217.869 149.139 215.688 139.565 210.986C135.008 208.748 130.75 205.923 125.973 204.16C119.025 201.598 111.9 202.758 105.026 201.091C108.01 192.058 110.146 184.363 111.678 175.056C113.255 165.472 114.689 155.019 117 145.565C118.387 139.891 120.967 134.591 123.59 129.374C125.354 125.868 127.22 122.279 130.216 119.744C139.237 112.11 149.351 119.677 156.155 126.161Z" fill="#353A85"/>
<path d="M131.514 103.665C132.803 106.488 134.911 108.84 136.632 111.422C138.306 113.934 138.908 116.207 139.352 119.119C139.672 121.223 140.423 122.867 142.954 123.227C147.727 123.906 146.362 119.957 147.447 117.085C148.686 113.802 151.328 111.207 153.175 108.276C158.512 99.8081 156.988 83.0695 145.897 79.4969C133.769 75.5916 127.6 95.0992 131.514 103.665Z" fill="#EFBFA5"/>
<path d="M150.846 95.4693C152.223 95.5252 153.738 95.6343 154.759 96.5604C155.78 97.4858 155.669 99.5056 154.321 99.724C153.099 99.9215 151.517 98.6451 150.77 99.577C150.334 100.121 150.717 100.919 151.048 101.556C152.319 104 152.699 106.835 152.106 109.439C152.609 109.905 153.393 109.42 153.835 108.935C156.027 106.523 157.74 103.707 158.863 100.668C159.303 101.403 159.949 102.029 160.711 102.459C160.254 101.317 160.543 100.066 160.825 98.9007C161.861 94.6167 162.567 89.5979 159.579 86.0973C157.98 84.2239 155.549 83.1467 153.105 82.6935C150.66 82.2404 148.168 82.3506 145.704 82.4619C144.65 82.5098 143.352 82.7377 143.098 83.7138C145.41 84.6419 147.802 86.4503 148.96 88.6421C149.315 89.3157 150.706 95.464 150.846 95.4693Z" fill="#292949"/>
<path d="M145.961 85.1766C146.045 85.2378 146.128 85.2996 146.209 85.3619C147.257 86.1601 148.24 87.1319 149.507 87.486C151.336 87.9967 153.299 87.1143 155.099 87.7379C157.111 88.4344 158.433 90.8429 159.901 92.2684C162.309 94.6061 165.295 96.325 168.5 97.3016C170.137 97.8005 171.833 98.1067 173.541 98.2031C174.316 98.2473 175.352 98.3943 176.107 98.1909C177.12 97.9172 177.085 97.4566 176.006 97.1099C172.62 96.0231 171.558 91.2614 171.814 88.1048C172.016 85.6127 172.874 83.0093 171.925 80.6967C171.2 78.9309 169.643 78.0187 168.139 77.008C166.479 75.8935 164.679 76.1944 162.794 75.6581C160.829 75.0985 159.227 73.5489 157.221 73.1533C155.103 72.7363 152.987 73.6756 150.867 74.0878C149.116 74.4286 147.296 74.4062 145.554 74.0228C143.993 73.6783 142.47 73.0462 140.872 73.0606C138.515 73.0824 136.348 74.5559 134.973 76.4718C133.027 79.1827 131.77 83.8214 132.455 87.3907C132.349 86.8369 134.21 84.8304 134.594 84.3981C135.401 83.4875 136.377 82.6339 137.611 82.4858C140.404 82.153 143.715 83.5445 145.961 85.1766Z" fill="#292949"/>
<path d="M53.1156 194.949C53.1156 194.949 55.7228 207.353 53.9817 212.966L58.7223 213.002L57.1923 193.062L53.1156 194.949Z" fill="#BABCBE"/>
<path d="M58.4963 210.833C57.1689 211.043 55.8356 211.195 54.4949 211.287C54.2795 211.303 54.3199 211.656 54.5347 211.641C55.8755 211.547 57.2082 211.396 58.5362 211.186C58.7484 211.152 58.7095 210.799 58.4963 210.833Z" fill="#BABCBE"/>
<path d="M58.283 208.957C57.1428 209.113 56.0105 209.268 54.7113 209.445C54.4981 209.474 54.5369 209.828 54.7517 209.798C55.9414 209.636 57.1321 209.473 58.3229 209.31C58.5362 209.282 58.4973 208.929 58.2825 208.957" fill="#BABCBE"/>
<path d="M58.1006 207.342C57.221 207.605 56.6796 207.761 54.6853 207.739C54.4693 207.737 54.5108 208.095 54.7252 208.093C55.8792 208.081 57.0141 207.949 58.1399 207.695C58.349 207.648 58.3112 207.294 58.1006 207.342Z" fill="#BABCBE"/>
<path d="M58.1868 205.063C57.038 205.339 55.8797 205.539 54.7055 205.662C54.4906 205.684 54.531 206.037 54.7448 206.015C55.9191 205.892 57.0779 205.693 58.2266 205.416C58.4335 205.365 58.3968 205.012 58.1868 205.063Z" fill="#BABCBE"/>
<path d="M57.8693 203.042C56.7354 203.213 55.5979 203.349 54.4561 203.451C54.2412 203.47 54.2805 203.823 54.4959 203.804C55.6383 203.702 56.7753 203.565 57.9097 203.395C58.1219 203.363 58.083 203.009 57.8693 203.042Z" fill="#BABCBE"/>
<path d="M57.5539 201.028C56.4546 201.235 55.35 201.399 54.238 201.521C54.0237 201.544 54.063 201.897 54.2779 201.874C55.3894 201.753 56.4945 201.588 57.5943 201.381C57.8049 201.341 57.7666 200.988 57.5539 201.028Z" fill="#BABCBE"/>
<path d="M57.3789 198.729C56.2015 198.982 55.0171 199.185 53.8232 199.339L53.7392 199.379L53.745 199.421C53.7689 199.507 53.7881 199.594 53.8062 199.682L53.8625 199.692C55.0565 199.538 56.2414 199.335 57.4188 199.083C57.6278 199.038 57.5901 198.684 57.3789 198.729Z" fill="#BABCBE"/>
<path d="M57.2906 196.438C56.1292 196.608 54.9682 196.776 53.8067 196.946C53.5935 196.976 53.6323 197.33 53.8466 197.299C55.0081 197.129 56.169 196.961 57.3305 196.792C57.5438 196.761 57.5044 196.408 57.2906 196.438Z" fill="#BABCBE"/>
<path d="M136.686 231.998L51.9859 239.106C51.8778 239.115 51.7823 239.033 51.7729 238.922L50.5726 224.758C50.5633 224.647 50.6436 224.55 50.7521 224.541L135.452 217.433C135.56 217.424 135.656 217.506 135.666 217.617L136.866 231.781C136.875 231.891 136.795 231.988 136.686 231.998Z" fill="#D67086"/>
<path d="M66.9054 237.856L58.0022 238.602L56.7684 224.035L65.671 223.287L66.9054 237.856Z" fill="#292949"/>
<path d="M70.9392 237.517L68.9593 237.683L67.7254 223.115L69.7049 222.949L70.9392 237.517Z" fill="#292949"/>
<path d="M77.8443 229.602C77.9651 231.027 76.9323 232.276 75.5378 232.394C74.1429 232.511 72.9144 231.451 72.7937 230.026C72.6729 228.601 73.7057 227.35 75.1002 227.233C76.4951 227.116 77.7236 228.176 77.8443 229.602Z" fill="#292949"/>
<path d="M136.163 217.534L51.4623 224.642C51.3543 224.651 51.2588 224.569 51.2492 224.458L50.2878 213.111C50.2784 213.001 50.3586 212.903 50.467 212.894L135.168 205.786C135.276 205.777 135.371 205.859 135.381 205.97L136.342 217.316C136.352 217.427 136.271 217.525 136.163 217.534Z" fill="#5D66D3"/>
<path d="M61.3739 215.33L61.8053 220.423L64.2904 217.93L61.3739 215.33Z" fill="#EED5D5"/>
<path d="M64.8206 215.535L65.169 219.646L67.1755 217.633L64.8206 215.535Z" fill="#EED5D5"/>
<path d="M56.2472 224.241L55.8622 224.273L54.8661 212.524L55.2522 212.492L56.2472 224.241Z" fill="#EED5D5"/>
<path d="M58.0559 224.089L57.6704 224.121L56.6753 212.373L57.0604 212.341L58.0559 224.089Z" fill="#EED5D5"/>
<path d="M72.6671 81.7579L66.6358 83.9934L66.7171 82.5423C66.9618 78.1726 66.2039 72.9073 64.9371 68.7058L65.186 68.4428L70.7175 63.662L72.6671 81.7579Z" fill="#EED5D5"/>
<path d="M107.138 79.4192L72.1486 80.9656L66.4879 83.9311L104.382 82.341L107.138 79.4192Z" fill="#9EB79C"/>
<path d="M66.3879 83.5418C67.4053 83.2676 68.3668 82.5929 69.331 82.0593C70.2346 81.5572 71.1365 81.0572 72.0369 80.5577C72.18 80.4783 72.2911 80.9502 72.148 81.0295C71.1754 81.5695 70.2016 82.1099 69.2252 82.6526C68.311 83.1606 67.4037 83.7767 66.4384 84.0376C66.2869 84.0791 66.2374 83.5823 66.3879 83.5418Z" fill="#B0C0BA"/>
<path d="M70.7239 64.3234C68.6982 65.6461 66.7389 67.2692 64.8595 69.1979C64.6648 69.3976 64.4122 68.7575 64.6085 68.5557C66.5161 66.5998 68.4998 64.9448 70.5558 63.6034C70.7675 63.4655 70.935 64.1849 70.7239 64.3234Z" fill="#B0C0BA"/>
<path d="M105.683 62.3004L70.4297 63.6732L70.977 67.5588C71.4194 70.7022 71.738 73.8588 71.9295 76.9995L72.1486 80.9656L107.138 79.4192L107.15 79.1844C107.445 73.6581 106.937 67.7867 105.683 62.3004Z" fill="#8CABEF"/>
<path d="M75.7575 63.8611C75.6543 63.3675 74.8864 63.4559 74.9901 63.9543C76.0745 69.1585 76.4606 74.4531 76.126 79.7579C76.0941 80.2627 76.8589 80.3835 76.8913 79.8766C77.2306 74.5042 76.8562 69.1334 75.7575 63.8611Z" fill="#5D66D3"/>
<path d="M101.483 63.0507C101.376 62.5576 100.608 62.6529 100.716 63.1508C101.845 68.3453 102.277 73.6368 101.988 78.9442C101.961 79.4485 102.727 79.5635 102.755 79.0566C103.047 73.681 102.627 68.3134 101.483 63.0507Z" fill="#5D66D3"/>
<path d="M55.8537 105.048L42.3231 108.503L42.6111 106.542C43.4768 100.638 42.1871 93.6002 39.6919 88.034L40.2624 87.6613L52.8744 80.8149L55.8537 105.048Z" fill="#EFBFA5"/>
<path d="M132.41 99.3666L54.7629 104.019L41.9995 108.43L126.085 103.505L132.41 99.3666Z" fill="#292949"/>
<path d="M41.8069 107.912C44.0817 107.468 46.263 106.489 48.4379 105.699C50.4779 104.957 52.5139 104.217 54.5459 103.477C54.8682 103.36 55.0794 103.988 54.7565 104.105C52.5627 104.904 50.3638 105.704 48.1605 106.506C46.097 107.257 44.0401 108.155 41.8819 108.577C41.5429 108.643 41.4702 107.978 41.8069 107.912Z" fill="#353A85"/>
<path d="M52.8393 81.7053C48.2529 83.6361 43.7919 85.9669 39.4836 88.7023C39.0375 88.9856 38.5248 88.1411 38.9752 87.8556C43.3475 85.0813 47.8651 82.7058 52.5204 80.7484C52.9998 80.5465 53.3174 81.5045 52.8393 81.7053Z" fill="#353A85"/>
<path d="M130.456 76.4133L52.2362 80.8511L53.1608 86.0456C53.9077 90.2471 54.3795 94.4762 54.5709 98.6931L54.7629 104.019L132.41 99.3667L132.455 99.0493C133.518 91.5842 132.826 83.7117 130.456 76.4133Z" fill="#3B3387"/>
<path d="M129.226 206.158L57.5502 212.173L56.0903 194.939L127.766 188.924L127.855 189.154C129.954 194.565 130.431 200.484 129.226 206.158Z" fill="#DDDAE8"/>
<path d="M74.8949 210.718L64.8802 211.558L63.4204 194.324L73.435 193.483L74.8949 210.718Z" fill="#353A85"/>
<path d="M54.7938 176.68L41.33 175.836L41.9419 177.316C43.7813 181.766 43.7796 187.359 42.3932 191.949L42.9934 192.162L56.0866 195.842L54.7938 176.68Z" fill="#EFBFA5"/>
<path d="M132.46 170.402L53.9258 177.631L41.037 175.936L125.192 167.954L132.46 170.402Z" fill="#292949"/>
<path d="M40.9452 176.363C43.1705 176.399 45.405 176.862 47.6054 177.181C49.6741 177.481 51.7432 177.781 53.812 178.081C54.1396 178.129 54.2343 177.612 53.9051 177.564C51.6713 177.24 49.4366 176.916 47.2028 176.592C45.1148 176.289 43.0126 175.872 40.9012 175.838C40.5694 175.833 40.6164 176.358 40.9452 176.363Z" fill="#353A85"/>
<path d="M55.9021 195.161C51.2178 194.249 46.6045 193.018 42.0832 191.463C41.6158 191.303 41.2801 192.014 41.7519 192.176C46.3378 193.753 51.0101 195.012 55.7617 195.937C56.2515 196.033 56.3913 195.257 55.9021 195.161Z" fill="#353A85"/>
<path d="M134.062 189.298L55.4734 195.893L55.4692 191.776C55.4654 188.434 55.1937 185.099 54.656 181.8L53.9258 177.631L132.46 170.402L132.558 170.654C134.86 176.587 135.383 183.077 134.062 189.298Z" fill="#474EBB"/>
<path d="M124.766 169.838L50.2882 176.088C50.1802 176.097 50.0846 176.015 50.0753 175.904L48.596 158.446C48.5866 158.335 48.667 158.238 48.7754 158.229L123.253 151.978C123.361 151.97 123.457 152.052 123.466 152.162L124.945 169.621C124.954 169.731 124.874 169.829 124.766 169.838Z" fill="#8CABEF"/>
<path d="M132.476 138.462L40.4005 146.19C40.2923 146.2 40.1967 146.116 40.1874 146.005L39.1167 133.368C39.1075 133.258 39.1875 133.16 39.2958 133.152L131.371 125.425C131.48 125.415 131.575 125.498 131.585 125.608L132.655 138.246C132.665 138.356 132.584 138.453 132.476 138.462Z" fill="#5D66D3"/>
<path d="M116.615 126.908L57.924 131.833L55.742 106.079L114.433 101.154L114.767 102.57C116.538 110.06 117.192 117.776 116.706 125.456L116.615 126.908Z" fill="#D67086"/>
<path d="M76.0606 130.138L64.4143 131.116L62.2616 105.704L73.9078 104.727L76.0606 130.138Z" fill="#EED5D5"/>
<path d="M73.4526 130.358L66.9139 130.906L64.7606 105.494L71.2998 104.946L73.4526 130.358Z" fill="#D67086"/>
<path d="M55.8723 107.617L55.7542 106.223L55.8723 107.617Z" fill="#242440"/>
<path d="M115.826 107.859H115.681L74.1588 107.691L73.9078 104.727L62.2615 105.704L62.4259 107.644L55.8723 107.618V107.617L55.7542 106.223L114.44 101.297H114.446L115.826 107.859Z" fill="#BA6275"/>
<path d="M74.1589 107.691L71.5317 107.681L71.2998 104.946L64.7606 105.494L64.9435 107.654L62.4259 107.644L62.2616 105.704L73.9078 104.727L74.1589 107.691Z" fill="#CFBAB9"/>
<path d="M71.5317 107.681L64.9435 107.654L64.7606 105.494L71.2998 104.946L71.5317 107.681Z" fill="#BA6275"/>
<path d="M82.2542 75.4142H82.2324C80.1833 75.4073 78.4389 73.7981 78.2586 71.6734C78.2491 71.5584 78.2443 71.445 78.2437 71.3321V71.3028C78.2507 69.2181 79.8158 67.4534 81.8883 67.2798C81.9994 67.2702 82.1095 67.2659 82.2191 67.2659C84.2746 67.2659 86.0258 68.8773 86.2067 71.0067C86.2157 71.1143 86.2205 71.2213 86.2216 71.3278V71.3981C86.204 73.4738 84.6426 75.2268 82.577 75.4004C82.4685 75.4095 82.3611 75.4137 82.2542 75.4142Z" fill="#6E7FDD"/>
<path d="M48.8701 138.775C47.9931 137.84 47.0131 137.066 45.9173 136.418C45.4848 136.162 45.1569 136.877 45.586 137.13C46.5199 137.683 47.3497 138.347 48.1117 139.117C47.439 140.059 46.7096 140.946 45.909 141.779C45.5608 142.142 46.1547 142.651 46.5009 142.29C47.3861 141.368 48.1877 140.387 48.9171 139.332C49.0478 139.144 49.0258 138.942 48.8701 138.775Z" fill="#DDDAE8"/>
<path d="M53.3382 138.235C52.7443 137.465 51.706 136.85 50.9583 136.236C50.5697 135.917 50.0711 136.519 50.4613 136.839C51.0926 137.356 51.9798 137.878 52.5484 138.505C52.2858 138.894 51.8197 139.272 51.5346 139.589C51.1549 140.011 50.7749 140.433 50.395 140.855C50.0582 141.229 50.6509 141.739 50.987 141.366C51.4428 140.86 51.8988 140.353 52.3544 139.847C52.6915 139.472 53.1631 139.1 53.3717 138.632C53.4265 138.509 53.4238 138.346 53.3382 138.235Z" fill="#DDDAE8"/>
<path d="M55.4883 134.998C55.1043 134.672 54.606 135.274 54.9905 135.6C55.2213 135.797 55.701 136.5 55.1884 136.646C54.7103 136.782 54.9804 137.524 55.458 137.388C55.9356 137.251 56.1972 136.777 56.1754 136.287C56.1531 135.78 55.8632 135.316 55.4883 134.998Z" fill="#DDDAE8"/>
<path d="M59.3919 138.387C59.1153 138.685 58.6494 138.738 58.3596 138.435C57.7634 137.809 58.4872 136.914 59.2217 137.24C59.2988 137.275 59.3722 137.281 59.4397 137.269C59.645 137.62 59.6918 138.062 59.3919 138.387ZM59.9513 136.642C59.8295 136.493 59.661 136.468 59.5174 136.515C58.8441 136.236 58.0352 136.435 57.6103 137.054C57.1907 137.666 57.3337 138.536 57.8613 139.038C58.4447 139.593 59.3424 139.528 59.904 138.977C60.5422 138.352 60.5034 137.315 59.9513 136.642Z" fill="#DDDAE8"/>
<path d="M114.871 170.703L113.984 170.778L112.465 152.849L113.352 152.774L114.871 170.703Z" fill="#DDDAE8"/>
<path d="M118.467 170.402L117.579 170.476L116.06 152.547L116.947 152.473L118.467 170.402Z" fill="#DDDAE8"/>
<path d="M128.973 192.664C128.874 192.274 128.768 191.885 128.654 191.498C128.774 191.894 128.889 192.305 128.973 192.664Z" fill="#2F3476"/>
<path d="M56.2044 196.28L56.0879 195.844C56.0885 195.843 56.0895 195.842 56.0901 195.842L56.1672 195.835L56.2044 196.28Z" fill="#A6A7A9"/>
<path d="M56.2054 196.28L56.1682 195.835L60.6206 195.462L63.4977 195.22L63.5568 195.916L56.2054 196.28ZM73.6007 195.42L73.5129 194.38L128.098 189.799C128.098 189.799 128.388 190.612 128.656 191.498C128.77 191.885 128.876 192.274 128.975 192.664C128.976 192.67 128.977 192.676 128.978 192.681L73.6007 195.42Z" fill="#C5C2CF"/>
<path d="M63.5549 195.916L63.4959 195.22L73.5111 194.38L73.5988 195.42L63.5549 195.916Z" fill="#2F3476"/>
<path d="M56.0873 195.844L56.0866 195.841H56.0903C56.0896 195.842 56.0881 195.843 56.0873 195.844Z" fill="#2F3476"/>
<path d="M56.0866 195.842L60.6188 195.462L56.1664 195.835L56.0893 195.842H56.0866Z" fill="#3F46A6"/>
<path d="M128.793 151.669L36.7165 159.396C36.6084 159.406 36.5128 159.323 36.5035 159.213L35.433 146.575C35.4237 146.465 35.5039 146.367 35.6119 146.359L127.688 138.632C127.796 138.623 127.891 138.705 127.901 138.815L128.971 151.453C128.981 151.563 128.9 151.66 128.793 151.669Z" fill="#292949"/>
<path d="M48.2659 154.548L46.8733 154.665L46.4211 149.331L47.8142 149.213L48.2659 154.548Z" fill="#DDDAE8"/>
<path d="M52.6409 154.181L51.248 154.298L50.7959 148.964L52.189 148.846L52.6409 154.181Z" fill="#DDDAE8"/>
<path d="M132.804 138.194L40.472 146.072C40.2 146.097 39.9759 145.857 40.0112 145.582L132.467 136.958L132.804 138.194Z" fill="#EED5D5"/>
<path d="M132.42 137.661L40.0877 145.539C39.8157 145.564 39.5916 145.325 39.6269 145.049L132.082 136.425L132.42 137.661Z" fill="#DDDAE8"/>
<path d="M51.7227 108.512C51.7227 108.512 55.8585 124.61 53.1652 131.635L57.924 131.833L55.7542 106.223L51.7227 108.512Z" fill="#BABCBE"/>
<path d="M122.459 192.11C122.515 191.952 122.575 191.79 122.671 191.659C123.563 190.441 124.756 190.34 125.944 189.416C126.473 189.005 126.324 187.284 127.646 187.745C128.134 187.916 129.272 188.502 130.309 188.875C131.821 189.42 134.067 189.194 135.816 188.686C138.168 188.002 140.64 187.224 142.846 186.205C145.154 185.138 147.405 183.949 149.604 182.672C151.435 181.607 154.342 180.385 155.726 178.765C158.068 176.025 155.356 169.345 155.047 165.922C154.726 162.356 155.038 151.848 159.846 151.551C167.725 151.064 167.848 158.559 168.2 164.595C168.42 168.361 168.404 172.199 168.067 175.959C167.593 181.225 164.186 184.24 159.682 186.732C154.908 189.374 150.026 191.964 144.78 193.536C142.23 194.301 139.72 194.529 137.119 194.95C134.547 195.366 134.876 196.489 132.718 197.431C131.514 197.956 130.386 198.72 129.101 199.013C126.797 199.54 124.95 197.941 123.199 196.703C122.763 196.394 122.468 196.187 122.242 195.741C121.874 195.014 122.017 194.237 122.131 193.461C122.199 193.001 122.304 192.545 122.459 192.11Z" fill="#EFBFA5"/>
<path d="M168.054 166.633C163.6 167.497 159.147 168.362 154.692 169.226C154.978 169.171 149.539 149.23 149.255 148.032C148.174 143.459 147.088 138.713 148.013 134.106C149.99 124.269 154.726 121.848 160.692 132.185C166.324 141.94 175.152 153.62 173.404 164.724C173.366 164.965 173.321 165.218 173.168 165.408C172.959 165.67 172.602 165.751 172.273 165.814L168.054 166.633Z" fill="#353A85"/>
<path d="M278.783 133.005C285.253 136.947 292.49 139.622 299.967 140.832C301.303 134.697 302.716 128.579 304.207 122.478C304.85 119.849 305.522 117.178 306.807 114.777C307.491 113.5 310.061 111.173 309.262 109.517C307.863 106.616 301.771 109.826 300.032 110.79C295.494 113.305 291.344 116.804 287.776 120.548C286.915 121.453 277.994 132.524 278.783 133.005Z" fill="#8CABEF"/>
<path d="M341.107 277.365L341.519 302.477C341.35 309.444 341.977 316.39 342.4 323.334C342.794 329.784 341.495 336.433 344.552 342.411C345.511 344.285 347.55 345.591 349.101 343.426C350.297 341.757 349.747 338.87 350.042 336.932C352.263 322.375 356.395 308.179 358.456 293.594C360.615 278.316 354.713 278.72 341.107 277.365Z" fill="#EFBFA5"/>
<path d="M342.531 338.118L340.919 342.308L348.853 349.3L356.122 349.6L358.473 345.76L348.697 337.249L342.531 338.118Z" fill="#292949"/>
<path d="M323.34 277.61L318.766 302.305C317.18 313.351 313.576 324.109 311.99 335.157C311.626 337.697 311.809 340.475 310.749 342.872C309.712 345.215 307.682 345.309 305.89 343.718C303.49 341.588 304.597 337.78 304.641 334.87C304.935 315.484 303.412 296.371 303.045 276.954C303.04 276.699 303.052 276.407 303.249 276.246C303.409 276.113 303.636 276.117 303.843 276.131C305.725 276.256 323.242 278.144 323.34 277.61Z" fill="#EFBFA5"/>
<path d="M304.585 339.149L302.07 342.866L308.223 351.471L315.237 353.406L318.392 350.196L310.788 339.696L304.585 339.149Z" fill="#292949"/>
<path d="M366.955 293.344L363.533 257.442L361.883 234.116L356.335 215.064L326.378 210.409L289.342 216.765L287.562 223.971L294.689 290.663L330.412 293.344L329.928 251.835L335.438 277.563L335.205 293.344H366.955Z" fill="#292949"/>
<path d="M297.204 144.919C297.154 146.132 297.12 147.344 297.099 148.553C296.666 173.179 298.021 198.118 298.177 222.948C310.878 220.957 323.717 219.861 336.571 219.666C337.629 219.65 340.022 219.904 342.75 220.159C347.695 220.62 353.743 221.08 354.956 219.934C357.512 217.52 354.701 217.975 354.888 214.83C355.131 210.761 353.178 207.43 353.915 202.608C354.782 196.941 356.506 191.337 357.5 185.672C359.491 174.311 360.69 162.812 361.078 151.285C361.424 141.06 361.053 130.457 356.662 121.219C345.834 98.4412 310.923 98.8512 301.343 122.635C298.505 129.679 297.521 137.306 297.204 144.919Z" fill="white"/>
<path d="M336.598 112.967L327.117 130.269C327.612 147.747 328.107 165.226 328.603 182.704C328.831 190.759 329.06 198.814 329.288 206.869C329.367 209.665 329.437 212.463 329.526 215.26C329.566 216.516 329.22 218.629 329.935 219.653C331.125 221.358 334.737 221.349 337.474 221.339C338.307 221.336 339.06 221.333 339.638 221.378C343.498 221.683 347.414 221.999 351.05 223.333C353.471 224.221 355.765 225.56 358.319 225.919C358.892 225.999 359.534 226.011 359.984 225.646C360.488 225.238 360.574 224.515 360.622 223.868C361.509 211.87 361.528 199.498 362.192 187.371C362.714 177.833 364.006 168.218 363.551 158.667C363.082 148.841 361.546 139.068 359.671 129.424C358.561 123.714 357.255 117.893 354.116 112.999C350.557 107.451 345.521 105.227 339.316 103.978C337.125 103.536 328.969 100.448 330.33 105.436C331.004 107.903 334.935 110.985 336.598 112.967Z" fill="#8CABEF"/>
<path d="M315.97 114.593L325.451 131.895C325.253 131.895 324.249 174.309 324.168 177.171C323.86 188.058 323.551 198.945 323.242 209.832C323.157 212.858 323.562 216.403 322.972 219.377C322.146 223.53 317.78 222.712 314.059 223.048C305.921 223.783 297.353 225.174 289.193 224.762C286.838 224.643 289.937 175.454 289.932 170.865C289.916 154.356 286.515 136.04 294.89 121.068C297.327 116.713 301.623 109.729 306.365 107.578C310.784 105.575 317.11 105.233 321.907 104.11L322.157 107.223L315.97 114.593Z" fill="#8CABEF"/>
<path d="M336.55 72.6841C338.043 75.3035 338.762 78.3212 338.895 81.3341C338.93 82.1349 338.985 83.0599 339.631 83.5328C340.324 84.0392 339.715 85.15 340.242 84.4732C340.768 83.7953 342.557 81.4427 342.637 80.588C342.826 78.5853 342.823 76.565 342.629 74.5633C342.46 72.8231 342.105 71.003 340.967 69.6766C340.292 68.889 339.392 68.3357 338.505 67.7995C337.22 67.0215 335.895 66.2372 334.418 65.9619C331.873 65.4863 330.312 66.4006 332.558 68.1787C334.167 69.4519 335.527 70.8896 336.55 72.6841Z" fill="#292949"/>
<path d="M320.646 106.862C320.663 108.095 320.411 109.374 321.497 110.33C322.02 110.79 322.726 110.974 323.413 111.083C325.188 111.365 327.027 111.234 328.746 110.704C329.452 110.486 330.156 110.19 330.69 109.678C331.32 109.072 331.353 108.497 331.382 107.704C331.418 106.775 331.605 105.83 331.727 104.887C331.993 102.825 332.112 100.747 332.172 98.6701C335.222 98.1467 338.809 97.1589 339.851 93.9601C340.179 92.9527 340.191 91.8568 340.199 90.7849C340.231 86.3529 340.264 81.9214 340.296 77.4899C340.307 75.9569 340.31 74.3775 339.787 72.9552C338.867 70.4588 336.529 68.9715 334.237 68.0359C328.388 65.6466 321.571 65.7419 316.173 69.1398C314.736 70.044 313.38 71.2075 312.553 72.7864C311.277 75.2204 311.437 78.2259 311.635 81.0353C311.818 83.6281 312.001 86.2208 312.184 88.8141C312.394 91.7961 312.842 95.2286 315.155 96.8037C316.382 97.6397 317.97 97.7936 319.028 98.8762C320.875 100.764 319.994 103.587 320.541 105.876C320.617 106.196 320.642 106.527 320.646 106.862Z" fill="#EFBFA5"/>
<path d="M330.233 95.2584C328.644 96.3277 326.893 96.3857 325.122 95.8522C324.369 95.6253 324.688 94.3601 325.442 94.5875C326.91 95.0295 328.296 95.0183 329.618 94.128C330.284 93.6796 330.895 94.8133 330.233 95.2584ZM341.272 89.0175C341.223 88.1964 340.864 85.7879 339.63 87.3013C339.307 87.6969 339.227 88.2561 339.207 88.7838C339.188 89.3109 339.212 89.853 339.046 90.3493C338.666 91.4884 337.407 92.0059 336.285 91.9857C335.839 91.9783 335.385 91.9048 334.99 91.68C334.608 91.4617 334.304 91.1145 334.007 90.7743C333.288 89.9478 332.568 89.1209 331.848 88.2939C330.612 86.8732 328.158 87.4871 326.492 87.7055C324.57 87.9563 322.648 88.5367 321.079 89.8025C320.92 89.9297 320.766 90.0639 320.611 90.1981C320.233 90.5245 319.852 90.8483 319.412 91.0629C317.928 91.786 316.091 91.0309 315.052 89.6784C314.575 89.058 314.131 88.2603 313.391 88.1565C312.812 88.075 312.248 88.4914 311.951 89.0335C311.654 89.5767 311.574 90.2231 311.534 90.8515C311.387 93.1407 311.702 95.5018 312.694 97.5317C314.842 101.934 318.996 102.475 323.172 102.376C324.822 102.337 326.473 102.298 328.123 102.259C331.14 102.188 334.33 102.062 336.872 100.307C339.114 98.757 340.447 96.1232 340.993 93.3643C341.275 91.9399 341.36 90.4702 341.272 89.0175Z" fill="#292949"/>
<path d="M341.903 65.0039C342.193 63.9304 342.409 62.8356 342.546 61.7312C341.525 62.0901 340.413 62.1848 339.346 62.0054C339.343 61.3685 339.341 60.7316 339.338 60.0942C339.334 59.5633 332.173 59.1927 331.591 59.1448C326.144 58.6975 321.162 58.272 316.237 61.1992C312.029 63.6998 309.331 67.4337 308.686 72.2944C308.069 76.9367 309.587 83.0008 312.268 86.855C312.253 85.6186 311.543 82.7031 311.834 81.5279C312.012 80.3511 312.418 79.2158 312.979 78.1673C314.098 76.0751 315.832 74.3141 317.834 73.0569C321.027 71.0542 324.739 69.9945 328.447 69.4774C331.843 69.0035 335.983 68.5669 339.338 69.4679C340.951 69.9008 341.219 70.3055 342.196 68.676C342.368 68.3885 343.734 65.0316 343.6 65.03C343.034 65.021 342.468 65.0124 341.903 65.0039Z" fill="#292949"/>
<path d="M448.058 147.29L326.403 159.399L204.747 147.29C201.323 146.949 198.412 149.782 198.625 153.248L203.701 273.767C203.87 276.521 205.982 278.746 208.701 279.026C228.717 281.087 306.831 288.895 315.589 289.892C316.032 289.943 316.419 290.205 316.624 290.604C317.211 291.751 319.322 294.099 326.403 294.099C333.483 294.099 335.593 291.751 336.181 290.604C336.386 290.205 336.772 289.943 337.215 289.892C345.973 288.895 424.088 281.087 444.104 279.026C446.823 278.746 448.935 276.521 449.104 273.767L454.18 153.248C454.392 149.782 451.481 146.949 448.058 147.29Z" fill="#353A85"/>
<path d="M448.058 145.295L326.403 157.404L204.747 145.295C201.323 144.954 198.412 147.788 198.625 151.254L203.701 271.773C203.87 274.527 205.982 276.752 208.701 277.032C228.717 279.093 306.831 286.901 315.589 287.898C316.032 287.949 316.419 288.21 316.624 288.61C317.211 289.757 319.322 292.104 326.403 292.104C333.483 292.104 335.593 289.757 336.181 288.61C336.386 288.21 336.772 287.949 337.215 287.898C345.973 286.901 424.088 279.093 444.104 277.032C446.823 276.752 448.935 274.527 449.104 271.773L454.18 151.254C454.392 147.788 451.481 144.954 448.058 145.295Z" fill="#5D66D3"/>
<path d="M326.86 156.526C270.814 118.997 214.309 135.987 214.309 135.987V266.337C292.424 250.468 326.402 283.34 326.402 283.34C326.402 283.34 360.381 250.468 438.496 266.337V135.987C438.496 135.987 382.907 118.997 326.86 156.526Z" fill="#DFD8C7"/>
<path d="M214.309 135.987C214.309 135.987 211.802 145.905 203.093 151.856L208.701 276.397C208.701 276.397 214.309 272.005 214.309 266.337V135.987Z" fill="#C1BBAC"/>
<path d="M438.496 135.987C438.496 135.987 441.003 145.905 449.711 151.856L444.104 276.397C444.104 276.397 438.496 272.005 438.496 266.337V135.987Z" fill="#C1BBAC"/>
<path d="M208.701 276.397C208.701 276.397 286.619 258.544 321.454 289.999H326.402V283.339C326.402 283.339 291.237 249.902 214.309 266.337L208.701 276.397Z" fill="#CBC4B5"/>
<path d="M444.104 276.397C444.104 276.397 366.186 258.544 331.351 289.999H326.403V283.339C326.403 283.339 361.568 249.902 438.495 266.337L444.104 276.397Z" fill="#CBC4B5"/>
<path d="M268.339 128.011C261.586 127.342 254.886 127.071 248.504 127.008C245.563 126.978 221.37 127.902 221.37 128.727V165.583V259.89C221.37 259.061 245.619 258.141 248.569 258.172C269.395 258.392 292.798 262.21 311.213 272.391C314.291 274.093 326.769 280.785 326.769 285.488V157.827C326.769 155.224 325.801 152.71 324.02 150.802C310.037 135.818 288.947 130.054 268.339 128.011Z" fill="#F4F4F4"/>
<path d="M385.2 128.011C391.952 127.342 398.653 127.071 405.034 127.008C407.976 126.978 432.168 127.902 432.168 128.727V165.583V259.89C432.168 259.061 407.92 258.141 404.97 258.172C384.143 258.392 360.74 262.21 342.325 272.391C339.248 274.093 326.769 280.785 326.769 285.488V157.827C326.769 155.224 327.738 152.71 329.518 150.802C343.501 135.818 364.592 130.054 385.2 128.011Z" fill="white"/>
<path d="M326.769 285.488V157.827C326.769 155.224 327.738 152.71 329.518 150.802C343.501 135.818 364.592 130.054 385.2 128.011C391.952 127.342 398.653 127.071 405.034 127.008C405.079 127.007 405.13 127.007 405.185 127.007C408.717 127.007 432.168 127.915 432.168 128.727V165.583V170.458C428.826 190.12 428.375 212.03 431.86 229.878C431.963 229.887 432.064 229.895 432.168 229.904V259.89C432.168 259.075 408.718 258.171 405.134 258.171C405.074 258.171 405.019 258.171 404.97 258.172C400.842 258.216 396.613 258.401 392.342 258.749C339.082 235.587 328.616 178.887 326.769 164.137V285.489C326.769 285.488 326.769 285.488 326.769 285.488ZM342.325 272.391C342.358 272.374 342.391 272.355 342.424 272.337C342.391 272.355 342.358 272.373 342.325 272.391ZM342.456 272.319C342.479 272.307 342.5 272.295 342.523 272.283C342.5 272.295 342.479 272.307 342.456 272.319ZM342.56 272.262C342.582 272.25 342.603 272.238 342.625 272.227C342.603 272.238 342.581 272.25 342.56 272.262ZM342.661 272.207C342.688 272.192 342.716 272.177 342.743 272.162C342.715 272.177 342.689 272.192 342.661 272.207ZM342.768 272.148C342.797 272.133 342.825 272.117 342.854 272.102C342.826 272.117 342.796 272.133 342.768 272.148ZM342.897 272.078C342.915 272.068 342.933 272.058 342.951 272.049C342.933 272.058 342.915 272.068 342.897 272.078ZM343 272.022C343.016 272.014 343.033 272.005 343.048 271.996C343.032 272.005 343.016 272.014 343 272.022ZM343.1 271.968C343.116 271.96 343.131 271.952 343.147 271.943C343.131 271.951 343.115 271.96 343.1 271.968ZM343.253 271.887C343.263 271.881 343.274 271.875 343.284 271.869C343.274 271.875 343.263 271.881 343.253 271.887ZM343.349 271.835C343.359 271.83 343.369 271.824 343.379 271.819C343.368 271.824 343.359 271.83 343.349 271.835ZM343.445 271.784C343.454 271.779 343.463 271.774 343.472 271.769C343.463 271.774 343.454 271.779 343.445 271.784ZM343.543 271.731C343.544 271.73 343.544 271.73 343.545 271.73C343.544 271.731 343.544 271.73 343.543 271.731Z" fill="#F4F4F4"/>
<path d="M330.071 280.422C330.12 280.378 330.169 280.335 330.219 280.291L330.219 280.291C330.17 280.335 330.121 280.378 330.072 280.422C330.071 280.422 330.072 280.422 330.071 280.422Z" fill="#5A63CA"/>
<path d="M330.219 280.292C334.149 276.821 340.291 273.516 342.325 272.391C340.291 273.516 334.15 276.821 330.219 280.291L330.219 280.292ZM342.424 272.337C342.435 272.331 342.445 272.325 342.456 272.319C342.445 272.325 342.434 272.331 342.424 272.337ZM342.523 272.283C342.536 272.276 342.548 272.269 342.56 272.262C342.547 272.269 342.536 272.276 342.523 272.283ZM342.625 272.227C342.636 272.22 342.649 272.213 342.661 272.207C342.649 272.213 342.637 272.22 342.625 272.227ZM342.743 272.162C342.751 272.158 342.76 272.153 342.768 272.149C342.759 272.153 342.751 272.158 342.743 272.162ZM342.854 272.102C342.869 272.094 342.883 272.086 342.897 272.078C342.883 272.086 342.868 272.094 342.854 272.102ZM342.951 272.049C342.968 272.039 342.983 272.031 343 272.022C342.984 272.031 342.968 272.04 342.951 272.049ZM343.048 271.996C343.065 271.987 343.083 271.978 343.1 271.969C343.082 271.978 343.066 271.987 343.048 271.996ZM343.147 271.943C343.182 271.924 343.218 271.905 343.253 271.887C343.217 271.905 343.182 271.924 343.147 271.943ZM343.284 271.869C343.306 271.858 343.327 271.847 343.349 271.835C343.327 271.847 343.306 271.858 343.284 271.869ZM343.379 271.819C343.4 271.807 343.423 271.795 343.445 271.784C343.423 271.795 343.401 271.807 343.379 271.819ZM343.472 271.769C343.496 271.757 343.519 271.744 343.543 271.731C343.52 271.744 343.495 271.757 343.472 271.769ZM343.545 271.73C358.074 264.008 375.536 260.117 392.342 258.749C392.346 258.75 392.346 258.75 392.346 258.75L392.346 258.755C375.538 260.124 358.075 264.008 343.545 271.73Z" fill="#D6CFBF"/>
<path d="M326.769 285.488V285.489V285.488C326.769 283.933 328.134 282.16 330.071 280.422C330.072 280.422 330.071 280.422 330.072 280.422C328.134 282.16 326.77 283.933 326.769 285.488Z" fill="#C3BCAE"/>
<path d="M326.769 285.488V285.489C326.769 283.933 328.134 282.16 330.071 280.422C328.134 282.16 326.769 283.933 326.769 285.488Z" fill="#BBB4A7"/>
<path d="M326.769 285.489V164.137C328.616 178.887 339.082 235.587 392.346 258.75C375.536 260.117 358.074 264.008 343.545 271.73C343.544 271.73 343.544 271.73 343.543 271.731C343.519 271.744 343.496 271.757 343.472 271.769C343.463 271.774 343.454 271.779 343.445 271.784C343.423 271.795 343.4 271.807 343.379 271.819C343.369 271.824 343.359 271.83 343.349 271.835C343.327 271.847 343.306 271.858 343.284 271.869C343.274 271.875 343.263 271.881 343.253 271.887C343.218 271.905 343.182 271.924 343.147 271.943C343.131 271.952 343.116 271.96 343.1 271.968C343.083 271.978 343.065 271.987 343.048 271.996C343.033 272.005 343.016 272.014 343 272.022C342.983 272.031 342.968 272.039 342.951 272.049C342.933 272.058 342.915 272.068 342.897 272.078C342.883 272.086 342.869 272.094 342.854 272.102C342.825 272.117 342.797 272.133 342.768 272.148C342.76 272.153 342.751 272.158 342.743 272.162C342.716 272.177 342.688 272.192 342.661 272.207C342.649 272.213 342.636 272.22 342.625 272.227C342.603 272.238 342.582 272.25 342.56 272.262C342.548 272.269 342.536 272.276 342.523 272.283C342.5 272.295 342.479 272.307 342.456 272.319C342.445 272.325 342.435 272.331 342.424 272.337C342.391 272.355 342.358 272.374 342.325 272.391C340.265 273.53 333.994 276.904 330.071 280.422C328.134 282.16 326.769 283.933 326.769 285.488" fill="#EAE9E9"/>
<path d="M541.896 159.063C541.721 158.984 541.535 158.905 541.348 158.882C539.615 158.663 538.578 159.59 536.849 159.855C536.578 159.897 536.238 159.739 535.881 159.581C535.227 159.289 534.514 158.997 534.084 159.96C533.839 160.508 533.424 161.937 532.908 163.111C532.164 164.821 530.18 166.537 528.356 167.609C521.187 171.819 513.073 173.959 504.979 175.824C504.518 175.93 504.035 176.034 503.577 175.915C502.756 175.703 502.282 174.871 501.882 174.122C500.032 170.649 497.859 167.348 495.4 164.277C493.207 161.537 490.709 158.921 487.55 157.396C484.391 155.87 480.446 155.602 477.468 157.457C475.237 158.846 473.752 161.366 473.617 163.993C473.28 170.507 481.85 174.649 486.33 177.983C490.57 181.139 495.03 183.997 499.668 186.527C500.241 186.84 500.836 187.154 501.486 187.216C502.177 187.281 502.86 187.056 503.518 186.831C511.988 183.934 520.155 180.305 528.291 176.491C530.526 175.443 531.93 173.351 534.004 172.401C534.775 172.047 535.599 172.062 536.429 172.078C537.019 172.089 537.604 172.1 538.179 171.977C539.54 171.685 541.258 170.954 542.412 170.181C544.694 168.654 544.821 165.818 545.177 163.352C545.263 162.738 545.326 162.324 545.13 161.776C544.81 160.886 544.045 160.386 543.3 159.864C542.859 159.555 542.391 159.279 541.896 159.063Z" fill="#EFBFA5"/>
<path d="M485.65 175.55C489.932 172.479 494.214 169.407 498.496 166.337C498.221 166.534 485.767 146.029 484.984 144.833C481.995 140.272 478.864 135.567 474.245 132.672C464.384 126.492 451.927 135.415 455.717 146.853C459.831 159.271 469.026 171.16 479.773 178.544C480.006 178.704 480.254 178.868 480.537 178.891C480.925 178.923 481.277 178.686 481.593 178.459C482.946 177.489 484.298 176.52 485.65 175.55Z" fill="#DDDAE8"/>
<path d="M475.819 335.02L475.632 348.258L483.466 348.362L483.674 333.686L475.819 335.02Z" fill="#EFBFA5"/>
<path d="M482.769 346.289L475.955 348.544L473.924 350.733L474.267 355.921L492.687 357.355C494.243 355.086 493.231 352.009 490.634 351.116L489.777 350.821L482.769 346.289Z" fill="#292949"/>
<path d="M419.358 322.329L414.168 334.507L421.378 337.579L427.131 324.079L419.358 322.329Z" fill="#EFBFA5"/>
<path d="M421.243 337.808C420.985 337.521 420.684 337.25 420.334 336.994C419.468 336.361 412.483 332.655 411.884 334.325C411.787 334.596 411.818 334.895 411.852 335.181C412.427 339.987 413.553 344.727 415.201 349.277C415.906 351.224 416.975 353.38 418.986 353.865C419.867 354.078 420.793 353.921 421.676 353.721C422.981 353.425 424.264 353.035 425.512 352.555C425.969 352.38 426.454 352.164 426.691 351.735C427.165 350.878 426.338 349.863 425.475 349.4C424.612 348.938 423.557 348.606 423.136 347.722C422.947 347.326 422.92 346.874 422.896 346.435C422.72 343.178 423.272 340.051 421.243 337.808Z" fill="#292949"/>
<path d="M468.582 273.67C466.011 285.44 458.662 293.894 450.814 302.548C441.831 312.452 433.382 322.839 425.515 333.652C422.114 332.233 418.714 330.812 415.313 329.393C418.155 312.854 425.991 297.68 432.062 282.039C436.281 271.169 439.699 259.676 439.884 247.929C439.976 242.087 438.563 236.745 437.806 231.063C436.868 224.025 436.815 216.812 435.967 209.741C435.683 207.369 435.522 204.565 437.342 203.024C438.153 202.337 439.222 202.048 440.264 201.846C478.933 194.348 473.469 251.292 468.582 273.67Z" fill="#BABCBE"/>
<path d="M437.08 211.956C437.059 204.815 437.93 197.932 439.264 192.684C450.263 192.094 462.694 193.312 473.573 195.523C484.205 197.683 490.836 200 490.913 211.544C491.054 232.787 499.346 250.882 502.927 271.3C505.008 283.166 501.412 293.779 497.429 304.769C492.871 317.343 488.988 330.164 485.806 343.157C482.122 343.136 478.437 343.113 474.753 343.091C471.117 326.709 472.617 309.694 472.308 292.915C472.093 281.255 470.901 269.323 466.622 258.384C461.918 246.358 455.143 251.145 447.369 244.171C439.81 237.392 437.116 224.289 437.08 211.956Z" fill="#BABCBE"/>
<path d="M449.57 130.205C448.356 131.148 447.289 132.285 446.234 133.41C445.289 134.42 444.344 135.429 443.399 136.438C440.126 139.934 438.509 145.108 437.106 149.575C429.722 173.076 427.065 205.321 431.86 229.878C450.046 231.451 471.095 226.859 489.24 224.377C491.005 224.136 493.004 223.741 493.92 222.211C494.475 221.285 494.491 220.142 494.491 219.063C494.489 203.473 491.198 186.718 488.112 171.349C486.81 164.864 485.205 158.434 483.148 152.145C480.97 145.489 478.515 138.301 473.417 133.266C467.964 127.878 457.521 125.217 450.694 129.423C450.304 129.663 449.931 129.925 449.57 130.205Z" fill="#D67086"/>
<path d="M451.554 133.481C451.225 131.361 450.897 129.24 450.569 127.121C450.127 126.909 449.706 126.675 449.318 126.427C441.733 121.577 429.011 95.5417 449.228 89.7135C467.586 84.4215 466.631 109.707 463.048 120.251C462.435 122.056 461.616 123.76 460.402 125.238C459.572 126.249 459.386 126.058 459.505 127.229C459.62 128.363 460.749 129.647 461.005 130.843C461.279 132.118 461.176 133.532 460.436 134.605C459.983 135.264 459.321 135.754 458.615 136.128C457.494 136.723 456.191 137.051 454.944 136.814C453.462 136.532 451.79 135 451.554 133.481Z" fill="#EFBFA5"/>
<path d="M467.36 110.699C465.827 115.89 464.526 117.888 462.695 120.224C458.859 125.121 462.047 107.764 460.464 101.745C460.342 101.286 460.225 100.766 460.473 100.362C460.706 99.9844 461.178 99.8433 461.61 99.7495C469.342 98.0764 469.319 104.836 467.36 110.699Z" fill="#292949"/>
<path d="M447.049 120.077C445.808 121.824 443.091 121.354 441.178 120.391C433.321 116.435 428.696 106.915 430.439 98.2836C431.898 91.0618 440.99 85.6458 442.828 94.5939C443.48 97.7665 441.551 102.162 441.992 105.682C442.623 110.712 444.965 115.522 447.049 120.077Z" fill="#292949"/>
<path d="M467.279 83.0807C468.159 83.4295 469.054 83.7964 469.999 84.1664C471.953 84.9311 473.368 85.1894 475.383 84.0429C475.959 83.7154 479.819 80.0614 478.89 79.3026C485.048 84.3321 479.983 91.6747 477.674 96.8719C476.118 100.375 475.797 105.321 472.299 107.61C468.45 110.128 465.81 106.945 462.315 105.518C459.233 104.259 455.902 103.578 452.765 102.457C447.561 100.598 439.818 97.3325 441.541 90.41C443.554 82.3245 451.735 80.309 459.085 80.9278C462.226 81.1914 464.685 82.0535 467.279 83.0807Z" fill="#292949"/>
<path d="M549.554 238.593L530.515 209.904V112.44C530.515 110.73 532.733 110.061 533.674 111.484L549.554 135.411V238.593Z" fill="#353A85"/>
<path d="M548.703 136.362L532.361 112.074L525.611 113.476L545.199 138.037V239.459L548.703 238.593V136.362Z" fill="white"/>
<path d="M471.578 129.041L483.239 124.797L545.199 138.037V236.19L471.578 222.914V129.041Z" fill="white"/>
<path d="M540.003 241.628L467.753 231.62C466.141 231.301 464.979 229.885 464.979 228.24V132.079C464.979 129.908 466.961 128.277 469.088 128.699L540.003 138.441V241.628Z" fill="#353A85"/>
<path d="M549.554 135.411C549.373 136.135 547.56 137.246 545.199 138.037C542.641 138.892 540.375 139.058 540.029 138.432L540.003 138.441V241.36C539.981 241.439 539.981 241.513 540.003 241.581V241.628L540.019 241.622C540.306 242.286 542.598 242.129 545.199 241.259C547.82 240.383 549.762 239.112 549.554 238.412V135.411Z" fill="#5D66D3"/>
<path d="M525.611 113.477V133.851L545.199 138.037L525.611 113.477Z" fill="#DFD8C7"/>
<path d="M545.199 138.037L488.806 123.35V125.988L545.199 138.037Z" fill="#CBC4B5"/>
<path d="M473.528 212.053L533.057 220.299V233.647L473.528 225.402V212.053Z" fill="#8CABEF"/>
<path d="M539.998 241.627L494.029 235.26V235.26L539.998 241.627Z" fill="#EEEEEE"/>
<path d="M494.029 235.26L467.753 231.62L494.029 235.26V235.26Z" fill="#AEB0B2"/>
<path d="M540.003 241.626H539.997L494.029 235.259L467.753 231.619C473.009 230.375 477.893 228.685 482.428 226.634L533.057 233.646V220.298L499.993 215.718C534.004 187.961 540.003 138.442 540.003 138.441V241.36C539.982 241.438 539.982 241.512 540.003 241.581V241.626Z" fill="#34387D"/>
<path d="M540.003 241.627V241.581C539.981 241.513 539.981 241.439 540.003 241.36V138.441V241.628" fill="#5961C5"/>
<path d="M533.057 233.647L482.428 226.635C488.984 223.669 494.813 219.946 499.993 215.719L533.057 220.299V233.647Z" fill="#84A0DF"/>
<path d="M510.169 201.847C510.037 201.704 509.899 201.558 509.737 201.461C508.231 200.566 506.911 201.003 505.223 200.557C504.47 200.358 503.848 198.453 502.646 199.547C502.202 199.952 501.252 201.097 500.314 201.968C498.946 203.238 496.445 204.02 494.345 204.273C486.094 205.27 477.801 203.991 469.637 202.469C469.172 202.382 468.688 202.283 468.315 201.992C467.647 201.469 467.543 200.516 467.476 199.67C467.163 195.746 466.485 191.852 465.455 188.053C464.534 184.665 463.287 181.269 460.997 178.608C458.708 175.947 455.198 174.125 451.727 174.636C449.129 175.019 446.763 176.736 445.592 179.091C442.688 184.929 448.895 192.151 451.676 196.999C454.306 201.585 457.257 205.988 460.502 210.162C460.902 210.677 461.324 211.203 461.894 211.519C462.502 211.856 463.219 211.921 463.911 211.977C472.833 212.704 481.767 212.639 490.746 212.392C493.214 212.324 495.333 210.966 497.615 210.924C499.072 210.897 500.233 211.924 501.614 212.204C502.978 212.48 504.841 212.494 506.211 212.247C508.912 211.759 510.158 209.21 511.465 207.089C511.791 206.562 512.013 206.206 512.051 205.626C512.114 204.682 511.608 203.918 511.133 203.141C510.851 202.681 510.533 202.241 510.169 201.847Z" fill="#EFBFA5"/>
<path d="M452.021 194.495C457.172 193.39 462.321 192.285 467.472 191.179C467.142 191.25 463.892 167.472 463.65 166.063C462.727 160.687 461.73 155.122 458.648 150.622C452.068 141.016 437.091 144.222 436.008 156.225C434.832 169.255 438.527 183.829 445.439 194.893C445.589 195.133 445.752 195.383 446.001 195.517C446.344 195.701 446.762 195.624 447.142 195.543C448.769 195.194 450.395 194.844 452.021 194.495Z" fill="#D67086"/>
<path d="M267.674 331.537C267.031 325.969 264.243 321.548 259.093 319.127C254.917 317.164 250.222 316.702 245.645 316.114C235.452 314.804 225.722 313.495 215.43 313.9C207.201 314.225 202.128 321.255 198.276 328.189C195.849 332.559 196.523 334.609 199.579 338.268C202.397 341.643 205.816 344.514 209.636 346.688C217.2 350.992 228.82 349.928 237.149 348.997C245.011 348.12 252.707 345.769 259.719 342.102C264.232 339.742 268.3 336.959 267.674 331.537Z" fill="#292949"/>
<path d="M216.182 346.672C214.818 349.873 213.624 353.148 212.61 356.477C212.072 358.239 211.581 360.05 211.649 361.891C211.808 366.2 216.597 369.322 219.728 365.338C221.099 363.593 222.198 361.633 222.976 359.555C224.124 356.487 221.7 358.274 219.652 357.332C217.294 356.248 217.351 355.404 218.352 353.192C219.642 350.342 221.169 348.484 220.985 345.204C220.935 344.299 220.68 343.249 219.846 342.894C219.213 342.625 218.455 342.887 217.953 343.357C217.451 343.826 217.152 344.468 216.871 345.096C216.637 345.619 216.407 346.145 216.182 346.672Z" fill="#292949"/>
<path d="M232.156 245.273C234.933 245.544 237.71 245.814 240.487 246.084C240.914 243.632 241.166 241.141 241.241 238.642C243.66 238.222 246.507 237.427 247.338 234.838C247.6 234.023 247.611 233.135 247.618 232.267C247.65 228.678 247.682 225.089 247.713 221.5C247.724 220.258 247.729 218.979 247.315 217.827C246.589 215.804 244.737 214.595 242.92 213.834C238.284 211.892 232.876 211.959 228.589 214.704C227.448 215.434 226.372 216.374 225.713 217.652C224.697 219.622 224.821 222.056 224.974 224.331C225.115 226.432 225.257 228.532 225.399 230.632C225.562 233.048 225.912 235.829 227.745 237.107C228.717 237.786 229.976 237.913 230.814 238.791C232.292 240.34 231.611 243.088 232.156 245.273Z" fill="#B97262"/>
<path d="M243.533 217.639C243.65 217.834 243.749 218.037 243.827 218.248C244.232 219.356 243.994 220.618 244.39 221.729C245.018 223.49 247.102 224.519 247.446 226.357C247.728 227.859 246.724 229.312 246.665 230.84C246.599 232.51 247.694 234.069 247.558 235.719C247.44 237.151 246.57 239.178 245.737 240.339C245.995 239.979 248.388 240.063 249.002 239.672C249.942 239.074 250.043 238.706 250.309 237.709C250.572 236.72 250.337 235.753 250.757 234.737C251.272 233.49 252.358 232.562 252.721 231.236C253.216 229.426 252.225 227.544 252.267 225.667C252.329 222.827 254.731 220.11 253.794 217.429C253.245 215.856 251.692 214.872 250.804 213.463C250.13 212.392 249.865 211.122 249.39 209.949C248.914 208.777 248.112 207.61 246.893 207.274C246.217 207.087 245.494 207.181 244.801 207.065C243.605 206.864 242.598 206.057 241.442 205.688C239.788 205.161 236.917 206.877 235.982 208.29C235.054 209.692 235.556 210.86 236.551 212.068C238.21 214.078 242.153 215.343 243.533 217.639Z" fill="#292949"/>
<path d="M219.935 209.879C218.962 210.62 217.755 211.164 216.87 212.027C215.145 213.707 214.858 216.35 214.838 218.76C214.82 220.906 213.916 222.828 214.188 225.059C214.371 226.558 215.035 228.064 216.271 228.929C217.81 230.006 220.199 230.144 220.908 231.885C221.678 233.775 219.751 236.208 220.976 237.841C221.651 238.742 222.947 238.852 223.901 239.449C224.967 240.114 225.529 241.325 226.191 242.393C226.854 243.461 227.838 244.525 229.093 244.529C229.11 242.617 229.14 241.102 228.294 239.369C227.801 238.36 226.369 236.507 227.424 235.385C228.085 234.456 229.678 234.13 229.699 232.99C229.709 232.454 229.328 232.005 229.026 231.563C227.856 229.854 227.7 227.551 228.438 225.614C229.175 223.678 230.738 222.114 232.585 221.178C234.749 220.081 234.388 219.553 234.985 217.449C235.534 215.513 236.618 215.042 238.336 214.309C239.88 213.651 240.372 213.25 240.92 211.783C241.321 210.709 241.815 209.423 241.185 208.244C240.684 207.308 239.802 206.647 238.946 206.018C237.16 204.704 235.154 203.324 232.946 203.523C231.72 203.634 230.576 204.232 229.348 204.324C228.529 204.385 227.71 204.218 226.89 204.205C225.49 204.183 224.022 204.636 222.904 205.49C221.776 206.351 221.824 207.231 221.21 208.437C220.91 209.027 220.456 209.481 219.935 209.879Z" fill="#292949"/>
<path d="M224.745 201.933C224.936 200.598 224.767 198.865 223.489 198.438C222.789 198.205 222.014 198.488 221.288 198.354C219.741 198.068 219.184 196.208 218.351 194.872C218.227 194.672 218.079 194.469 217.862 194.377C217.552 194.245 217.202 194.374 216.869 194.42C215.338 194.635 214.146 193.14 212.691 192.617C210.891 191.968 208.662 193.128 208.156 194.974C207.948 195.733 208.002 196.544 207.807 197.307C207.02 200.396 202.547 201.785 202.49 204.972C202.452 207.126 204.592 209.151 203.81 211.158C203.31 212.441 201.687 213.339 201.899 214.7C202.035 215.577 202.98 216.158 203.864 216.129C204.749 216.101 205.554 215.601 206.21 215.006C207.252 214.062 208.028 212.86 209.018 211.863C210.009 210.865 211.339 210.046 212.736 210.195C214.09 210.34 215.33 211.371 216.668 211.122C217.738 210.923 218.518 209.949 219.567 209.661C220.549 209.39 221.582 209.76 222.599 209.803C223.617 209.846 224.855 209.294 224.864 208.275C224.867 208.028 224.793 207.774 224.867 207.538C225.072 206.877 226.193 206.894 226.394 206.232C225.849 205.423 225.106 205.73 224.707 204.667C224.398 203.844 224.625 202.772 224.745 201.933Z" fill="#292949"/>
<path d="M239.692 242.581C243.567 242.063 247.503 241.36 250.751 242.777C253.502 243.978 253.454 247.455 254.069 250.084C256.104 258.781 257.633 267.583 258.83 276.434C259.402 280.665 260.392 285.195 260.368 289.468C260.347 292.898 259.49 296.231 259.753 299.726C259.956 302.411 261.096 305.31 263.551 306.407C264.787 306.96 266.207 306.986 267.444 307.532C268.683 308.079 269.743 309.539 269.12 310.742C268.824 311.314 268.231 311.658 267.669 311.972C264.607 313.682 261.543 315.392 258.482 317.102C256.142 318.407 253.79 319.719 251.27 320.626C247.698 321.911 243.88 322.348 240.089 322.541C230.301 323.039 220.434 321.955 210.986 319.345C205.9 317.939 200.985 315.446 202.22 309.683C203.49 303.752 205.946 297.835 208.595 292.404C211.8 285.83 212.752 277.907 215.023 270.97C217.324 263.939 219.758 256.953 222.211 249.974L222.239 249.894C223.136 247.343 223.503 244.82 225.478 242.749C228.18 239.918 229.481 242.169 232.55 242.745C234.777 243.164 237.223 242.91 239.692 242.581Z" fill="white"/>
<path d="M249.209 350.204C250.092 350.251 250.973 350.298 251.856 350.346C252.814 350.397 253.884 350.412 254.597 349.769C255.468 348.985 255.37 347.503 254.665 346.566C253.961 345.629 252.824 345.129 251.708 344.771C249.015 343.907 246.167 343.641 243.34 343.53C243.057 343.518 242.764 343.51 242.502 343.616C242.044 343.801 241.783 344.285 241.629 344.754C240.025 349.63 245.781 350.02 249.209 350.204Z" fill="#B97262"/>
<path d="M215.258 358.503C215.21 358.896 215.166 359.315 215.335 359.672C215.457 359.933 215.682 360.132 215.925 360.287C217.744 361.448 220.191 360.198 221.584 358.548C222.976 356.897 223.92 354.811 225.697 353.585C229.764 350.78 226.041 345.644 221.79 346.821C216.829 348.196 215.787 354.165 215.258 358.503Z" fill="#B97262"/>
<path d="M270.063 332.057C273.575 329.473 277.096 326.544 278.38 322.192C279.663 317.84 277.852 311.693 273.322 309.183C267.797 306.124 262.37 309.883 258.431 313.433C250.361 320.697 241.567 327.118 232.969 333.761C230.063 336.006 219.982 344.273 219.982 344.273C219.705 345.438 225.123 355.979 226.559 355.594C242.244 351.44 257.5 341.3 270.063 332.057Z" fill="#292949"/>
<path d="M191.12 337.063C187.681 335.388 184.223 333.369 182.863 329.343C181.503 325.318 183.049 318.694 187.308 315.005C192.502 310.508 197.809 312.865 201.686 315.398C209.628 320.577 218.238 324.725 226.667 329.146C229.515 330.64 239.413 336.302 239.413 336.302C239.713 337.396 234.848 349.357 233.462 349.344C218.328 349.256 203.422 343.06 191.12 337.063Z" fill="#292949"/>
<path d="M243.295 352.332C246.455 353.87 249.698 355.239 253.005 356.431C254.755 357.061 256.557 357.648 258.417 357.671C262.77 357.724 266.156 353.037 262.294 349.674C260.602 348.201 258.681 346.993 256.623 346.103C253.587 344.79 255.268 347.33 254.217 349.354C253.006 351.683 252.158 351.584 249.977 350.462C247.167 349.016 245.37 347.38 242.054 347.402C241.138 347.409 240.066 347.615 239.667 348.44C239.364 349.066 239.591 349.846 240.039 350.376C240.488 350.907 241.12 351.242 241.739 351.557C242.255 351.82 242.774 352.078 243.295 352.332Z" fill="#292949"/>
<path d="M288.681 294.292C288.631 294.084 288.581 293.87 288.591 293.664C288.689 291.743 289.889 290.801 290.507 288.987C290.783 288.178 289.422 286.453 291.153 286.017C292.946 285.568 296.414 285.872 297.627 284.228C298.163 283.501 298.824 282.547 299.7 282.765C300 282.839 300.245 283.048 300.467 283.263C307.806 290.369 300.672 298.928 292.675 298.66C291.997 298.637 291.537 298.624 290.985 298.307C290.087 297.792 289.697 296.865 289.276 295.959C289.027 295.422 288.82 294.863 288.681 294.292Z" fill="#B97262"/>
<path d="M302.742 295.572C304.559 296.333 306.79 295.563 308.035 294.035C309.281 292.508 309.628 290.383 309.306 288.438C308.984 286.492 308.058 284.697 306.981 283.046C305.704 281.089 304.099 279.207 301.918 278.376C300.702 277.911 299.382 277.804 298.081 277.776C297.203 277.756 296.231 277.808 295.599 278.419C295.147 278.857 294.963 279.498 294.828 280.114C293.951 284.114 294.64 284.696 297.257 287.355C299.577 289.713 301.277 292.627 302.742 295.572Z" fill="white"/>
<path d="M182.276 251.776V245.635C182.276 245.635 215.163 242.575 234.94 255.764L182.276 251.776Z" fill="#DFD8C7"/>
<path d="M175.539 251.12L179.944 247.721C179.944 247.721 206.838 242.575 234.94 255.763V328.97C234.94 328.97 215.885 315.252 175.539 320.639V251.12Z" fill="white"/>
<path d="M287.605 251.776V245.635C287.605 245.635 254.718 242.575 234.94 255.764L287.605 251.776Z" fill="#DFD8C7"/>
<path d="M294.341 251.12L289.937 247.721C289.937 247.721 263.043 242.575 234.94 255.763V328.97C234.94 328.97 253.995 315.252 294.341 320.639V251.12Z" fill="white"/>
<path d="M234.946 255.727C238.01 255.56 240.342 254.831 240.469 253.945L240.521 253.887L240.475 253.868C240.528 253.856 240.58 253.842 240.632 253.829C241.503 253.441 245.611 252.617 246.86 252.349C246.949 252.329 247.036 252.31 247.125 252.291L247.174 252.279C250.659 251.4 254.193 250.749 257.753 250.276C271.255 248.159 281.164 248.537 286.74 249.354C288.82 249.61 290.853 250.031 292.789 250.696C293.143 250.818 293.478 250.956 293.791 251.121L293.797 251.122L293.795 251.123C294.461 251.472 295.024 251.943 295.455 252.639C296.032 253.576 296.062 254.493 296.062 255.55V320.207C296.062 322.032 294.554 323.84 292.763 323.51C281.737 321.476 272.756 321.545 265.849 322.035C258.568 322.551 251.306 323.659 244.258 325.583C241.963 326.209 239.088 326.698 236.981 327.833C236.78 327.941 236.561 328.021 236.33 328.065C236.187 328.093 236.039 328.108 235.888 328.108C235.71 328.108 235.537 328.087 235.371 328.05C235.206 327.987 235.035 327.926 234.857 327.866C234.097 327.486 233.575 326.7 233.575 325.791V257.303C233.575 256.754 234.055 256.225 234.946 255.727Z" fill="#353A85"/>
<path d="M234.957 255.727C231.892 255.56 229.56 254.831 229.433 253.945L229.382 253.887L229.427 253.868C229.375 253.856 229.323 253.842 229.27 253.829C228.399 253.441 224.291 252.617 223.042 252.349C222.954 252.329 222.865 252.31 222.778 252.291L222.728 252.279C219.243 251.4 215.71 250.749 212.15 250.276C198.647 248.159 188.738 248.537 183.162 249.354C181.081 249.61 179.049 250.031 177.114 250.696C176.759 250.818 176.424 250.956 176.111 251.121L176.106 251.122V251.123C175.442 251.472 174.878 251.943 174.448 252.639C173.869 253.576 173.841 254.493 173.841 255.55V320.207C173.841 322.032 175.348 323.84 177.14 323.51C188.165 321.476 197.146 321.545 204.053 322.035C211.334 322.551 218.597 323.659 225.645 325.583C227.939 326.209 230.814 326.698 232.921 327.833C233.122 327.941 233.341 328.021 233.572 328.065C233.715 328.093 233.863 328.108 234.014 328.108C234.192 328.108 234.365 328.087 234.532 328.05C234.696 327.987 234.867 327.926 235.045 327.866C235.805 327.486 236.328 326.7 236.328 325.791V257.303C236.328 256.754 235.847 256.225 234.957 255.727Z" fill="#353A85"/>
<path d="M229.413 326.533C229.016 326.426 228.616 326.324 228.22 326.226C228.616 326.324 229.016 326.425 229.413 326.533Z" fill="#292945"/>
<path d="M182.276 322.689V322.688C182.461 322.663 182.645 322.639 182.828 322.615C182.827 322.615 182.827 322.615 182.827 322.616C182.644 322.64 182.46 322.664 182.276 322.689Z" fill="#E9E9E9"/>
<path d="M218.539 323.924C217.548 323.73 216.553 323.549 215.555 323.382C216.553 323.549 217.548 323.729 218.539 323.924Z" fill="#292945"/>
<path d="M215.555 323.382C211.746 322.746 207.903 322.308 204.053 322.035C201.674 321.866 199.05 321.747 196.18 321.747C192.199 321.747 187.747 321.976 182.827 322.616C182.827 322.615 182.827 322.615 182.828 322.615C187.745 321.975 192.195 321.747 196.174 321.747C199.046 321.747 201.673 321.866 204.053 322.035C207.903 322.307 211.746 322.746 215.555 323.382Z" fill="#292945"/>
<path d="M229.414 326.533C229.017 326.425 228.618 326.324 228.221 326.226C227.33 326.006 226.452 325.802 225.646 325.582C223.299 324.942 220.928 324.392 218.541 323.924C217.549 323.729 216.554 323.549 215.557 323.382C211.747 322.746 207.904 322.307 204.055 322.035C201.674 321.866 199.047 321.747 196.175 321.747C192.196 321.747 187.746 321.975 182.829 322.615C182.646 322.639 182.463 322.663 182.279 322.688C222.854 309.631 229.414 266.894 229.414 266.894H229.426L229.414 326.533Z" fill="#34387B"/>
<path d="M234.967 255.588C231.9 255.588 229.413 254.715 229.427 253.868L229.413 327.071C229.413 328.12 231.899 328.97 234.967 328.97C238.035 328.97 240.522 328.12 240.522 327.071L240.521 253.887C240.251 254.853 238.035 255.588 234.967 255.588Z" fill="#5D66D3"/>
<path d="M234.422 255.578C233.953 255.562 233.501 255.527 233.074 255.474C233.074 255.474 233.073 255.474 233.073 255.473C233.069 255.473 233.065 255.473 233.061 255.472C233.059 255.472 233.058 255.472 233.056 255.471C233.052 255.471 233.048 255.471 233.044 255.47C233.043 255.47 233.042 255.47 233.041 255.47C233.037 255.469 233.033 255.468 233.028 255.468C231.028 255.214 229.574 254.596 229.438 253.971C229.436 253.963 229.434 253.954 229.433 253.945L229.433 253.944C229.43 253.927 229.428 253.91 229.427 253.893V253.868L229.405 253.878L229.427 253.868C229.375 253.856 229.323 253.842 229.27 253.829C228.464 253.47 224.883 252.737 223.365 252.417C224.883 252.737 228.464 253.469 229.271 253.829C229.323 253.842 229.375 253.855 229.427 253.868L229.433 253.944V253.944L229.44 253.973C229.609 254.734 231.734 255.487 234.422 255.578ZM229.427 253.938L229.383 253.889L229.427 253.93V253.938Z" fill="#D4D3D3"/>
<path d="M173.959 253.882C174.044 253.463 174.193 253.053 174.448 252.639C174.193 253.053 174.044 253.463 173.959 253.882Z" fill="#292842"/>
<path d="M223.042 252.349C222.954 252.329 222.865 252.31 222.778 252.291C222.866 252.31 222.954 252.329 223.042 252.349Z" fill="#D4D3D3"/>
<path d="M174.67 252.315C174.925 251.978 175.216 251.702 175.539 251.47C175.216 251.702 174.925 251.978 174.67 252.315Z" fill="#292842"/>
<path d="M222.728 252.279C219.243 251.4 215.71 250.749 212.15 250.276C215.71 250.749 219.244 251.4 222.728 252.279ZM175.539 251.47C175.719 251.342 175.908 251.227 176.106 251.123V251.122V251.123C175.908 251.227 175.719 251.342 175.539 251.47ZM176.107 251.122L176.111 251.12C176.424 250.956 176.759 250.818 177.114 250.696C177.823 250.452 178.545 250.242 179.278 250.06C178.545 250.242 177.823 250.452 177.114 250.696C176.759 250.818 176.424 250.956 176.111 251.121L176.107 251.122ZM211.977 250.249C204.652 249.109 198.39 248.705 193.311 248.705C198.39 248.705 204.652 249.109 211.977 250.249Z" fill="#D4D3D3"/>
<path d="M173.841 256.764V255.549C173.841 254.958 173.85 254.412 173.959 253.88C174.044 253.461 174.193 253.051 174.448 252.637C174.519 252.524 174.593 252.415 174.67 252.313C174.925 251.976 175.216 251.7 175.539 251.469C175.719 251.34 175.908 251.225 176.106 251.121V251.12L176.107 251.12L176.111 251.119C176.424 250.954 176.759 250.816 177.114 250.694C177.823 250.45 178.545 250.24 179.277 250.058C180.545 249.743 181.844 249.514 183.162 249.352C185.683 248.983 189.087 248.703 193.311 248.703C198.39 248.703 204.652 249.108 211.977 250.247C212.035 250.256 212.093 250.265 212.15 250.274C215.71 250.748 219.243 251.398 222.728 252.277L222.778 252.289C222.865 252.308 222.954 252.328 223.042 252.347C223.135 252.367 223.243 252.39 223.365 252.415C224.883 252.735 228.464 253.468 229.27 253.828C229.323 253.84 229.375 253.854 229.427 253.866L229.405 253.876L229.381 253.886L229.383 253.887L229.427 253.936L229.427 255.082C229.375 255.069 229.323 255.056 229.271 255.043C228.399 254.655 224.291 253.831 223.042 253.563C222.954 253.543 222.866 253.524 222.778 253.504L222.728 253.493C219.244 252.614 215.71 251.963 212.15 251.49C204.749 250.33 198.429 249.919 193.309 249.919C189.088 249.919 185.682 250.199 183.162 250.568C181.082 250.824 179.049 251.245 177.114 251.91C176.759 252.032 176.424 252.169 176.111 252.334L176.106 252.336V252.337C175.442 252.686 174.878 253.157 174.448 253.854C173.869 254.79 173.841 255.707 173.841 256.764ZM229.438 253.969C229.436 253.96 229.434 253.951 229.433 253.942L229.433 253.943C229.434 253.952 229.436 253.961 229.438 253.969Z" fill="#323672"/>
<path d="M295.372 252.512C295.081 252.076 294.735 251.734 294.341 251.455C294.734 251.733 295.081 252.076 295.372 252.512Z" fill="#CBCBCB"/>
<path d="M235.26 255.585C235.282 255.585 235.304 255.585 235.325 255.584C235.304 255.585 235.282 255.585 235.26 255.585Z" fill="#BAB4A7"/>
<path d="M235.324 255.584C237.947 255.535 239.885 254.938 240.407 254.131C240.439 254.07 240.459 254.008 240.469 253.944L240.521 253.888L240.475 253.868L240.521 253.888L240.469 253.945C240.46 254.007 240.44 254.069 240.41 254.13C239.889 254.937 237.949 255.535 235.324 255.584ZM240.475 253.868C240.528 253.855 240.58 253.842 240.632 253.829C241.503 253.441 245.611 252.617 246.86 252.349C246.933 252.333 247.006 252.317 247.079 252.301C247.006 252.317 246.933 252.333 246.86 252.349C245.611 252.617 241.503 253.441 240.632 253.829C240.58 253.842 240.527 253.856 240.475 253.868ZM247.174 252.279C250.659 251.4 254.193 250.749 257.752 250.276C265.152 249.116 271.472 248.705 276.592 248.705C271.472 248.705 265.151 249.116 257.753 250.276C254.193 250.749 250.659 251.4 247.174 252.279ZM294.341 251.455C294.168 251.333 293.986 251.223 293.795 251.123L293.797 251.122V251.123C293.986 251.223 294.168 251.333 294.341 251.455ZM293.797 251.122L293.791 251.121C293.479 250.956 293.143 250.818 292.789 250.696C293.143 250.818 293.479 250.956 293.791 251.12L293.797 251.122ZM292.744 250.681C291.417 250.228 290.045 249.889 288.643 249.639C290.045 249.889 291.417 250.228 292.744 250.681Z" fill="#D4D3D3"/>
<path d="M296.061 256.55C296.055 255.583 295.993 254.728 295.455 253.856C295.024 253.158 294.461 252.688 293.797 252.338V252.338L293.791 252.336C293.478 252.171 293.143 252.034 292.789 251.912C290.853 251.247 288.821 250.826 286.74 250.569C284.22 250.2 280.815 249.921 276.593 249.921C271.473 249.921 265.152 250.332 257.752 251.492C254.193 251.965 250.659 252.616 247.174 253.494L247.125 253.506C247.037 253.526 246.949 253.545 246.86 253.565C245.611 253.833 241.503 254.656 240.632 255.045C240.595 255.054 240.558 255.064 240.521 255.073V253.887C240.498 253.97 240.46 254.051 240.41 254.13C240.44 254.069 240.46 254.007 240.469 253.945L240.521 253.887L240.475 253.868C240.528 253.856 240.58 253.842 240.632 253.829C241.503 253.441 245.611 252.617 246.86 252.349C246.933 252.333 247.006 252.317 247.079 252.301C247.094 252.297 247.109 252.294 247.125 252.291L247.174 252.279C250.659 251.4 254.193 250.749 257.753 250.276C265.151 249.116 271.472 248.705 276.592 248.705C280.814 248.705 284.22 248.985 286.74 249.354C287.379 249.433 288.014 249.527 288.643 249.639C290.045 249.889 291.417 250.228 292.744 250.681C292.758 250.686 292.774 250.691 292.789 250.696C293.143 250.818 293.478 250.956 293.791 251.121L293.797 251.122L293.795 251.123C293.986 251.223 294.168 251.333 294.341 251.455C294.735 251.734 295.081 252.076 295.372 252.512C295.4 252.554 295.428 252.596 295.455 252.639C295.993 253.512 296.055 254.367 296.061 255.334V256.55Z" fill="#323672"/>
<path d="M234.967 255.588C234.977 255.588 234.988 255.588 234.998 255.588C234.988 255.588 234.977 255.588 234.967 255.588ZM234.95 255.588C234.948 255.588 234.945 255.588 234.943 255.588C234.945 255.588 234.948 255.588 234.95 255.588ZM235.001 255.588C235.011 255.587 235.021 255.587 235.031 255.587C235.021 255.587 235.011 255.587 235.001 255.588ZM234.932 255.587C234.93 255.587 234.927 255.587 234.925 255.587C234.927 255.587 234.93 255.587 234.932 255.587ZM234.915 255.587C234.912 255.587 234.909 255.587 234.906 255.587C234.909 255.587 234.912 255.587 234.915 255.587ZM235.034 255.587C235.044 255.587 235.054 255.587 235.064 255.587C235.054 255.587 235.044 255.587 235.034 255.587ZM234.897 255.587C234.893 255.587 234.89 255.587 234.887 255.587C234.89 255.587 234.893 255.587 234.897 255.587ZM234.88 255.587C234.877 255.587 234.873 255.587 234.87 255.587C234.874 255.587 234.877 255.587 234.88 255.587ZM235.067 255.587C235.077 255.587 235.087 255.587 235.097 255.587C235.087 255.587 235.077 255.587 235.067 255.587ZM234.862 255.587C234.859 255.587 234.856 255.587 234.853 255.587C234.856 255.587 234.859 255.587 234.862 255.587ZM235.1 255.587C235.132 255.587 235.164 255.587 235.196 255.586C235.164 255.587 235.132 255.587 235.1 255.587ZM234.844 255.587C234.842 255.587 234.839 255.587 234.837 255.587C234.839 255.587 234.842 255.587 234.844 255.587ZM234.827 255.587C234.824 255.587 234.82 255.587 234.817 255.587C234.821 255.587 234.824 255.587 234.827 255.587ZM234.81 255.587C234.807 255.587 234.804 255.587 234.801 255.587C234.804 255.587 234.807 255.587 234.81 255.587ZM234.792 255.587C234.789 255.587 234.785 255.587 234.782 255.587C234.785 255.587 234.789 255.587 234.792 255.587ZM234.775 255.586C234.772 255.586 234.769 255.586 234.766 255.586C234.769 255.586 234.772 255.586 234.775 255.586ZM234.758 255.586C234.754 255.586 234.75 255.586 234.747 255.586C234.75 255.586 234.754 255.586 234.758 255.586ZM235.196 255.586C235.2 255.586 235.205 255.586 235.209 255.586C235.205 255.586 235.2 255.586 235.196 255.586Z" fill="#D4D3D3"/>
<path d="M235.209 255.586C235.215 255.586 235.221 255.586 235.228 255.586C235.221 255.586 235.215 255.586 235.209 255.586Z" fill="#BAB4A7"/>
<path d="M234.743 255.586C234.738 255.586 234.734 255.586 234.731 255.586C234.734 255.586 234.738 255.586 234.743 255.586Z" fill="#D4D3D3"/>
<path d="M235.229 255.586C235.24 255.586 235.251 255.586 235.263 255.585C235.251 255.586 235.24 255.586 235.229 255.586Z" fill="#BAB4A7"/>
<path d="M234.724 255.586C234.72 255.586 234.717 255.586 234.713 255.586C234.717 255.586 234.72 255.586 234.724 255.586ZM234.706 255.586C234.702 255.585 234.7 255.585 234.697 255.585C234.7 255.585 234.703 255.585 234.706 255.586ZM234.688 255.585C234.685 255.585 234.681 255.585 234.678 255.585C234.681 255.585 234.685 255.585 234.688 255.585ZM234.672 255.585C234.671 255.585 234.67 255.585 234.669 255.585C234.671 255.585 234.671 255.585 234.672 255.585Z" fill="#D4D3D3"/>
<path d="M234.67 255.585C234.668 255.585 234.664 255.585 234.661 255.585C234.664 255.585 234.668 255.585 234.67 255.585ZM234.656 255.585C234.652 255.585 234.647 255.585 234.643 255.584C234.647 255.585 234.652 255.585 234.656 255.585ZM234.642 255.584C234.637 255.584 234.632 255.584 234.626 255.584C234.632 255.584 234.637 255.584 234.642 255.584ZM234.622 255.584C234.611 255.584 234.602 255.584 234.592 255.583C234.601 255.584 234.611 255.584 234.622 255.584ZM234.592 255.583C234.578 255.583 234.565 255.582 234.551 255.582C234.565 255.582 234.578 255.583 234.592 255.583Z" fill="#BAB4A7"/>
<path d="M234.552 255.582C234.543 255.582 234.534 255.582 234.525 255.581C234.534 255.582 234.543 255.582 234.552 255.582ZM234.525 255.581C234.519 255.581 234.514 255.581 234.508 255.581C234.514 255.581 234.519 255.581 234.525 255.581ZM234.507 255.581C234.503 255.581 234.499 255.581 234.495 255.581C234.499 255.581 234.503 255.581 234.507 255.581ZM234.49 255.58C234.473 255.58 234.457 255.579 234.44 255.579C234.457 255.579 234.473 255.58 234.49 255.58ZM234.439 255.579C234.435 255.579 234.429 255.579 234.424 255.578C234.429 255.579 234.435 255.579 234.439 255.579Z" fill="#D4D3D3"/>
<path d="M234.967 256.803C234.486 256.803 234.02 256.782 233.575 256.742V255.527C233.404 255.512 233.237 255.494 233.074 255.474C233.501 255.527 233.953 255.562 234.422 255.578C234.423 255.578 234.423 255.578 234.424 255.578C234.429 255.579 234.434 255.579 234.439 255.579C234.439 255.579 234.439 255.579 234.44 255.579C234.456 255.579 234.473 255.58 234.489 255.58C234.491 255.58 234.492 255.58 234.494 255.581C234.498 255.581 234.503 255.581 234.507 255.581C234.507 255.581 234.507 255.581 234.508 255.581C234.513 255.581 234.519 255.581 234.524 255.581C234.533 255.582 234.542 255.582 234.551 255.582C234.565 255.582 234.578 255.583 234.591 255.583C234.601 255.584 234.611 255.584 234.621 255.584C234.623 255.584 234.624 255.584 234.626 255.584C234.632 255.584 234.637 255.584 234.642 255.584C234.642 255.584 234.642 255.584 234.642 255.584C234.647 255.585 234.651 255.585 234.656 255.585C234.657 255.585 234.659 255.585 234.661 255.585C234.664 255.585 234.667 255.585 234.67 255.585C234.67 255.585 234.671 255.585 234.672 255.585C234.674 255.585 234.676 255.585 234.678 255.585C234.681 255.585 234.684 255.585 234.688 255.585C234.69 255.585 234.693 255.585 234.697 255.585C234.699 255.585 234.702 255.585 234.705 255.586C234.708 255.586 234.71 255.586 234.713 255.586C234.716 255.586 234.72 255.586 234.723 255.586C234.725 255.586 234.728 255.586 234.731 255.586C234.734 255.586 234.738 255.586 234.741 255.586C234.743 255.586 234.745 255.586 234.747 255.586C234.75 255.586 234.754 255.586 234.758 255.586C234.76 255.586 234.763 255.586 234.766 255.586C234.769 255.586 234.772 255.586 234.775 255.586C234.778 255.586 234.78 255.587 234.782 255.587C234.785 255.587 234.789 255.587 234.792 255.587C234.795 255.587 234.798 255.587 234.801 255.587C234.804 255.587 234.807 255.587 234.81 255.587C234.813 255.587 234.815 255.587 234.817 255.587C234.82 255.587 234.824 255.587 234.827 255.587C234.83 255.587 234.833 255.587 234.837 255.587C234.839 255.587 234.842 255.587 234.845 255.587C234.848 255.587 234.85 255.587 234.853 255.587C234.856 255.587 234.859 255.587 234.862 255.587C234.865 255.587 234.867 255.587 234.87 255.587C234.873 255.587 234.877 255.587 234.88 255.587C234.882 255.587 234.884 255.587 234.887 255.587C234.89 255.587 234.893 255.587 234.897 255.587C234.9 255.587 234.903 255.587 234.906 255.587C234.909 255.587 234.912 255.587 234.915 255.587C234.918 255.587 234.922 255.587 234.925 255.587C234.927 255.587 234.93 255.587 234.932 255.587C234.935 255.588 234.939 255.588 234.943 255.588C234.945 255.588 234.948 255.588 234.95 255.588C234.956 255.588 234.962 255.588 234.967 255.588C234.977 255.588 234.988 255.588 234.998 255.588C234.999 255.588 235 255.588 235.001 255.588C235.011 255.587 235.021 255.587 235.031 255.587C235.032 255.587 235.033 255.587 235.034 255.587C235.044 255.587 235.054 255.587 235.064 255.587C235.065 255.587 235.066 255.587 235.067 255.587C235.077 255.587 235.087 255.587 235.097 255.587C235.098 255.587 235.099 255.587 235.1 255.587C235.132 255.587 235.164 255.587 235.196 255.586C235.196 255.586 235.196 255.586 235.196 255.586C235.2 255.586 235.205 255.586 235.209 255.586C235.215 255.586 235.221 255.586 235.226 255.586C235.227 255.586 235.228 255.586 235.229 255.586C235.24 255.586 235.25 255.586 235.26 255.585C235.282 255.585 235.303 255.585 235.324 255.584C237.949 255.535 239.889 254.937 240.41 254.13C240.461 254.051 240.498 253.97 240.521 253.887V255.073C240.506 255.077 240.49 255.08 240.475 255.084L240.521 255.103L240.469 255.16C240.459 255.224 240.439 255.286 240.407 255.347C239.862 256.19 237.771 256.803 234.967 256.803ZM233.073 255.473C233.069 255.473 233.065 255.473 233.061 255.472C233.065 255.473 233.069 255.473 233.073 255.473ZM233.055 255.471C233.052 255.471 233.048 255.471 233.044 255.47C233.048 255.471 233.052 255.471 233.055 255.471ZM233.041 255.47C233.037 255.469 233.033 255.468 233.028 255.468C233.033 255.468 233.037 255.469 233.041 255.47ZM229.427 255.084L229.427 253.938V253.93L229.427 255.084Z" fill="#5259B0"/>
<path d="M233.574 328.91C231.181 328.698 229.413 327.955 229.413 327.071L229.427 255.084C229.427 255.084 229.427 255.084 229.427 255.084L229.433 255.159V255.16L229.44 255.189C229.591 255.868 231.299 256.54 233.574 256.742V328.91ZM229.427 253.93V253.883C229.427 253.886 229.427 253.89 229.427 253.893V253.93Z" fill="#575FC1"/>
<path d="M233.074 255.474C233.074 255.474 233.073 255.474 233.073 255.473C233.073 255.474 233.074 255.474 233.074 255.474ZM233.061 255.472C233.059 255.472 233.058 255.472 233.056 255.471C233.058 255.472 233.059 255.472 233.061 255.472ZM233.044 255.47C233.043 255.47 233.042 255.47 233.041 255.47C233.042 255.47 233.043 255.47 233.044 255.47ZM233.028 255.468C231.03 255.215 229.578 254.597 229.438 253.974C229.438 253.973 229.438 253.972 229.438 253.971C229.574 254.596 231.028 255.214 233.028 255.468ZM229.433 253.944C229.43 253.927 229.428 253.91 229.427 253.893V253.893C229.428 253.91 229.43 253.927 229.433 253.944Z" fill="#C2C1C1"/>
<path d="M229.438 253.974C229.436 253.963 229.434 253.953 229.433 253.942C229.434 253.952 229.436 253.961 229.438 253.971C229.438 253.972 229.438 253.973 229.438 253.974Z" fill="#31346A"/>
<path d="M233.575 256.742C231.299 256.54 229.591 255.868 229.44 255.189L229.433 255.16V255.159L229.427 255.084C229.427 255.084 229.427 255.084 229.427 255.084L229.427 253.93V253.893C229.428 253.91 229.43 253.927 229.433 253.944C229.434 253.954 229.436 253.964 229.438 253.974C229.578 254.597 231.03 255.215 233.028 255.468C233.033 255.468 233.037 255.469 233.041 255.47C233.042 255.47 233.043 255.47 233.044 255.47C233.048 255.471 233.052 255.471 233.055 255.471C233.058 255.472 233.059 255.472 233.061 255.472C233.065 255.473 233.069 255.473 233.073 255.473C233.073 255.474 233.074 255.474 233.074 255.474C233.237 255.494 233.404 255.512 233.575 255.526V256.742Z" fill="#4E54A2"/>
<path d="M286.063 257.428C280.693 256.642 271.147 256.277 258.142 258.317C255.669 258.645 251.361 259.526 249.124 259.998C248.284 260.175 247.683 260.916 247.683 261.776V276.56C247.683 277.723 248.756 278.582 249.89 278.334C255.173 277.181 260.852 275.571 267.396 275.173C272.995 274.831 278.542 274.666 286.945 275.805C288.034 275.953 289.004 275.107 289.004 274.006V259.425C289.004 258.538 288.363 257.778 287.489 257.633C287.017 257.555 286.541 257.487 286.063 257.428Z" fill="#5D66D3"/>
<path d="M184.164 287.233C184.215 287.026 184.264 286.81 184.254 286.605C184.156 284.684 182.956 283.742 182.338 281.928C182.063 281.119 183.423 279.394 181.692 278.958C179.9 278.509 176.431 278.812 175.219 277.169C174.683 276.443 174.022 275.488 173.146 275.706C172.846 275.78 172.6 275.989 172.378 276.204C165.04 283.31 172.173 291.869 180.17 291.601C180.85 291.578 181.308 291.565 181.861 291.248C182.759 290.733 183.15 289.805 183.57 288.899C183.819 288.363 184.026 287.805 184.164 287.233Z" fill="#B97262"/>
<path d="M170.104 288.513C168.287 289.274 166.055 288.504 164.81 286.976C163.565 285.448 163.218 283.324 163.539 281.379C163.861 279.433 164.788 277.638 165.864 275.986C167.141 274.029 168.747 272.148 170.928 271.316C172.143 270.852 173.463 270.745 174.764 270.717C175.642 270.697 176.614 270.749 177.246 271.36C177.699 271.798 177.883 272.439 178.017 273.054C178.895 277.054 178.205 277.636 175.588 280.295C173.268 282.653 171.568 285.568 170.104 288.513Z" fill="white"/>
<path d="M363.864 141.499C363.712 141.4 363.557 141.298 363.446 141.172C362.414 140.003 362.665 138.898 362.036 137.551C361.755 136.95 359.876 136.568 360.764 135.515C361.091 135.127 362.056 134.278 362.764 133.456C364.053 131.96 362.85 129.787 364.194 128.107C365.348 126.663 369.51 125.33 370.969 127.452C371.515 128.248 370.756 129.532 370.873 130.397C371.052 131.725 372.121 132.61 372.605 133.843C373.034 134.938 373.276 136.456 373.211 137.588C373.082 139.823 370.825 141.006 368.981 142.211C368.522 142.511 368.213 142.715 367.669 142.785C366.785 142.899 365.999 142.536 365.206 142.199C364.736 142 364.282 141.769 363.864 141.499Z" fill="#EFBFA5"/>
<path d="M375.775 135.127C377.512 134.285 378.394 132.146 378.082 130.24C377.768 128.335 376.437 126.702 374.803 125.678C373.168 124.653 371.251 124.169 369.342 123.89C367.081 123.559 364.661 123.519 362.637 124.582C361.509 125.175 360.574 126.076 359.71 127.012C359.127 127.646 358.534 128.393 358.571 129.254C358.599 129.87 358.951 130.42 359.314 130.919C361.677 134.157 362.551 134.028 366.196 133.829C369.429 133.652 372.667 134.293 375.775 135.127Z" fill="#8CABEF"/>
<path d="M283.984 138.258C284.15 138.186 284.32 138.111 284.449 138.005C285.659 137.021 285.593 135.89 286.435 134.665C286.811 134.118 288.726 134.05 288.023 132.866C287.764 132.429 286.95 131.433 286.387 130.506C285.36 128.819 286.904 126.873 285.854 124.994C284.951 123.38 281.065 121.381 279.278 123.235C278.608 123.93 279.147 125.322 278.889 126.155C278.495 127.436 277.296 128.134 276.617 129.271C276.014 130.28 275.526 131.738 275.405 132.866C275.165 135.09 277.198 136.628 278.819 138.12C279.223 138.492 279.494 138.744 280.019 138.903C280.874 139.159 281.708 138.93 282.545 138.729C283.042 138.61 283.528 138.457 283.984 138.258Z" fill="#EFBFA5"/>
<path d="M273.278 130.015C271.704 128.9 271.184 126.646 271.805 124.817C272.425 122.988 274.006 121.597 275.786 120.855C277.567 120.112 279.537 119.95 281.466 119.988C283.75 120.033 286.145 120.392 287.967 121.773C288.983 122.543 289.757 123.585 290.455 124.652C290.927 125.372 291.39 126.207 291.211 127.049C291.083 127.653 290.647 128.139 290.206 128.57C287.345 131.376 286.504 131.105 282.94 130.31C279.78 129.605 276.481 129.704 273.278 130.015Z" fill="#8CABEF"/>
</svg>
