<svg width="168" height="168" viewBox="0 0 168 168" fill="none" xmlns="http://www.w3.org/2000/svg">
<g clip-path="url(#clip0)">
<path d="M83.829 0.348999C37.532 0.348999 0 37.881 0 84.178C0 125.701 30.222 160.089 69.848 166.748V101.667H49.626V78.247H69.848V60.978C69.848 40.941 82.086 30.022 99.963 30.022C108.525 30.022 115.883 30.66 118.019 30.941V51.885L105.62 51.891C95.9 51.891 94.026 56.509 94.026 63.288V78.235H117.219L114.194 101.655H94.026V167.308C135.502 162.26 167.657 126.996 167.657 84.154C167.657 37.881 130.125 0.348999 83.829 0.348999Z" fill="#2E4057"/>
</g>
<defs>
<clipPath id="clip0">
<rect width="167.657" height="167.657" fill="white"/>
</clipPath>
</defs>
</svg>
