<svg width="911" height="667" viewBox="0 0 911 667" fill="none" xmlns="http://www.w3.org/2000/svg">
<path fill-rule="evenodd" clip-rule="evenodd" d="M228.158 114.521H400.116C413.882 114.521 425.146 125.783 425.146 139.553V548.767C425.146 562.533 413.882 573.798 400.116 573.798H228.158C214.39 573.798 203.127 562.533 203.127 548.767V139.553C203.127 125.783 214.39 114.521 228.158 114.521Z" fill="#0F1159"/>
<path fill-rule="evenodd" clip-rule="evenodd" d="M242.121 114.521H414.078C427.845 114.521 439.109 125.783 439.109 139.553V548.767C439.109 562.533 427.845 573.798 414.078 573.798H242.121C228.353 573.798 217.091 562.533 217.091 548.767V139.553C217.091 125.783 228.353 114.521 242.121 114.521Z" fill="#3330D9"/>
<path fill-rule="evenodd" clip-rule="evenodd" d="M238.039 176.76H418.159C420.703 176.76 422.784 178.84 422.784 181.384V506.935C422.784 509.479 420.703 511.558 418.159 511.558H238.039C235.495 511.558 233.414 509.479 233.414 506.935V181.384C233.414 178.84 235.495 176.76 238.039 176.76Z" fill="white"/>
<path fill-rule="evenodd" clip-rule="evenodd" d="M328.1 563.322C339.189 563.322 348.234 554.278 348.234 543.187C348.234 532.099 339.189 523.054 328.1 523.054C317.01 523.054 307.965 532.099 307.965 543.187C307.965 554.278 317.01 563.322 328.1 563.322Z" fill="#0F1159"/>
<path fill-rule="evenodd" clip-rule="evenodd" d="M303.816 156.613C302.584 156.613 301.584 155.613 301.584 154.381C301.584 153.148 302.584 152.149 303.816 152.149H306.538C307.772 152.149 308.772 153.148 308.772 154.381C308.772 155.613 307.772 156.613 306.538 156.613H303.816ZM315.65 156.613C314.418 156.613 313.418 155.613 313.418 154.381C313.418 153.148 314.418 152.149 315.65 152.149H352.384C353.617 152.149 354.616 153.148 354.616 154.381C354.616 155.613 353.617 156.613 352.384 156.613H315.65Z" fill="#0F1159"/>
<path fill-rule="evenodd" clip-rule="evenodd" d="M248.951 187.1H305.673C308.831 187.1 311.415 189.683 311.415 192.842V249.566C311.415 252.722 308.831 255.306 305.673 255.306H248.951C245.792 255.306 243.208 252.722 243.208 249.566V192.842C243.208 189.683 245.792 187.1 248.951 187.1Z" fill="#CE4E73"/>
<path fill-rule="evenodd" clip-rule="evenodd" d="M308.646 254.471C307.778 254.999 306.758 255.306 305.674 255.306H298.493C296.069 251.921 292.743 247.809 290.829 245.345L290.719 247.191C290.661 248.106 290.601 248.987 290.541 249.834L290.506 251.554C290.506 251.554 290.582 253.169 290.674 255.306H263.663C263.757 253.169 263.834 251.554 263.834 251.554L263.797 249.834C263.738 248.987 263.678 248.106 263.618 247.191L263.522 245.559C261.55 248.085 258.358 252.05 256.035 255.306H248.951C247.839 255.306 246.801 254.986 245.921 254.435C249.795 247.873 258.854 233.161 261.521 231.614C261.97 231.355 262.345 231.146 262.662 230.978L262.661 230.957L271.813 226.489L272.449 226.177L272.445 226.17C273.094 225.675 273.462 225.107 273.462 224.711V224.277C270.649 222.994 268.587 220.319 268.17 217.146H268.167H268.162L268.157 217.147H268.153L268.142 217.149H268.137L268.117 217.15H268.113H268.109L268.106 217.151H268.103H268.098H268.09H268.086L268.07 217.153H268.065L268.063 217.154H268.058H268.053H268.049H268.045H268.039H268.037H268.035H268.033H268.027H268.022H268.019H268.015H268.011H268.007L268.003 217.155H267.998H267.994H267.989H267.985H267.979H267.977H267.973H267.967L267.965 217.157H267.961H267.955H267.951H267.947L267.934 217.155H267.929H267.925H267.913H267.909H267.905H267.899C266.426 217.127 265.254 215.91 265.281 214.435C265.306 213.166 266.21 212.122 267.401 211.874L267.402 211.873H267.405H267.406L267.409 211.871H267.41H267.411H267.413L267.414 211.87H267.417L267.419 211.869H267.421L267.423 211.867H267.426H267.429H267.43H267.431L267.433 211.866H267.435V211.865H267.437H267.439H267.441H267.443H267.446V211.863H267.447H267.449H267.45L267.451 211.862H267.453H267.454H267.455H267.458L267.461 211.861H267.462L267.463 211.859H267.465H267.467H267.47H267.471L267.473 211.858H267.475H267.477L267.478 211.857H267.479H267.481H267.483V211.855H267.486H267.487H267.49H267.491H267.494H267.497H267.498L267.499 211.854H267.501H267.503H267.505L267.506 211.853H267.509L267.511 211.851H267.513H267.515H267.517H267.519V211.85H267.521H267.522H267.523H267.525H267.527H267.529L267.53 211.849H267.531L267.533 211.847L267.53 211.843L267.529 211.841L267.526 211.838V207.189C267.526 205.578 267.862 203.558 269.201 201.805C269.025 201.019 269.474 199.863 270.25 198.739C273.209 194.459 277.403 194.558 279.003 196.469C279.938 195.994 281.145 195.725 282.399 195.669C291.321 195.274 291.685 204.261 286.938 207.185V207.189V211.838L286.935 211.841V211.843L286.931 211.847H286.93H286.931L286.933 211.849H286.935V211.85H286.938H286.939H286.941H286.945H286.946L286.947 211.851H286.95H286.951H286.953H286.954L286.955 211.853H286.958H286.959V211.854H286.962H286.965L286.966 211.855H286.967H286.969H286.97H286.971H286.974H286.977H286.978H286.979L286.982 211.857H286.983H286.986L286.989 211.858H286.991H286.993V211.859H286.995H286.997H286.998H286.999H287.001L287.003 211.861H287.006L287.007 211.862H287.009H287.01H287.011H287.014H287.015L287.017 211.863H287.018H287.019L287.021 211.865H287.022H287.025H287.026H287.027H287.03V211.866H287.031H287.033L287.034 211.867H287.035H287.037H287.039H287.041L287.043 211.869H287.046L287.047 211.87H287.049H287.05L287.051 211.871H287.053H287.054H287.057L287.058 211.873H287.059H287.061H287.063V211.874C288.255 212.122 289.159 213.166 289.183 214.435C289.211 215.91 288.038 217.127 286.565 217.155H286.562H286.557H286.553H286.539H286.535H286.531L286.518 217.157H286.514H286.509H286.506L286.502 217.155H286.497H286.493H286.489H286.483H286.479H286.475H286.471H286.466H286.463L286.459 217.154H286.454H286.451H286.446H286.441H286.438H286.433H286.425H286.421H286.415H286.411H286.409H286.405L286.399 217.153H286.395H286.387L286.382 217.151H286.378H286.374H286.369H286.366H286.362H286.359L286.357 217.15H286.353H286.35H286.346H286.341H286.337L286.329 217.149H286.323H286.319L286.311 217.147H286.307L286.303 217.146H286.298H286.295C285.707 221.618 281.857 225.098 277.231 225.098C276.969 225.098 276.705 225.085 276.447 225.063H276.446L281.898 226.17L282.526 226.489L291.678 230.957L291.677 230.963C292.043 231.15 292.51 231.405 293.102 231.747C295.757 233.285 304.741 247.859 308.646 254.471Z" fill="white"/>
<path fill-rule="evenodd" clip-rule="evenodd" d="M244.585 267.201H279.705C280.464 267.201 281.083 267.821 281.083 268.578C281.083 269.337 280.464 269.955 279.705 269.955H244.585C243.829 269.955 243.208 269.337 243.208 268.578C243.208 267.821 243.829 267.201 244.585 267.201ZM349.816 272.834H287.975C287.219 272.834 286.599 273.45 286.599 274.21C286.599 274.967 287.219 275.589 287.975 275.589H349.816C350.573 275.589 351.195 274.967 351.195 274.21C351.195 273.45 350.573 272.834 349.816 272.834ZM244.585 272.834H279.705C280.464 272.834 281.083 273.45 281.083 274.21C281.083 274.967 280.464 275.589 279.705 275.589H244.585C243.829 275.589 243.208 274.967 243.208 274.21C243.208 273.45 243.829 272.834 244.585 272.834ZM349.816 278.463H287.975C287.219 278.463 286.599 279.083 286.599 279.841C286.599 280.598 287.219 281.219 287.975 281.219H349.816C350.573 281.219 351.195 280.598 351.195 279.841C351.195 279.082 350.573 278.463 349.816 278.463ZM244.585 278.463H279.705C280.464 278.463 281.083 279.082 281.083 279.841C281.083 280.598 280.464 281.219 279.705 281.219H244.585C243.829 281.219 243.208 280.598 243.208 279.841C243.208 279.082 243.829 278.463 244.585 278.463ZM349.816 284.095H287.975C287.219 284.095 286.599 284.714 286.599 285.471V285.473C286.599 286.229 287.219 286.85 287.975 286.85H349.816C350.573 286.85 351.195 286.229 351.195 285.473V285.471C351.195 284.714 350.573 284.095 349.816 284.095ZM244.585 284.095H279.705C280.464 284.095 281.083 284.714 281.083 285.471V285.473C281.083 286.229 280.464 286.85 279.705 286.85H244.585C243.829 286.85 243.208 286.229 243.208 285.473V285.471C243.208 284.714 243.829 284.095 244.585 284.095ZM349.816 289.726H287.975C287.219 289.726 286.599 290.346 286.599 291.105C286.599 291.862 287.219 292.481 287.975 292.481H349.816C350.573 292.481 351.195 291.862 351.195 291.105C351.195 290.345 350.573 289.726 349.816 289.726ZM244.585 289.726H279.705C280.464 289.726 281.083 290.345 281.083 291.105C281.083 291.862 280.464 292.481 279.705 292.481H244.585C243.829 292.481 243.208 291.862 243.208 291.105C243.208 290.345 243.829 289.726 244.585 289.726ZM349.816 295.357H287.975C287.219 295.357 286.599 295.977 286.599 296.734C286.599 297.493 287.219 298.114 287.975 298.114H349.816C350.573 298.114 351.195 297.493 351.195 296.734C351.195 295.977 350.573 295.357 349.816 295.357ZM244.585 295.357H279.705C280.464 295.357 281.083 295.977 281.083 296.734C281.083 297.493 280.464 298.114 279.705 298.114H244.585C243.829 298.114 243.208 297.493 243.208 296.734C243.208 295.977 243.829 295.357 244.585 295.357ZM349.816 300.987H287.975C287.219 300.987 286.599 301.609 286.599 302.366C286.599 303.123 287.219 303.743 287.975 303.743H349.816C350.573 303.743 351.195 303.123 351.195 302.366C351.195 301.609 350.573 300.987 349.816 300.987ZM244.585 300.987H279.705C280.464 300.987 281.083 301.609 281.083 302.366C281.083 303.123 280.464 303.743 279.705 303.743H244.585C243.829 303.743 243.208 303.123 243.208 302.366C243.208 301.609 243.829 300.987 244.585 300.987ZM349.816 306.618H287.975C287.219 306.618 286.599 307.239 286.599 307.998C286.599 308.754 287.219 309.375 287.975 309.375H349.816C350.573 309.375 351.195 308.754 351.195 307.998C351.195 307.238 350.573 306.618 349.816 306.618ZM244.585 306.618H279.705C280.464 306.618 281.083 307.238 281.083 307.998C281.083 308.754 280.464 309.375 279.705 309.375H244.585C243.829 309.375 243.208 308.754 243.208 307.998C243.208 307.238 243.829 306.618 244.585 306.618ZM349.816 312.251H287.975C287.219 312.251 286.599 312.871 286.599 313.627V313.629C286.599 314.386 287.219 315.006 287.975 315.006H349.816C350.573 315.006 351.195 314.387 351.195 313.629V313.627C351.195 312.87 350.573 312.251 349.816 312.251ZM244.585 312.251H279.705C280.464 312.251 281.083 312.87 281.083 313.627V313.629C281.083 314.387 280.464 315.006 279.705 315.006H244.585C243.829 315.006 243.208 314.387 243.208 313.629V313.627C243.208 312.87 243.829 312.251 244.585 312.251ZM349.816 317.882H287.975C287.219 317.882 286.599 318.503 286.599 319.259V319.261C286.599 320.015 287.219 320.637 287.975 320.637H349.816C350.573 320.637 351.195 320.015 351.195 319.261V319.259C351.195 318.502 350.573 317.882 349.816 317.882ZM244.585 317.882H279.705C280.464 317.882 281.083 318.502 281.083 319.259V319.261C281.083 320.015 280.464 320.637 279.705 320.637H244.585C243.829 320.637 243.208 320.015 243.208 319.261V319.259C243.208 318.502 243.829 317.882 244.585 317.882ZM349.816 323.513H287.975C287.219 323.513 286.599 324.133 286.599 324.891C286.599 325.647 287.219 326.269 287.975 326.269H349.816C350.573 326.269 351.195 325.649 351.195 324.891C351.195 324.133 350.573 323.513 349.816 323.513ZM244.585 323.513H279.705C280.464 323.513 281.083 324.133 281.083 324.891C281.083 325.649 280.464 326.269 279.705 326.269H244.585C243.829 326.269 243.208 325.649 243.208 324.891C243.208 324.133 243.829 323.513 244.585 323.513ZM349.816 329.143H287.975C287.219 329.143 286.599 329.765 286.599 330.522C286.599 331.281 287.219 331.899 287.975 331.899H349.816C350.573 331.899 351.195 331.282 351.195 330.522C351.195 329.765 350.573 329.143 349.816 329.143ZM244.585 329.143H279.705C280.464 329.143 281.083 329.765 281.083 330.522C281.083 331.282 280.464 331.899 279.705 331.899H244.585C243.829 331.899 243.208 331.282 243.208 330.522C243.208 329.765 243.829 329.143 244.585 329.143ZM349.816 334.775H287.975C287.219 334.775 286.599 335.395 286.599 336.155C286.599 336.91 287.219 337.533 287.975 337.533H349.816C350.573 337.533 351.195 336.91 351.195 336.155C351.195 335.395 350.573 334.775 349.816 334.775ZM244.585 334.775H279.705C280.464 334.775 281.083 335.395 281.083 336.155C281.083 336.91 280.464 337.533 279.705 337.533H244.585C243.829 337.533 243.208 336.91 243.208 336.155C243.208 335.395 243.829 334.775 244.585 334.775ZM349.816 340.407H287.975C287.219 340.407 286.599 341.026 286.599 341.785C286.599 342.542 287.219 343.165 287.975 343.165H349.816C350.573 343.165 351.195 342.543 351.195 341.785C351.195 341.026 350.573 340.407 349.816 340.407ZM244.585 340.407H279.705C280.464 340.407 281.083 341.026 281.083 341.785C281.083 342.543 280.464 343.165 279.705 343.165H244.585C243.829 343.165 243.208 342.543 243.208 341.785C243.208 341.026 243.829 340.407 244.585 340.407ZM349.816 346.038H287.975C287.219 346.038 286.599 346.659 286.599 347.417C286.599 348.173 287.219 348.794 287.975 348.794H349.816C350.573 348.794 351.195 348.174 351.195 347.417C351.195 346.658 350.573 346.038 349.816 346.038ZM244.585 346.038H279.705C280.464 346.038 281.083 346.658 281.083 347.417C281.083 348.174 280.464 348.794 279.705 348.794H244.585C243.829 348.794 243.208 348.174 243.208 347.417C243.208 346.658 243.829 346.038 244.585 346.038ZM349.816 351.67H287.975C287.219 351.67 286.599 352.291 286.599 353.047C286.599 353.805 287.219 354.426 287.975 354.426H349.816C350.573 354.426 351.195 353.805 351.195 353.047C351.195 352.291 350.573 351.67 349.816 351.67ZM244.585 351.67H279.705C280.464 351.67 281.083 352.291 281.083 353.047C281.083 353.805 280.464 354.426 279.705 354.426H244.585C243.829 354.426 243.208 353.805 243.208 353.047C243.208 352.291 243.829 351.67 244.585 351.67ZM349.816 357.299H287.975C287.219 357.299 286.599 357.922 286.599 358.678C286.599 359.437 287.219 360.057 287.975 360.057H349.816C350.573 360.057 351.195 359.439 351.195 358.678C351.195 357.922 350.573 357.299 349.816 357.299ZM244.585 357.299H279.705C280.464 357.299 281.083 357.922 281.083 358.678C281.083 359.439 280.464 360.057 279.705 360.057H244.585C243.829 360.057 243.208 359.439 243.208 358.678C243.208 357.922 243.829 357.299 244.585 357.299ZM349.816 362.933H287.975C287.219 362.933 286.599 363.554 286.599 364.31C286.599 365.066 287.219 365.687 287.975 365.687H349.816C350.573 365.687 351.195 365.069 351.195 364.31C351.195 363.554 350.573 362.933 349.816 362.933ZM244.585 362.933H279.705C280.464 362.933 281.083 363.554 281.083 364.31C281.083 365.069 280.464 365.687 279.705 365.687H244.585C243.829 365.687 243.208 365.069 243.208 364.31C243.208 363.554 243.829 362.933 244.585 362.933ZM349.816 368.563H287.975C287.219 368.563 286.599 369.183 286.599 369.941C286.599 370.701 287.219 371.319 287.975 371.319H349.816C350.573 371.319 351.195 370.701 351.195 369.941C351.195 369.183 350.573 368.563 349.816 368.563ZM244.585 368.563H279.705C280.464 368.563 281.083 369.183 281.083 369.941C281.083 370.701 280.464 371.319 279.705 371.319H244.585C243.829 371.319 243.208 370.701 243.208 369.941C243.208 369.183 243.829 368.563 244.585 368.563ZM349.816 374.194H287.975C287.219 374.194 286.599 374.815 286.599 375.571V375.573C286.599 376.331 287.219 376.95 287.975 376.95H349.816C350.573 376.95 351.195 376.331 351.195 375.573V375.571C351.195 374.815 350.573 374.194 349.816 374.194ZM244.585 374.194H279.705C280.464 374.194 281.083 374.815 281.083 375.571V375.573C281.083 376.331 280.464 376.95 279.705 376.95H244.585C243.829 376.95 243.208 376.331 243.208 375.573V375.571C243.208 374.815 243.829 374.194 244.585 374.194ZM349.816 379.826H287.975C287.219 379.826 286.599 380.446 286.599 381.202V381.203C286.599 381.962 287.219 382.581 287.975 382.581H349.816C350.573 382.581 351.195 381.962 351.195 381.203V381.202C351.195 380.446 350.573 379.826 349.816 379.826ZM244.585 379.826H279.705C280.464 379.826 281.083 380.446 281.083 381.202V381.203C281.083 381.962 280.464 382.581 279.705 382.581H244.585C243.829 382.581 243.208 381.962 243.208 381.203V381.202C243.208 380.446 243.829 379.826 244.585 379.826ZM349.816 385.455H287.975C287.219 385.455 286.599 386.077 286.599 386.835C286.599 387.594 287.219 388.211 287.975 388.211H349.816C350.573 388.211 351.195 387.594 351.195 386.835C351.195 386.077 350.573 385.455 349.816 385.455ZM244.585 385.455H279.705C280.464 385.455 281.083 386.077 281.083 386.835C281.083 387.594 280.464 388.211 279.705 388.211H244.585C243.829 388.211 243.208 387.594 243.208 386.835C243.208 386.077 243.829 385.455 244.585 385.455ZM349.816 391.087H287.975C287.219 391.087 286.599 391.709 286.599 392.465C286.599 393.225 287.219 393.842 287.975 393.842H349.816C350.573 393.842 351.195 393.225 351.195 392.465C351.195 391.709 350.573 391.087 349.816 391.087ZM244.585 391.087H279.705C280.464 391.087 281.083 391.709 281.083 392.465C281.083 393.225 280.464 393.842 279.705 393.842H244.585C243.829 393.842 243.208 393.225 243.208 392.465C243.208 391.709 243.829 391.087 244.585 391.087ZM349.816 396.721H287.975C287.219 396.721 286.599 397.339 286.599 398.097C286.599 398.855 287.219 399.474 287.975 399.474H349.816C350.573 399.474 351.195 398.855 351.195 398.097C351.195 397.339 350.573 396.721 349.816 396.721ZM244.585 396.721H279.705C280.464 396.721 281.083 397.339 281.083 398.097C281.083 398.855 280.464 399.474 279.705 399.474H244.585C243.829 399.474 243.208 398.855 243.208 398.097C243.208 397.339 243.829 396.721 244.585 396.721ZM349.816 267.201H287.975C287.219 267.201 286.599 267.821 286.599 268.578C286.599 269.337 287.219 269.955 287.975 269.955H349.816C350.573 269.955 351.195 269.337 351.195 268.578C351.195 267.821 350.573 267.201 349.816 267.201Z" fill="#BFDCF4"/>
<path fill-rule="evenodd" clip-rule="evenodd" d="M337.886 203.914L341.603 229.415H333.91L337.627 203.914H337.886ZM343.678 190.946H332.007L321.547 251.461H330.711L332.699 237.715H342.814L344.802 251.461H354.138L343.678 190.946Z" fill="#CE4E73"/>
<path fill-rule="evenodd" clip-rule="evenodd" d="M370.465 454.129H407.708C410.144 454.129 412.137 456.122 412.137 458.558V490.118C412.137 492.557 410.144 494.548 407.708 494.548H370.465C368.029 494.548 366.036 492.557 366.036 490.118V458.558C366.036 456.122 368.029 454.129 370.465 454.129Z" fill="#BFDCF4"/>
<path fill-rule="evenodd" clip-rule="evenodd" d="M371.089 345.194H407.085C409.864 345.194 412.137 347.467 412.137 350.246V438.341C412.137 441.119 409.864 443.393 407.085 443.393H371.089C368.311 443.393 366.036 441.119 366.036 438.341V350.246C366.036 347.467 368.311 345.194 371.089 345.194Z" fill="#BFDCF4"/>
<path fill-rule="evenodd" clip-rule="evenodd" d="M252.622 408.656H341.781C346.957 408.656 351.194 412.894 351.194 418.071V485.135C351.194 490.312 346.957 494.548 341.781 494.548H252.622C247.444 494.548 243.208 490.312 243.208 485.135V418.071C243.208 412.894 247.444 408.656 252.622 408.656Z" fill="#E5AC9A"/>
<path fill-rule="evenodd" clip-rule="evenodd" d="M291.268 420.925C284.936 420.925 278.604 423.342 273.772 428.174C268.94 433.005 266.524 439.339 266.524 445.67C266.524 451.999 268.94 458.334 273.772 463.165C278.604 467.997 284.936 470.411 291.268 470.411C297.598 470.411 303.932 467.997 308.762 463.165C313.594 458.334 316.01 451.999 316.01 445.67C316.01 439.339 313.594 433.005 308.762 428.174C303.932 423.342 297.598 420.925 291.268 420.925ZM270.733 425.134C276.402 419.463 283.836 416.627 291.268 416.627C298.7 416.627 306.133 419.463 311.802 425.134C317.473 430.802 320.308 438.235 320.308 445.67C320.308 452.431 317.961 459.193 313.268 464.627L319.136 470.495C320.157 470.375 321.225 470.707 322.01 471.491L331.157 480.641C332.516 481.999 332.516 484.201 331.157 485.559C329.798 486.917 327.596 486.917 326.238 485.559L317.09 476.41C316.305 475.627 315.973 474.558 316.096 473.537L310.226 467.667C304.792 472.362 298.029 474.71 291.268 474.71C283.836 474.71 276.402 471.874 270.733 466.205C265.062 460.534 262.228 453.101 262.228 445.67C262.228 438.235 265.062 430.802 270.733 425.134Z" fill="white"/>
<path fill-rule="evenodd" clip-rule="evenodd" d="M676.574 299.113C697.8 278.571 711.476 304.664 708.044 330.857C704.789 355.692 679.033 440.9 681.173 476.748H672.977C655.27 430.78 649.408 325.411 676.574 299.113Z" fill="#58A991"/>
<path fill-rule="evenodd" clip-rule="evenodd" d="M675.99 476.747C660.172 404.295 689.988 304.145 690.09 303.805C690.271 303.182 690.918 302.799 691.53 302.95C692.146 303.102 692.499 303.729 692.314 304.351C692.215 304.69 662.359 404.955 678.36 476.747H675.99Z" fill="#3E7E80"/>
<path fill-rule="evenodd" clip-rule="evenodd" d="M724.038 344.384C745.871 333.12 749.978 357.697 740.655 378.029C732.926 394.88 700.036 444.724 686.93 476.747H676.12C677.462 432.492 698.263 357.68 724.038 344.384Z" fill="#3E7E80"/>
<path fill-rule="evenodd" clip-rule="evenodd" d="M680.069 476.747C690.156 416.891 733.284 351.831 733.437 351.597C733.737 351.139 734.342 350.993 734.786 351.271C735.228 351.547 735.342 352.143 735.042 352.599C734.888 352.834 692.037 417.474 681.988 476.747H680.069Z" fill="#58A991"/>
<path fill-rule="evenodd" clip-rule="evenodd" d="M632.732 372.793C612.586 363.79 608.13 387.072 616.348 405.436C621.908 417.862 642.605 449.682 656.258 476.748H673.414C669.636 435.801 653.556 382.097 632.732 372.793Z" fill="#80C0B4"/>
<path fill-rule="evenodd" clip-rule="evenodd" d="M667.286 476.747C655.189 427.141 623.882 380.39 623.758 380.201C623.486 379.794 622.928 379.698 622.505 379.993C622.084 380.281 621.961 380.846 622.232 381.253C622.354 381.442 653.33 427.705 665.422 476.747H667.286Z" fill="#58A991"/>
<path fill-rule="evenodd" clip-rule="evenodd" d="M383.348 475.982H536.106C542.388 475.982 548.095 478.551 552.232 482.688C556.37 486.827 558.939 492.536 558.939 498.815C558.939 505.099 556.37 510.807 552.232 514.943C548.095 519.08 542.388 521.65 536.106 521.65H383.348C377.066 521.65 371.356 519.08 367.222 514.943C363.083 510.807 360.516 505.099 360.516 498.815C360.516 492.536 363.083 486.827 367.222 482.688C371.356 478.551 377.066 475.982 383.348 475.982Z" fill="#B62351"/>
<path fill-rule="evenodd" clip-rule="evenodd" d="M725.04 478.643H529.691C518.6 478.643 509.522 487.722 509.522 498.815C509.522 509.913 518.6 518.99 529.691 518.99H725.04V478.643Z" fill="#EAE4E5"/>
<path fill-rule="evenodd" clip-rule="evenodd" d="M725.04 475.982C726.508 475.982 727.698 477.172 727.698 478.643C727.698 480.112 726.508 481.302 725.04 481.302H529.691C524.879 481.302 520.502 483.275 517.327 486.451C514.152 489.622 512.18 494.003 512.18 498.815C512.18 503.63 514.152 508.01 517.327 511.184C520.502 514.356 524.879 516.33 529.691 516.33H725.04C726.508 516.33 727.698 517.52 727.698 518.99C727.698 520.458 726.508 521.65 725.04 521.65H529.691C523.412 521.65 517.702 519.08 513.566 514.943C509.428 510.807 506.859 505.099 506.859 498.815C506.859 492.536 509.428 486.827 513.566 482.688C517.702 478.551 523.412 475.982 529.691 475.982H725.04Z" fill="#CE4E73"/>
<path fill-rule="evenodd" clip-rule="evenodd" d="M390.383 498.815C390.383 492.536 392.953 486.827 397.089 482.688C401.225 478.551 406.935 475.982 413.217 475.982H393.357C387.075 475.982 381.366 478.551 377.23 482.688C373.093 486.827 370.523 492.536 370.523 498.815C370.523 505.099 373.093 510.807 377.23 514.943C381.366 519.08 387.075 521.65 393.357 521.65H413.217C406.935 521.65 401.225 519.08 397.089 514.943C392.953 510.807 390.383 505.099 390.383 498.815Z" fill="#CE4E73"/>
<path fill-rule="evenodd" clip-rule="evenodd" d="M419.157 498.815C419.157 492.536 421.726 486.827 425.862 482.688C430 478.551 435.71 475.982 441.99 475.982H422.13C415.85 475.982 410.138 478.551 406.002 482.688C401.868 486.827 399.298 492.536 399.298 498.815C399.298 505.099 401.868 510.807 406.002 514.943C410.138 519.08 415.85 521.65 422.13 521.65H441.99C435.71 521.65 430 519.08 425.862 514.943C421.726 510.807 419.157 505.099 419.157 498.815Z" fill="#CE4E73"/>
<path fill-rule="evenodd" clip-rule="evenodd" d="M676.706 217.086C699.799 217.086 718.636 198.251 718.636 175.158C718.636 152.062 699.799 133.225 676.706 133.225C653.614 133.225 634.778 152.062 634.778 175.158C634.778 198.251 653.614 217.086 676.706 217.086Z" fill="#CE4E73"/>
<path fill-rule="evenodd" clip-rule="evenodd" d="M676.706 207.849C694.711 207.849 709.4 193.162 709.4 175.157C709.4 157.15 694.711 142.465 676.706 142.465C658.702 142.465 644.015 157.15 644.015 175.157C644.015 193.162 658.702 207.849 676.706 207.849Z" fill="white"/>
<path fill-rule="evenodd" clip-rule="evenodd" d="M676.706 144.564C677.098 144.564 677.416 144.884 677.416 145.273V147.007C677.416 147.397 677.098 147.716 676.706 147.716C676.315 147.716 675.996 147.397 675.996 147.007V145.273C675.996 144.884 676.315 144.564 676.706 144.564Z" fill="#3330D9"/>
<path fill-rule="evenodd" clip-rule="evenodd" d="M676.706 202.596C677.098 202.596 677.416 202.915 677.416 203.306V205.039C677.416 205.43 677.098 205.75 676.706 205.75C676.315 205.75 675.996 205.43 675.996 205.039V203.306C675.996 202.915 676.315 202.596 676.706 202.596Z" fill="#3330D9"/>
<path fill-rule="evenodd" clip-rule="evenodd" d="M692.001 148.663L692.004 148.664C692.343 148.859 692.459 149.295 692.264 149.633L691.396 151.133C691.201 151.471 690.764 151.589 690.428 151.393L690.425 151.392C690.085 151.196 689.973 150.76 690.167 150.421L691.029 148.923C691.228 148.584 691.663 148.467 692.001 148.663Z" fill="#3330D9"/>
<path fill-rule="evenodd" clip-rule="evenodd" d="M662.984 198.919L662.988 198.921C663.326 199.117 663.442 199.553 663.247 199.891L662.382 201.391C662.184 201.729 661.751 201.845 661.411 201.651L661.408 201.65C661.068 201.453 660.956 201.018 661.15 200.679L662.016 199.179C662.211 198.841 662.648 198.725 662.984 198.919Z" fill="#3330D9"/>
<path fill-rule="evenodd" clip-rule="evenodd" d="M703.201 159.861V159.862C703.398 160.199 703.281 160.637 702.941 160.831L701.441 161.697C701.102 161.891 700.669 161.777 700.47 161.438V161.435C700.274 161.097 700.393 160.662 700.73 160.467L702.23 159.601C702.569 159.403 703.005 159.521 703.201 159.861Z" fill="#3330D9"/>
<path fill-rule="evenodd" clip-rule="evenodd" d="M652.943 188.876V188.878C653.137 189.216 653.023 189.654 652.683 189.848L651.183 190.714C650.844 190.908 650.409 190.792 650.215 190.455L650.212 190.452C650.017 190.114 650.135 189.679 650.471 189.482L651.971 188.616C652.311 188.42 652.748 188.538 652.943 188.876Z" fill="#3330D9"/>
<path fill-rule="evenodd" clip-rule="evenodd" d="M707.3 175.156V175.158C707.3 175.55 706.98 175.867 706.589 175.867H704.858C704.466 175.867 704.149 175.55 704.149 175.158V175.156C704.149 174.766 704.466 174.446 704.858 174.446H706.589C706.98 174.446 707.3 174.766 707.3 175.156Z" fill="#3330D9"/>
<path fill-rule="evenodd" clip-rule="evenodd" d="M649.266 175.156V175.158C649.266 175.55 648.946 175.867 648.556 175.867H646.824C646.434 175.867 646.115 175.55 646.115 175.158V175.156C646.115 174.766 646.434 174.446 646.824 174.446H648.556C648.946 174.446 649.266 174.766 649.266 175.156Z" fill="#3330D9"/>
<path fill-rule="evenodd" clip-rule="evenodd" d="M703.201 190.452V190.455C703.005 190.793 702.569 190.908 702.23 190.713L700.73 189.848C700.393 189.652 700.274 189.216 700.47 188.877V188.876C700.669 188.537 701.102 188.421 701.441 188.616L702.941 189.481C703.281 189.679 703.395 190.113 703.201 190.452Z" fill="#3330D9"/>
<path fill-rule="evenodd" clip-rule="evenodd" d="M652.943 161.435V161.438C652.748 161.776 652.311 161.892 651.971 161.696L650.471 160.831C650.135 160.635 650.017 160.199 650.212 159.862L650.215 159.86C650.409 159.52 650.844 159.404 651.183 159.6L652.683 160.466C653.023 160.662 653.137 161.096 652.943 161.435Z" fill="#3330D9"/>
<path fill-rule="evenodd" clip-rule="evenodd" d="M692.004 201.65L692.001 201.651C691.663 201.844 691.228 201.73 691.031 201.392L690.167 199.892C689.973 199.552 690.087 199.115 690.425 198.92L690.428 198.919C690.764 198.726 691.201 198.842 691.396 199.179L692.264 200.679C692.459 201.018 692.343 201.454 692.004 201.65Z" fill="#3330D9"/>
<path fill-rule="evenodd" clip-rule="evenodd" d="M662.988 151.392L662.984 151.393C662.646 151.588 662.211 151.472 662.015 151.133L661.15 149.633C660.956 149.293 661.07 148.86 661.408 148.663L661.411 148.661C661.751 148.467 662.184 148.584 662.382 148.921L663.247 150.421C663.442 150.76 663.326 151.197 662.988 151.392Z" fill="#3330D9"/>
<path fill-rule="evenodd" clip-rule="evenodd" d="M677.712 175.158C677.712 175.714 677.262 176.164 676.706 176.164C676.15 176.164 675.7 175.714 675.7 175.158V151.568C675.7 151.012 676.15 150.562 676.706 150.562C677.262 150.562 677.712 151.012 677.712 151.568V175.158Z" fill="#3330D9"/>
<path fill-rule="evenodd" clip-rule="evenodd" d="M676.177 176.01C675.704 175.717 675.558 175.096 675.854 174.626C676.148 174.154 676.765 174.009 677.236 174.302L691.728 183.358C692.198 183.65 692.342 184.272 692.05 184.742C691.758 185.213 691.137 185.358 690.666 185.065L676.177 176.01Z" fill="#CE4E73"/>
<path fill-rule="evenodd" clip-rule="evenodd" d="M727.694 521.65H553.246C546.074 521.65 539.555 524.582 534.829 529.306C530.106 534.03 527.171 540.552 527.171 547.723C527.171 554.896 530.106 561.418 534.829 566.14C539.555 570.864 546.074 573.798 553.246 573.798H727.694C734.87 573.798 741.39 570.864 746.111 566.14C750.838 561.418 753.771 554.896 753.771 547.723C753.771 540.552 750.838 534.03 746.111 529.306C741.39 524.582 734.87 521.65 727.694 521.65Z" fill="#3330D9"/>
<path fill-rule="evenodd" clip-rule="evenodd" d="M337.484 524.687H560.57C573.238 524.687 583.606 535.051 583.606 547.722C583.606 560.395 573.238 570.763 560.57 570.763H337.484V524.687Z" fill="white"/>
<path fill-rule="evenodd" clip-rule="evenodd" d="M337.484 521.65C335.805 521.65 334.446 523.008 334.446 524.687C334.446 526.362 335.805 527.724 337.484 527.724H560.57C566.066 527.724 571.069 529.974 574.693 533.602C578.317 537.227 580.572 542.227 580.572 547.723C580.572 553.222 578.317 558.222 574.693 561.848C571.069 565.471 566.066 567.724 560.57 567.724H337.484C335.805 567.724 334.446 569.086 334.446 570.763C334.446 572.44 335.805 573.798 337.484 573.798H560.57C567.744 573.798 574.262 570.864 578.986 566.14C583.712 561.418 586.648 554.896 586.648 547.723C586.648 540.552 583.712 534.03 578.986 529.306C574.262 524.582 567.744 521.65 560.57 521.65H337.484Z" fill="#0F1159"/>
<path fill-rule="evenodd" clip-rule="evenodd" d="M719.663 547.723C719.663 540.552 716.73 534.029 712.003 529.305C707.279 524.583 700.76 521.649 693.587 521.649H716.264C723.439 521.649 729.962 524.583 734.684 529.305C739.408 534.029 742.342 540.552 742.342 547.723C742.342 554.896 739.408 561.417 734.684 566.14C729.962 570.864 723.439 573.799 716.264 573.799H693.587C700.76 573.799 707.279 570.864 712.003 566.14C716.73 561.417 719.663 554.896 719.663 547.723Z" fill="#0F1159"/>
<path fill-rule="evenodd" clip-rule="evenodd" d="M686.801 547.723C686.801 540.552 683.867 534.029 679.145 529.305C674.421 524.583 667.898 521.649 660.727 521.649H683.407C690.581 521.649 697.103 524.583 701.826 529.305C706.55 534.029 709.483 540.552 709.483 547.723C709.483 554.896 706.55 561.417 701.826 566.14C697.103 570.864 690.581 573.799 683.407 573.799H660.727C667.898 573.799 674.421 570.864 679.145 566.14C683.867 561.417 686.801 554.896 686.801 547.723Z" fill="#0F1159"/>
<path fill-rule="evenodd" clip-rule="evenodd" d="M386.057 311.426H372.073C368.368 311.426 365.337 308.395 365.337 304.69V302.062V285.762V263.068V235.284V183.496C365.337 179.79 362.307 176.76 358.601 176.76H455.745C459.448 176.76 462.48 179.79 462.48 183.496V235.284V263.068V302.062C462.48 303.759 461.091 305.148 459.392 305.148H386.057V311.426Z" fill="#2C376F"/>
<path fill-rule="evenodd" clip-rule="evenodd" d="M459.129 187.715H369.069C368.456 187.715 367.953 188.217 367.953 188.831V190.817C367.953 191.429 368.456 191.932 369.069 191.932H459.129C459.741 191.932 460.244 191.431 460.244 190.817V188.831C460.244 188.217 459.741 187.715 459.129 187.715Z" fill="#22265E"/>
<path fill-rule="evenodd" clip-rule="evenodd" d="M371.315 196.216H399.872C400.488 196.216 400.992 196.72 400.992 197.335V197.336C400.992 197.951 400.488 198.456 399.872 198.456H371.315C370.699 198.456 370.196 197.951 370.196 197.336V197.335C370.196 196.72 370.699 196.216 371.315 196.216ZM456.883 200.795H406.598C405.982 200.795 405.478 201.299 405.478 201.914V201.915C405.478 202.53 405.982 203.035 406.598 203.035H456.883C457.498 203.035 458.002 202.531 458.002 201.915V201.914C458.002 201.299 457.498 200.795 456.883 200.795ZM371.315 200.795H399.872C400.488 200.795 400.992 201.299 400.992 201.914V201.915C400.992 202.531 400.488 203.035 399.872 203.035H371.315C370.699 203.035 370.196 202.531 370.196 201.915V201.914C370.196 201.299 370.699 200.795 371.315 200.795ZM456.883 205.374H406.598C405.982 205.374 405.478 205.876 405.478 206.494C405.478 207.11 405.982 207.614 406.598 207.614H456.883C457.498 207.614 458.002 207.11 458.002 206.494C458.002 205.876 457.498 205.374 456.883 205.374ZM371.315 205.374H399.872C400.488 205.374 400.992 205.876 400.992 206.494C400.992 207.11 400.488 207.614 399.872 207.614H371.315C370.699 207.614 370.196 207.11 370.196 206.494C370.196 205.876 370.699 205.374 371.315 205.374ZM456.883 209.954H406.598C405.982 209.954 405.478 210.458 405.478 211.072V211.074C405.478 211.688 405.982 212.191 406.598 212.191H456.883C457.498 212.191 458.002 211.688 458.002 211.074V211.072C458.002 210.456 457.498 209.954 456.883 209.954ZM371.315 209.954H399.872C400.488 209.954 400.992 210.456 400.992 211.072V211.074C400.992 211.688 400.488 212.191 399.872 212.191H371.315C370.699 212.191 370.196 211.688 370.196 211.074V211.072C370.196 210.456 370.699 209.954 371.315 209.954ZM456.883 214.531H406.598C405.982 214.531 405.478 215.035 405.478 215.651V215.652C405.478 216.268 405.982 216.772 406.598 216.772H456.883C457.498 216.772 458.002 216.268 458.002 215.652V215.651C458.002 215.035 457.498 214.531 456.883 214.531ZM371.315 214.531H399.872C400.488 214.531 400.992 215.035 400.992 215.651V215.652C400.992 216.268 400.488 216.772 399.872 216.772H371.315C370.699 216.772 370.196 216.268 370.196 215.652V215.651C370.196 215.035 370.699 214.531 371.315 214.531ZM456.883 219.111H406.598C405.982 219.111 405.478 219.615 405.478 220.231C405.478 220.847 405.982 221.352 406.598 221.352H456.883C457.498 221.352 458.002 220.847 458.002 220.231C458.002 219.615 457.498 219.111 456.883 219.111ZM371.315 219.111H399.872C400.488 219.111 400.992 219.615 400.992 220.231C400.992 220.847 400.488 221.352 399.872 221.352H371.315C370.699 221.352 370.196 220.847 370.196 220.231C370.196 219.615 370.699 219.111 371.315 219.111ZM456.883 223.688H406.598C405.982 223.688 405.478 224.192 405.478 224.808V224.81C405.478 225.426 405.982 225.93 406.598 225.93H456.883C457.498 225.93 458.002 225.426 458.002 224.81V224.808C458.002 224.192 457.498 223.688 456.883 223.688ZM371.315 223.688H399.872C400.488 223.688 400.992 224.192 400.992 224.808V224.81C400.992 225.426 400.488 225.93 399.872 225.93H371.315C370.699 225.93 370.196 225.426 370.196 224.81V224.808C370.196 224.192 370.699 223.688 371.315 223.688ZM456.883 228.268H406.598C405.982 228.268 405.478 228.772 405.478 229.388C405.478 230.004 405.982 230.51 406.598 230.51H456.883C457.498 230.51 458.002 230.004 458.002 229.388C458.002 228.772 457.498 228.268 456.883 228.268ZM371.315 228.268H399.872C400.488 228.268 400.992 228.772 400.992 229.388C400.992 230.004 400.488 230.51 399.872 230.51H371.315C370.699 230.51 370.196 230.004 370.196 229.388C370.196 228.772 370.699 228.268 371.315 228.268ZM456.883 232.847H406.598C405.982 232.847 405.478 233.352 405.478 233.967C405.478 234.583 405.982 235.087 406.598 235.087H456.883C457.498 235.087 458.002 234.583 458.002 233.967C458.002 233.352 457.498 232.847 456.883 232.847ZM371.315 232.847H399.872C400.488 232.847 400.992 233.352 400.992 233.967C400.992 234.583 400.488 235.087 399.872 235.087H371.315C370.699 235.087 370.196 234.583 370.196 233.967C370.196 233.352 370.699 232.847 371.315 232.847ZM456.883 237.426H406.598C405.982 237.426 405.478 237.93 405.478 238.546V238.547C405.478 239.162 405.982 239.667 406.598 239.667H456.883C457.498 239.667 458.002 239.163 458.002 238.547V238.546C458.002 237.93 457.498 237.426 456.883 237.426ZM371.315 237.426H399.872C400.488 237.426 400.992 237.93 400.992 238.546V238.547C400.992 239.163 400.488 239.667 399.872 239.667H371.315C370.699 239.667 370.196 239.163 370.196 238.547V238.546C370.196 237.93 370.699 237.426 371.315 237.426ZM456.883 242.006H406.598C405.982 242.006 405.478 242.511 405.478 243.124C405.478 243.742 405.982 244.244 406.598 244.244H456.883C457.498 244.244 458.002 243.742 458.002 243.124C458.002 242.51 457.498 242.006 456.883 242.006ZM371.315 242.006H399.872C400.488 242.006 400.992 242.51 400.992 243.124C400.992 243.742 400.488 244.244 399.872 244.244H371.315C370.699 244.244 370.196 243.742 370.196 243.124C370.196 242.51 370.699 242.006 371.315 242.006ZM456.883 246.583H406.598C405.982 246.583 405.478 247.088 405.478 247.704C405.478 248.32 405.982 248.826 406.598 248.826H456.883C457.498 248.826 458.002 248.32 458.002 247.704C458.002 247.088 457.498 246.583 456.883 246.583ZM371.315 246.583H399.872C400.488 246.583 400.992 247.088 400.992 247.704C400.992 248.32 400.488 248.826 399.872 248.826H371.315C370.699 248.826 370.196 248.32 370.196 247.704C370.196 247.088 370.699 246.583 371.315 246.583ZM456.883 251.164H406.598C405.982 251.164 405.478 251.667 405.478 252.283C405.478 252.899 405.982 253.404 406.598 253.404H456.883C457.498 253.404 458.002 252.9 458.002 252.283C458.002 251.666 457.498 251.164 456.883 251.164ZM371.315 251.164H399.872C400.488 251.164 400.992 251.666 400.992 252.283C400.992 252.9 400.488 253.404 399.872 253.404H371.315C370.699 253.404 370.196 252.9 370.196 252.283C370.196 251.666 370.699 251.164 371.315 251.164ZM456.883 255.743H406.598C405.982 255.743 405.478 256.246 405.478 256.863C405.478 257.478 405.982 257.98 406.598 257.98H456.883C457.498 257.98 458.002 257.478 458.002 256.863C458.002 256.246 457.498 255.743 456.883 255.743ZM371.315 255.743H399.872C400.488 255.743 400.992 256.246 400.992 256.863C400.992 257.478 400.488 257.98 399.872 257.98H371.315C370.699 257.98 370.196 257.478 370.196 256.863C370.196 256.246 370.699 255.743 371.315 255.743ZM456.883 260.32H406.598C405.982 260.32 405.478 260.824 405.478 261.44V261.442C405.478 262.058 405.982 262.562 406.598 262.562H456.883C457.498 262.562 458.002 262.058 458.002 261.442V261.44C458.002 260.824 457.498 260.32 456.883 260.32ZM371.315 260.32H399.872C400.488 260.32 400.992 260.824 400.992 261.44V261.442C400.992 262.058 400.488 262.562 399.872 262.562H371.315C370.699 262.562 370.196 262.058 370.196 261.442V261.44C370.196 260.824 370.699 260.32 371.315 260.32ZM456.883 264.9H406.598C405.982 264.9 405.478 265.404 405.478 266.02C405.478 266.635 405.982 267.14 406.598 267.14H456.883C457.498 267.14 458.002 266.635 458.002 266.02C458.002 265.404 457.498 264.9 456.883 264.9ZM371.315 264.9H399.872C400.488 264.9 400.992 265.404 400.992 266.02C400.992 266.635 400.488 267.14 399.872 267.14H371.315C370.699 267.14 370.196 266.635 370.196 266.02C370.196 265.404 370.699 264.9 371.315 264.9ZM456.883 269.479H406.598C405.982 269.479 405.478 269.983 405.478 270.599C405.478 271.215 405.982 271.72 406.598 271.72H456.883C457.498 271.72 458.002 271.216 458.002 270.599C458.002 269.983 457.498 269.479 456.883 269.479ZM371.315 269.479H399.872C400.488 269.479 400.992 269.983 400.992 270.599C400.992 271.216 400.488 271.72 399.872 271.72H371.315C370.699 271.72 370.196 271.216 370.196 270.599C370.196 269.983 370.699 269.479 371.315 269.479ZM456.883 274.059H406.598C405.982 274.059 405.478 274.562 405.478 275.179C405.478 275.794 405.982 276.299 406.598 276.299H456.883C457.498 276.299 458.002 275.795 458.002 275.179C458.002 274.56 457.498 274.059 456.883 274.059ZM371.315 274.059H399.872C400.488 274.059 400.992 274.56 400.992 275.179C400.992 275.795 400.488 276.299 399.872 276.299H371.315C370.699 276.299 370.196 275.795 370.196 275.179C370.196 274.56 370.699 274.059 371.315 274.059ZM456.883 278.636H406.598C405.982 278.636 405.478 279.14 405.478 279.756C405.478 280.374 405.982 280.878 406.598 280.878H456.883C457.498 280.878 458.002 280.374 458.002 279.756C458.002 279.14 457.498 278.636 456.883 278.636ZM371.315 278.636H399.872C400.488 278.636 400.992 279.14 400.992 279.756C400.992 280.374 400.488 280.878 399.872 280.878H371.315C370.699 280.878 370.196 280.374 370.196 279.756C370.196 279.14 370.699 278.636 371.315 278.636ZM456.883 283.215H406.598C405.982 283.215 405.478 283.72 405.478 284.336C405.478 284.952 405.982 285.456 406.598 285.456H456.883C457.498 285.456 458.002 284.952 458.002 284.336C458.002 283.719 457.498 283.215 456.883 283.215ZM371.315 283.215H399.872C400.488 283.215 400.992 283.719 400.992 284.336C400.992 284.952 400.488 285.456 399.872 285.456H371.315C370.699 285.456 370.196 284.952 370.196 284.336C370.196 283.719 370.699 283.215 371.315 283.215ZM456.883 287.795H406.598C405.982 287.795 405.478 288.3 405.478 288.914V288.915C405.478 289.531 405.982 290.034 406.598 290.034H456.883C457.498 290.034 458.002 289.531 458.002 288.915V288.914C458.002 288.3 457.498 287.795 456.883 287.795ZM371.315 287.795H399.872C400.488 287.795 400.992 288.3 400.992 288.914V288.915C400.992 289.531 400.488 290.034 399.872 290.034H371.315C370.699 290.034 370.196 289.531 370.196 288.915V288.914C370.196 288.3 370.699 287.795 371.315 287.795ZM456.883 292.374H406.598C405.982 292.374 405.478 292.878 405.478 293.494C405.478 294.111 405.982 294.615 406.598 294.615H456.883C457.498 294.615 458.002 294.111 458.002 293.494C458.002 292.878 457.498 292.374 456.883 292.374ZM371.315 292.374H399.872C400.488 292.374 400.992 292.878 400.992 293.494C400.992 294.111 400.488 294.615 399.872 294.615H371.315C370.699 294.615 370.196 294.111 370.196 293.494C370.196 292.878 370.699 292.374 371.315 292.374ZM456.883 296.954H406.598C405.982 296.954 405.478 297.456 405.478 298.072V298.074C405.478 298.688 405.982 299.192 406.598 299.192H456.883C457.498 299.192 458.002 298.688 458.002 298.074V298.072C458.002 297.456 457.498 296.954 456.883 296.954ZM371.315 296.954H399.872C400.488 296.954 400.992 297.456 400.992 298.072V298.074C400.992 298.688 400.488 299.192 399.872 299.192H371.315C370.699 299.192 370.196 298.688 370.196 298.074V298.072C370.196 297.456 370.699 296.954 371.315 296.954ZM456.883 301.531H406.598C405.982 301.531 405.478 302.036 405.478 302.652C405.478 303.268 405.982 303.771 406.598 303.771H456.883C457.498 303.771 458.002 303.268 458.002 302.652C458.002 302.035 457.498 301.531 456.883 301.531ZM371.315 301.531H399.872C400.488 301.531 400.992 302.035 400.992 302.652C400.992 303.268 400.488 303.771 399.872 303.771H371.315C370.699 303.771 370.196 303.268 370.196 302.652C370.196 302.035 370.699 301.531 371.315 301.531ZM456.883 196.216H406.598C405.982 196.216 405.478 196.72 405.478 197.335V197.336C405.478 197.951 405.982 198.456 406.598 198.456H456.883C457.498 198.456 458.002 197.951 458.002 197.336V197.335C458.002 196.72 457.498 196.216 456.883 196.216Z" fill="#22265E"/>
<path fill-rule="evenodd" clip-rule="evenodd" d="M378.809 304.69C378.809 308.394 375.778 311.426 372.073 311.426H381.895H416.915H420.563C422.262 311.426 423.651 310.038 423.651 308.338L445.379 304.69V241.63C445.379 237.926 448.409 234.894 452.114 234.894H385.543C381.839 234.894 378.809 237.926 378.809 241.63V304.69Z" fill="#3D5EA7"/>
<path fill-rule="evenodd" clip-rule="evenodd" d="M392.279 241.63C392.279 237.926 389.25 234.894 385.543 234.894H395.366H482.686H486.337C488.034 234.894 489.423 236.284 489.423 237.981V241.63V326.444C489.423 330.149 492.455 333.18 496.158 333.18H399.015C395.31 333.18 392.279 330.149 392.279 326.444V241.63Z" fill="#678DC8"/>
<path fill-rule="evenodd" clip-rule="evenodd" d="M405.751 246.872V274.655V326.444C405.751 330.148 402.719 333.179 399.015 333.179H496.158C499.862 333.179 502.894 330.148 502.894 326.444V274.655V246.872V210.572C502.894 208.874 501.503 207.486 499.807 207.486H408.838C407.141 207.486 405.751 208.875 405.751 210.572V246.872Z" fill="#BFDCF4"/>
<path fill-rule="evenodd" clip-rule="evenodd" d="M488.249 274.717H413.847C411.725 274.717 409.989 276.452 409.989 278.575V316.427C409.989 318.548 411.725 320.284 413.847 320.284H488.249C490.37 320.284 492.106 318.548 492.106 316.427V278.575C492.106 276.452 490.371 274.717 488.249 274.717Z" fill="#678DC8"/>
<path fill-rule="evenodd" clip-rule="evenodd" d="M502.895 218.098V210.572C502.895 208.874 501.504 207.486 499.808 207.486H408.839C407.14 207.486 405.752 208.875 405.752 210.572V218.098H502.895Z" fill="#678DC8"/>
<path fill-rule="evenodd" clip-rule="evenodd" d="M494.31 214.315C495.149 214.315 495.835 213.631 495.835 212.791C495.835 211.952 495.149 211.267 494.31 211.267C493.471 211.267 492.785 211.952 492.785 212.791C492.785 213.631 493.471 214.315 494.31 214.315Z" fill="white"/>
<path fill-rule="evenodd" clip-rule="evenodd" d="M488.738 214.315C489.577 214.315 490.261 213.631 490.261 212.791C490.261 211.952 489.577 211.267 488.738 211.267C487.898 211.267 487.213 211.952 487.213 212.791C487.213 213.631 487.898 214.315 488.738 214.315Z" fill="white"/>
<path fill-rule="evenodd" clip-rule="evenodd" d="M483.165 214.315C484.004 214.315 484.689 213.631 484.689 212.791C484.689 211.952 484.004 211.267 483.165 211.267C482.324 211.267 481.639 211.952 481.639 212.791C481.639 213.631 482.324 214.315 483.165 214.315Z" fill="white"/>
<path fill-rule="evenodd" clip-rule="evenodd" d="M495.165 235.005H485.147C484.851 235.005 484.607 235.249 484.607 235.545C484.607 235.844 484.851 236.087 485.147 236.087H495.165C495.464 236.087 495.708 235.844 495.708 235.545C495.708 235.249 495.464 235.005 495.165 235.005Z" fill="white"/>
<path fill-rule="evenodd" clip-rule="evenodd" d="M495.165 237.384H489.491C489.192 237.384 488.951 237.627 488.951 237.924C488.951 238.223 489.192 238.465 489.491 238.465H495.165C495.464 238.465 495.708 238.223 495.708 237.924C495.708 237.627 495.464 237.384 495.165 237.384Z" fill="white"/>
<path fill-rule="evenodd" clip-rule="evenodd" d="M495.165 242.177H485.147C484.851 242.177 484.607 242.42 484.607 242.716C484.607 243.014 484.851 243.258 485.147 243.258H495.165C495.464 243.258 495.708 243.014 495.708 242.716C495.708 242.42 495.464 242.177 495.165 242.177Z" fill="white"/>
<path fill-rule="evenodd" clip-rule="evenodd" d="M495.165 244.555H489.491C489.192 244.555 488.951 244.797 488.951 245.095C488.951 245.392 489.192 245.636 489.491 245.636H495.165C495.464 245.636 495.708 245.392 495.708 245.095C495.708 244.797 495.464 244.555 495.165 244.555Z" fill="white"/>
<path fill-rule="evenodd" clip-rule="evenodd" d="M487.564 244.555H486.733C486.436 244.555 486.193 244.797 486.193 245.095C486.193 245.392 486.436 245.636 486.733 245.636H487.564C487.861 245.636 488.103 245.392 488.103 245.095C488.103 244.797 487.861 244.555 487.564 244.555Z" fill="white"/>
<path fill-rule="evenodd" clip-rule="evenodd" d="M495.165 251.113H490.067C489.769 251.113 489.527 250.871 489.527 250.575C489.527 250.275 489.769 250.032 490.067 250.032H495.165C495.464 250.032 495.708 250.275 495.708 250.575C495.708 250.871 495.464 251.113 495.165 251.113Z" fill="white"/>
<path fill-rule="evenodd" clip-rule="evenodd" d="M495.165 248.736H488.121C487.823 248.736 487.581 248.493 487.581 248.194C487.581 247.897 487.823 247.654 488.121 247.654H495.165C495.464 247.654 495.708 247.897 495.708 248.194C495.708 248.493 495.464 248.736 495.165 248.736Z" fill="white"/>
<path fill-rule="evenodd" clip-rule="evenodd" d="M486.021 248.736H484.806C484.508 248.736 484.265 248.493 484.265 248.194C484.265 247.897 484.508 247.654 484.806 247.654H486.021C486.321 247.654 486.561 247.897 486.561 248.194C486.561 248.493 486.321 248.736 486.021 248.736Z" fill="white"/>
<path fill-rule="evenodd" clip-rule="evenodd" d="M495.165 253.6H491.797C491.5 253.6 491.257 253.358 491.257 253.059C491.257 252.762 491.5 252.518 491.797 252.518H495.165C495.464 252.518 495.708 252.762 495.708 253.059C495.708 253.358 495.464 253.6 495.165 253.6Z" fill="white"/>
<path fill-rule="evenodd" clip-rule="evenodd" d="M495.165 255.977H487.689C487.392 255.977 487.148 255.734 487.148 255.438C487.148 255.141 487.392 254.897 487.689 254.897H495.165C495.464 254.897 495.708 255.141 495.708 255.438C495.708 255.734 495.464 255.977 495.165 255.977Z" fill="white"/>
<path fill-rule="evenodd" clip-rule="evenodd" d="M470.733 236.231H414.284C413.986 236.231 413.744 236.475 413.744 236.771C413.744 237.068 413.986 237.311 414.284 237.311H470.733C471.033 237.311 471.274 237.068 471.274 236.771C471.274 236.475 471.033 236.231 470.733 236.231ZM470.733 240.843H414.284C413.986 240.843 413.744 241.087 413.744 241.384C413.744 241.68 413.986 241.924 414.284 241.924H470.733C471.033 241.924 471.274 241.68 471.274 241.384C471.274 241.087 471.033 240.843 470.733 240.843ZM470.733 245.456H414.284C413.986 245.456 413.744 245.699 413.744 245.996C413.744 246.295 413.986 246.536 414.284 246.536H470.733C471.033 246.536 471.274 246.295 471.274 245.996C471.274 245.699 471.033 245.456 470.733 245.456ZM470.733 250.068H414.284C413.986 250.068 413.744 250.311 413.744 250.608C413.744 250.907 413.986 251.148 414.284 251.148H470.733C471.033 251.148 471.274 250.907 471.274 250.608C471.274 250.311 471.033 250.068 470.733 250.068ZM470.733 254.681H414.284C413.986 254.681 413.744 254.924 413.744 255.221C413.744 255.519 413.986 255.761 414.284 255.761H470.733C471.033 255.761 471.274 255.519 471.274 255.221C471.274 254.924 471.033 254.681 470.733 254.681ZM470.733 259.293H414.284C413.986 259.293 413.744 259.536 413.744 259.833C413.744 260.132 413.986 260.373 414.284 260.373H470.733C471.033 260.373 471.274 260.132 471.274 259.833C471.274 259.536 471.033 259.293 470.733 259.293ZM470.733 263.905H414.284C413.986 263.905 413.744 264.149 413.744 264.447C413.744 264.744 413.986 264.987 414.284 264.987H470.733C471.033 264.987 471.274 264.744 471.274 264.447C471.274 264.149 471.033 263.905 470.733 263.905ZM470.733 231.619H414.284C413.986 231.619 413.744 231.861 413.744 232.157C413.744 232.456 413.986 232.699 414.284 232.699H470.733C471.033 232.699 471.274 232.456 471.274 232.157C471.274 231.861 471.033 231.619 470.733 231.619Z" fill="#0F1159"/>
<path fill-rule="evenodd" clip-rule="evenodd" d="M475.69 233.059C476.186 233.059 476.591 232.655 476.591 232.159C476.591 231.663 476.186 231.257 475.69 231.257C475.193 231.257 474.789 231.663 474.789 232.159C474.789 232.655 475.193 233.059 475.69 233.059Z" fill="#303685"/>
<path fill-rule="evenodd" clip-rule="evenodd" d="M475.69 237.672C476.186 237.672 476.591 237.267 476.591 236.771C476.591 236.275 476.186 235.869 475.69 235.869C475.193 235.869 474.789 236.275 474.789 236.771C474.789 237.267 475.193 237.672 475.69 237.672Z" fill="#303685"/>
<path fill-rule="evenodd" clip-rule="evenodd" d="M475.69 242.285C476.186 242.285 476.591 241.879 476.591 241.384C476.591 240.888 476.186 240.481 475.69 240.481C475.193 240.481 474.789 240.888 474.789 241.384C474.789 241.879 475.193 242.285 475.69 242.285Z" fill="#303685"/>
<path fill-rule="evenodd" clip-rule="evenodd" d="M475.69 246.897C476.186 246.897 476.591 246.491 476.591 245.996C476.591 245.499 476.186 245.095 475.69 245.095C475.193 245.095 474.789 245.499 474.789 245.996C474.789 246.491 475.193 246.897 475.69 246.897Z" fill="#303685"/>
<path fill-rule="evenodd" clip-rule="evenodd" d="M475.69 251.509C476.186 251.509 476.591 251.105 476.591 250.608C476.591 250.112 476.186 249.708 475.69 249.708C475.193 249.708 474.789 250.112 474.789 250.608C474.789 251.105 475.193 251.509 475.69 251.509Z" fill="#303685"/>
<path fill-rule="evenodd" clip-rule="evenodd" d="M475.69 256.121C476.186 256.121 476.591 255.718 476.591 255.221C476.591 254.724 476.186 254.32 475.69 254.32C475.193 254.32 474.789 254.724 474.789 255.221C474.789 255.718 475.193 256.121 475.69 256.121Z" fill="#303685"/>
<path fill-rule="evenodd" clip-rule="evenodd" d="M475.69 260.734C476.186 260.734 476.591 260.33 476.591 259.833C476.591 259.338 476.186 258.932 475.69 258.932C475.193 258.932 474.789 259.338 474.789 259.833C474.789 260.33 475.193 260.734 475.69 260.734Z" fill="#303685"/>
<path fill-rule="evenodd" clip-rule="evenodd" d="M475.69 265.348C476.186 265.348 476.591 264.942 476.591 264.446C476.591 263.95 476.186 263.544 475.69 263.544C475.193 263.544 474.789 263.95 474.789 264.446C474.789 264.942 475.193 265.348 475.69 265.348Z" fill="#303685"/>
<path fill-rule="evenodd" clip-rule="evenodd" d="M475.509 223.689H433.636C433.04 223.689 432.553 224.174 432.553 224.77C432.553 225.365 433.04 225.85 433.636 225.85H475.509C476.104 225.85 476.592 225.365 476.592 224.77C476.592 224.174 476.104 223.689 475.509 223.689Z" fill="white"/>
<path fill-rule="evenodd" clip-rule="evenodd" d="M428.879 223.689H414.824C414.228 223.689 413.743 224.174 413.743 224.77C413.743 225.365 414.228 225.85 414.824 225.85H428.879C429.474 225.85 429.96 225.365 429.96 224.77C429.96 224.174 429.474 223.689 428.879 223.689Z" fill="white"/>
<path fill-rule="evenodd" clip-rule="evenodd" d="M490.158 231.807C492.59 231.807 494.574 229.826 494.574 227.391C494.574 224.959 492.59 222.977 490.158 222.977C487.726 222.977 485.742 224.959 485.742 227.391C485.742 229.826 487.726 231.807 490.158 231.807Z" fill="white"/>
<path fill-rule="evenodd" clip-rule="evenodd" d="M490.158 224.251C489.251 224.251 488.518 224.986 488.518 225.891C488.518 226.797 489.251 227.533 490.158 227.533C491.064 227.533 491.796 226.797 491.796 225.891C491.796 224.986 491.064 224.251 490.158 224.251ZM487.872 230.287C488.502 230.783 489.294 231.079 490.158 231.079C491.02 231.079 491.814 230.783 492.442 230.287C492.403 229.065 491.39 228.077 490.158 228.077C488.924 228.077 487.912 229.065 487.872 230.287Z" fill="#CE4E73"/>
<path fill-rule="evenodd" clip-rule="evenodd" d="M491.523 271.921H417.122C414.999 271.921 413.263 273.658 413.263 275.779V313.63C413.263 315.753 414.999 317.489 417.122 317.489H491.523C493.646 317.489 495.382 315.753 495.382 313.63V275.779C495.382 273.657 493.646 271.921 491.523 271.921Z" fill="white"/>
<path fill-rule="evenodd" clip-rule="evenodd" d="M491.523 271.921H417.122C414.999 271.921 413.263 273.657 413.263 275.779V281.106C413.263 281.701 413.75 282.185 414.345 282.185H494.301C494.895 282.185 495.382 281.701 495.382 281.106V275.779C495.382 273.657 493.646 271.921 491.523 271.921Z" fill="#22265E"/>
<path fill-rule="evenodd" clip-rule="evenodd" d="M468.283 297.754H472.951C473.391 297.754 473.751 298.115 473.751 298.557C473.751 298.997 473.391 299.357 472.951 299.357H468.283C467.841 299.357 467.479 298.997 467.479 298.557C467.479 298.115 467.841 297.754 468.283 297.754ZM489.14 305.486H484.473C484.032 305.486 483.669 305.845 483.669 306.286C483.669 306.727 484.032 307.087 484.473 307.087H489.14C489.581 307.087 489.94 306.727 489.94 306.286C489.94 305.845 489.581 305.486 489.14 305.486ZM481.664 290.025H480.924C480.481 290.025 480.124 290.385 480.124 290.826C480.124 291.267 480.481 291.625 480.924 291.625H481.664C482.104 291.625 482.467 291.267 482.467 290.826C482.467 290.385 482.104 290.025 481.664 290.025Z" fill="#D7766E"/>
<path fill-rule="evenodd" clip-rule="evenodd" d="M468.283 290.025H477.6C478.039 290.025 478.401 290.385 478.401 290.826C478.401 291.267 478.039 291.625 477.6 291.625H468.283C467.841 291.625 467.481 291.267 467.481 290.826C467.481 290.385 467.841 290.025 468.283 290.025Z" fill="#0F1159"/>
<path fill-rule="evenodd" clip-rule="evenodd" d="M489.139 290.025H484.473C484.031 290.025 483.669 290.385 483.669 290.826C483.669 291.267 484.031 291.625 484.473 291.625H489.139C489.581 291.625 489.941 291.267 489.941 290.826C489.941 290.385 489.581 290.025 489.139 290.025Z" fill="#0F1159"/>
<path fill-rule="evenodd" clip-rule="evenodd" d="M489.139 294.219H468.282C467.841 294.219 467.479 294.579 467.479 295.02C467.479 295.461 467.841 295.82 468.282 295.82H489.139C489.581 295.82 489.939 295.461 489.939 295.02C489.939 294.579 489.581 294.219 489.139 294.219Z" fill="#0F1159"/>
<path fill-rule="evenodd" clip-rule="evenodd" d="M489.139 297.754H479.822C479.382 297.754 479.021 298.115 479.021 298.557C479.021 298.997 479.382 299.357 479.822 299.357H489.139C489.581 299.357 489.939 298.997 489.939 298.557C489.939 298.115 489.581 297.754 489.139 297.754Z" fill="#0F1159"/>
<path fill-rule="evenodd" clip-rule="evenodd" d="M475.758 297.754H476.498C476.938 297.754 477.298 298.115 477.298 298.557C477.298 298.997 476.938 299.357 476.498 299.357H475.758C475.318 299.357 474.957 298.997 474.957 298.557C474.957 298.115 475.318 297.754 475.758 297.754Z" fill="#0F1159"/>
<path fill-rule="evenodd" clip-rule="evenodd" d="M489.139 301.949H468.282C467.841 301.949 467.479 302.309 467.479 302.751C467.479 303.191 467.841 303.551 468.282 303.551H489.139C489.581 303.551 489.939 303.191 489.939 302.751C489.939 302.309 489.581 301.949 489.139 301.949Z" fill="#0F1159"/>
<path fill-rule="evenodd" clip-rule="evenodd" d="M468.283 305.486H477.6C478.039 305.486 478.401 305.846 478.401 306.287C478.401 306.727 478.039 307.087 477.6 307.087H468.283C467.841 307.087 467.481 306.727 467.481 306.287C467.481 305.846 467.841 305.486 468.283 305.486Z" fill="#0F1159"/>
<path fill-rule="evenodd" clip-rule="evenodd" d="M481.663 305.486H480.924C480.481 305.486 480.124 305.846 480.124 306.287C480.124 306.727 480.481 307.087 480.924 307.087H481.663C482.104 307.087 482.467 306.727 482.467 306.287C482.467 305.846 482.104 305.486 481.663 305.486Z" fill="#0F1159"/>
<path fill-rule="evenodd" clip-rule="evenodd" d="M489.139 309.68H468.282C467.841 309.68 467.479 310.04 467.479 310.482C467.479 310.921 467.841 311.281 468.282 311.281H489.139C489.581 311.281 489.939 310.921 489.939 310.482C489.939 310.04 489.581 309.68 489.139 309.68Z" fill="#0F1159"/>
<path fill-rule="evenodd" clip-rule="evenodd" d="M489.139 286.488H468.282C467.841 286.488 467.479 286.85 467.479 287.29C467.479 287.73 467.841 288.09 468.282 288.09H489.139C489.581 288.09 489.939 287.73 489.939 287.29C489.939 286.85 489.581 286.488 489.139 286.488Z" fill="#0F1159"/>
<path fill-rule="evenodd" clip-rule="evenodd" d="M442.659 290.025H440.414C439.973 290.025 439.613 290.385 439.613 290.826C439.613 291.267 439.973 291.625 440.414 291.625H442.659C443.099 291.625 443.461 291.267 443.461 290.826C443.461 290.385 443.099 290.025 442.659 290.025Z" fill="#0F1159"/>
<path fill-rule="evenodd" clip-rule="evenodd" d="M419.652 297.754H428.346C428.788 297.754 429.149 298.115 429.149 298.557C429.149 298.997 428.788 299.357 428.346 299.357H419.652C419.21 299.357 418.85 298.997 418.85 298.557C418.85 298.115 419.21 297.754 419.652 297.754Z" fill="#0F1159"/>
<path fill-rule="evenodd" clip-rule="evenodd" d="M454.936 305.486H446.242C445.8 305.486 445.441 305.846 445.441 306.287C445.441 306.727 445.8 307.087 446.242 307.087H454.936C455.378 307.087 455.738 306.727 455.738 306.287C455.738 305.846 455.378 305.486 454.936 305.486Z" fill="#0F1159"/>
<path fill-rule="evenodd" clip-rule="evenodd" d="M454.936 309.68H419.652C419.21 309.68 418.852 310.04 418.852 310.482C418.852 310.921 419.21 311.281 419.652 311.281H454.936C455.376 311.281 455.738 310.921 455.738 310.482C455.738 310.04 455.376 309.68 454.936 309.68Z" fill="#0F1159"/>
<path fill-rule="evenodd" clip-rule="evenodd" d="M419.653 290.025H435.984C436.424 290.025 436.785 290.385 436.785 290.826C436.785 291.267 436.424 291.625 435.984 291.625H419.653C419.212 291.625 418.85 291.267 418.85 290.826C418.85 290.385 419.212 290.025 419.653 290.025Z" fill="#D7766E"/>
<path fill-rule="evenodd" clip-rule="evenodd" d="M454.936 290.025H446.242C445.8 290.025 445.441 290.385 445.441 290.826C445.441 291.267 445.8 291.625 446.242 291.625H454.936C455.378 291.625 455.738 291.267 455.738 290.826C455.738 290.385 455.378 290.025 454.936 290.025Z" fill="#D7766E"/>
<path fill-rule="evenodd" clip-rule="evenodd" d="M454.936 294.219H419.652C419.21 294.219 418.852 294.579 418.852 295.02C418.852 295.461 419.21 295.82 419.652 295.82H454.936C455.376 295.82 455.738 295.461 455.738 295.02C455.738 294.579 455.376 294.219 454.936 294.219Z" fill="#D7766E"/>
<path fill-rule="evenodd" clip-rule="evenodd" d="M454.936 297.754H438.605C438.164 297.754 437.804 298.115 437.804 298.557C437.804 298.997 438.164 299.357 438.605 299.357H454.936C455.376 299.357 455.738 298.997 455.738 298.557C455.738 298.115 455.376 297.754 454.936 297.754Z" fill="#D7766E"/>
<path fill-rule="evenodd" clip-rule="evenodd" d="M431.929 297.754H434.174C434.614 297.754 434.976 298.115 434.976 298.557C434.976 298.997 434.614 299.357 434.174 299.357H431.929C431.488 299.357 431.128 298.997 431.128 298.557C431.128 298.115 431.488 297.754 431.929 297.754Z" fill="#D7766E"/>
<path fill-rule="evenodd" clip-rule="evenodd" d="M454.936 301.949H419.652C419.21 301.949 418.852 302.309 418.852 302.751C418.852 303.191 419.21 303.551 419.652 303.551H454.936C455.376 303.551 455.738 303.191 455.738 302.751C455.738 302.309 455.376 301.949 454.936 301.949Z" fill="#D7766E"/>
<path fill-rule="evenodd" clip-rule="evenodd" d="M419.653 305.486H435.984C436.424 305.486 436.785 305.846 436.785 306.287C436.785 306.727 436.424 307.087 435.984 307.087H419.653C419.212 307.087 418.85 306.727 418.85 306.287C418.85 305.846 419.212 305.486 419.653 305.486Z" fill="#D7766E"/>
<path fill-rule="evenodd" clip-rule="evenodd" d="M442.659 305.486H440.414C439.973 305.486 439.613 305.846 439.613 306.287C439.613 306.727 439.973 307.087 440.414 307.087H442.659C443.099 307.087 443.461 306.727 443.461 306.287C443.461 305.846 443.099 305.486 442.659 305.486Z" fill="#D7766E"/>
<path fill-rule="evenodd" clip-rule="evenodd" d="M454.936 286.488H419.652C419.21 286.488 418.852 286.85 418.852 287.29C418.852 287.73 419.21 288.09 419.652 288.09H454.936C455.376 288.09 455.738 287.73 455.738 287.29C455.738 286.85 455.376 286.488 454.936 286.488Z" fill="#D7766E"/>
<path fill-rule="evenodd" clip-rule="evenodd" d="M433.064 275.199C432.042 275.199 431.212 276.03 431.212 277.054C431.212 278.077 432.042 278.905 433.064 278.905C434.088 278.905 434.916 278.077 434.916 277.054C434.916 276.03 434.088 275.199 433.064 275.199Z" fill="white"/>
<path fill-rule="evenodd" clip-rule="evenodd" d="M426.385 275.199C425.362 275.199 424.533 276.03 424.533 277.054C424.533 278.077 425.362 278.905 426.385 278.905C427.409 278.905 428.238 278.077 428.238 277.054C428.238 276.03 427.409 275.199 426.385 275.199Z" fill="white"/>
<path fill-rule="evenodd" clip-rule="evenodd" d="M419.706 275.199C418.682 275.199 417.854 276.03 417.854 277.054C417.854 278.077 418.682 278.905 419.706 278.905C420.729 278.905 421.558 278.077 421.558 277.054C421.558 276.03 420.729 275.199 419.706 275.199Z" fill="white"/>
<path fill-rule="evenodd" clip-rule="evenodd" d="M418.018 566.671H456.15C457.994 566.671 459.503 565.164 459.503 563.319V497.76C459.503 495.919 457.994 494.409 456.15 494.409H418.018C416.174 494.409 414.666 495.919 414.666 497.76V563.319C414.666 565.164 416.174 566.671 418.018 566.671Z" fill="#E1DFE5"/>
<path fill-rule="evenodd" clip-rule="evenodd" d="M456.992 566.671H487.837C489.388 566.671 490.658 565.404 490.658 563.853V497.229C490.658 495.677 489.388 494.409 487.837 494.409H456.992C455.438 494.409 454.169 495.677 454.169 497.229V563.853C454.169 565.404 455.438 566.671 456.992 566.671Z" fill="white"/>
<path fill-rule="evenodd" clip-rule="evenodd" d="M407.035 521.853H446.539C446.539 514.774 454.17 513.992 454.17 513.992H414.666C414.666 513.992 407.035 514.774 407.035 521.853Z" fill="white"/>
<path fill-rule="evenodd" clip-rule="evenodd" d="M414.665 555.043H455.548C456.761 555.043 457.756 556.036 457.756 557.248V571.591C457.756 572.806 456.761 573.798 455.548 573.798H414.665C413.452 573.798 412.459 572.806 412.459 571.591V557.248C412.459 556.036 413.452 555.043 414.665 555.043Z" fill="#B62351"/>
<path fill-rule="evenodd" clip-rule="evenodd" d="M454.261 555.042H463.224H463.226H463.23H463.241C463.442 555.043 465.63 555.127 466.857 557.799C468.145 560.606 468.006 563.408 471.821 563.408H473.465C477.278 563.408 477.173 560.54 478.429 557.799C479.686 555.063 481.844 555.043 482.044 555.042H482.053H482.058H482.061H490.565C491.778 555.042 492.77 556.036 492.77 557.248V571.591C492.77 572.806 491.777 573.798 490.565 573.798H454.261C453.046 573.798 452.056 572.806 452.056 571.591V557.248C452.056 556.036 453.046 555.042 454.261 555.042Z" fill="#CE4E73"/>
<path fill-rule="evenodd" clip-rule="evenodd" d="M407.035 546.609H446.539C446.539 539.529 454.17 538.748 454.17 538.748H414.666C414.666 538.748 407.035 539.529 407.035 546.609Z" fill="white"/>
<path fill-rule="evenodd" clip-rule="evenodd" d="M497.079 534.807H461.153C461.153 527.726 454.169 526.947 454.169 526.947H490.097C490.097 526.947 497.079 527.726 497.079 534.807Z" fill="#AAA8B8"/>
<path fill-rule="evenodd" clip-rule="evenodd" d="M459.887 502.26H487.423C488.091 502.26 488.639 502.806 488.639 503.472C488.639 504.14 488.091 504.686 487.423 504.686H459.887C459.219 504.686 458.673 504.14 458.673 503.472C458.673 502.806 459.219 502.26 459.887 502.26Z" fill="#E1DFE5"/>
<path fill-rule="evenodd" clip-rule="evenodd" d="M459.887 515.637H487.423C488.091 515.637 488.639 516.182 488.639 516.85C488.639 517.518 488.091 518.063 487.423 518.063H459.887C459.219 518.063 458.673 517.518 458.673 516.85C458.673 516.181 459.219 515.637 459.887 515.637Z" fill="#E1DFE5"/>
<path fill-rule="evenodd" clip-rule="evenodd" d="M459.887 543.568H487.423C488.091 543.568 488.639 544.113 488.639 544.781C488.639 545.449 488.091 545.994 487.423 545.994H459.887C459.219 545.994 458.673 545.449 458.673 544.781C458.673 544.113 459.219 543.568 459.887 543.568Z" fill="#E1DFE5"/>
<path fill-rule="evenodd" clip-rule="evenodd" d="M420.504 501.276H447.104C447.772 501.276 448.317 501.821 448.317 502.489C448.317 503.156 447.772 503.703 447.104 503.703H420.504C419.836 503.703 419.289 503.156 419.289 502.489C419.289 501.821 419.836 501.276 420.504 501.276Z" fill="#AAA8B8"/>
<path fill-rule="evenodd" clip-rule="evenodd" d="M420.504 531.405H447.104C447.772 531.405 448.317 531.95 448.317 532.618C448.317 533.285 447.772 533.832 447.104 533.832H420.504C419.836 533.832 419.289 533.285 419.289 532.618C419.289 531.95 419.836 531.405 420.504 531.405Z" fill="#AAA8B8"/>
<path fill-rule="evenodd" clip-rule="evenodd" d="M420.504 550.681H447.104C447.772 550.681 448.317 551.228 448.317 551.896C448.317 552.564 447.772 553.11 447.104 553.11H420.504C419.836 553.11 419.289 552.564 419.289 551.896C419.289 551.228 419.836 550.681 420.504 550.681Z" fill="#AAA8B8"/>
<path fill-rule="evenodd" clip-rule="evenodd" d="M223.125 358.486C202.952 337.943 187.943 364.038 190.037 390.232C192.025 415.064 213.432 500.272 209.463 536.12H217.66C237.709 490.152 248.953 384.786 223.125 358.486Z" fill="#58A991"/>
<path fill-rule="evenodd" clip-rule="evenodd" d="M214.644 536.12C234.161 463.668 209.455 363.518 209.372 363.177C209.222 362.556 208.594 362.174 207.972 362.324C207.35 362.474 206.968 363.101 207.119 363.724C207.2 364.064 231.939 464.328 212.274 536.12H214.644Z" fill="#3E7E80"/>
<path fill-rule="evenodd" clip-rule="evenodd" d="M173.353 403.757C152.093 392.494 146.732 417.07 155.02 437.402C161.89 454.253 192.234 504.097 203.708 536.119H214.514C215.433 491.863 198.449 417.054 173.353 403.757Z" fill="#3E7E80"/>
<path fill-rule="evenodd" clip-rule="evenodd" d="M210.566 536.12C203.534 476.265 163.727 411.204 163.584 410.969C163.307 410.512 162.711 410.366 162.254 410.644C161.796 410.92 161.651 411.516 161.928 411.972C162.07 412.208 201.622 476.848 208.646 536.12H210.566Z" fill="#58A991"/>
<path fill-rule="evenodd" clip-rule="evenodd" d="M263.208 432.164C283.815 423.164 287.08 446.444 277.926 464.808C271.734 477.236 249.41 509.055 234.379 536.12H217.223C223.09 495.172 241.91 441.469 263.208 432.164Z" fill="#80C0B4"/>
<path fill-rule="evenodd" clip-rule="evenodd" d="M223.349 536.12C237.978 486.513 271.67 439.761 271.805 439.573C272.097 439.168 272.662 439.072 273.068 439.365C273.474 439.653 273.569 440.22 273.278 440.625C273.145 440.813 239.808 487.076 225.213 536.12H223.349Z" fill="#58A991"/>
<path fill-rule="evenodd" clip-rule="evenodd" d="M190.822 519.741H251.194C253 519.741 254.477 521.217 254.477 523.025V537.93C254.477 539.737 253 541.213 251.194 541.213H190.822C189.014 541.213 187.538 539.737 187.538 537.93V523.025C187.538 521.217 189.014 519.741 190.822 519.741Z" fill="#B62351"/>
<path fill-rule="evenodd" clip-rule="evenodd" d="M201.177 531.866H240.838L251.193 541.214L242.734 573.798H221.006H199.28L190.822 541.214L201.177 531.866Z" fill="#B62351"/>
<path fill-rule="evenodd" clip-rule="evenodd" d="M251.193 541.214L249.454 547.91L195.419 558.922L190.822 541.214H251.193Z" fill="#17152D"/>
<path d="M557.474 143.332H586.027C590.05 143.332 593.31 140.071 593.31 136.048C593.31 132.212 590.346 129.069 586.583 128.787C586.611 128.433 586.623 128.081 586.623 127.724C586.623 119.719 580.134 113.232 572.13 113.232C570.026 113.232 568.026 113.681 566.223 114.487C564.471 102.263 553.959 92.868 541.25 92.868C530.691 92.868 521.651 99.352 517.886 108.553C516.515 108.211 515.081 108.028 513.601 108.028C503.851 108.028 495.951 115.932 495.951 125.68C495.951 135.428 503.851 143.332 513.601 143.332H529.027" stroke="#BFDCF4" stroke-width="1.88933" stroke-miterlimit="22.926" stroke-linecap="round" stroke-linejoin="round"/>
<path d="M528.612 139.745V125.206H524.924H523.708L536.871 109.452L550.039 125.206H548.82H545.131V125.332C545.131 142.534 544.635 143.332 557.473 143.332H570.917C570.917 143.332 569.295 149.104 562.431 149.104H537.223C533.853 149.104 530.232 147.933 529.028 143.332C528.761 142.312 528.612 141.125 528.612 139.745Z" stroke="#BFDCF4" stroke-width="1.88933" stroke-miterlimit="22.926" stroke-linecap="round" stroke-linejoin="round"/>
<path fill-rule="evenodd" clip-rule="evenodd" d="M727.754 233.349C726.166 233.806 724.661 234.452 723.262 235.261C721.827 236.09 720.502 237.09 719.318 238.232C719.087 238.454 718.741 238.488 718.479 238.334L713.154 235.258L713.123 235.241C712.818 235.077 712.47 235.045 712.15 235.13C711.826 235.218 711.533 235.43 711.347 235.744L711.329 235.78L707.579 242.269C707.397 242.584 707.365 242.944 707.45 243.273C707.539 243.6 707.749 243.896 708.065 244.076L708.099 244.098L713.385 247.149C713.661 247.308 713.787 247.629 713.717 247.925V247.926C713.522 248.71 713.37 249.52 713.273 250.346C713.173 251.154 713.123 251.977 713.123 252.817C713.123 253.656 713.173 254.478 713.273 255.285C713.37 256.114 713.522 256.922 713.717 257.708C713.798 258.036 713.634 258.365 713.343 258.506L708.061 261.556L708.065 261.557C707.749 261.737 707.539 262.033 707.45 262.36C707.365 262.688 707.397 263.049 707.579 263.364L711.347 269.89V269.889C711.53 270.204 711.826 270.414 712.15 270.501C712.479 270.59 712.838 270.553 713.15 270.374L713.19 270.353L718.483 267.298C718.759 267.14 719.098 267.19 719.318 267.401C720.502 268.544 721.827 269.544 723.262 270.372C724.666 271.185 726.182 271.833 727.783 272.293C728.093 272.381 728.294 272.664 728.294 272.972V279.114C728.294 279.477 728.446 279.806 728.682 280.044C728.922 280.285 729.251 280.433 729.614 280.433H737.153C737.514 280.433 737.842 280.285 738.082 280.044C738.322 279.806 738.47 279.477 738.47 279.114V272.972C738.47 272.638 738.701 272.358 739.013 272.284C740.602 271.825 742.109 271.18 743.505 270.372C744.941 269.544 746.262 268.544 747.447 267.4C747.69 267.168 748.053 267.144 748.322 267.321L753.614 270.376C753.927 270.553 754.285 270.59 754.614 270.501C754.943 270.414 755.235 270.204 755.415 269.889L755.439 269.853L759.189 263.361L759.186 263.36C759.366 263.046 759.402 262.686 759.314 262.36C759.226 262.032 759.014 261.737 758.706 261.557L753.383 258.484C753.105 258.324 752.979 258.005 753.051 257.708H753.049C753.245 256.922 753.393 256.114 753.495 255.285C753.591 254.48 753.643 253.656 753.643 252.817C753.643 251.977 753.591 251.153 753.495 250.346C753.393 249.52 753.245 248.71 753.049 247.926C752.969 247.6 753.13 247.268 753.423 247.126L758.706 244.076C759.014 243.896 759.226 243.601 759.314 243.273C759.402 242.946 759.366 242.586 759.186 242.273L759.166 242.233L755.415 235.744C755.235 235.43 754.943 235.218 754.614 235.13C754.285 235.044 753.927 235.078 753.614 235.258L748.287 238.334C748.002 238.5 747.65 238.442 747.43 238.218C746.251 237.082 744.934 236.086 743.505 235.261C742.099 234.448 740.582 233.8 738.985 233.34C738.674 233.252 738.47 232.97 738.47 232.662V226.518C738.47 226.156 738.322 225.826 738.082 225.588C737.842 225.349 737.514 225.201 737.153 225.201H729.614C729.251 225.201 728.922 225.349 728.682 225.588C728.446 225.826 728.294 226.156 728.294 226.518V232.662C728.294 232.996 728.062 233.276 727.754 233.349ZM725.278 244.71C727.353 242.636 730.218 241.353 733.382 241.353C736.55 241.353 739.414 242.636 741.49 244.71C743.561 246.785 744.845 249.652 744.845 252.817C744.845 255.982 743.561 258.848 741.49 260.924C739.414 262.996 736.55 264.28 733.382 264.28C730.218 264.28 727.353 262.996 725.278 260.924C723.202 258.848 721.919 255.982 721.919 252.817C721.919 249.652 723.202 246.785 725.278 244.71Z" fill="#BFDCF4"/>
<path fill-rule="evenodd" clip-rule="evenodd" d="M179.603 266.711V274.832C179.603 276.316 178.389 277.536 176.901 277.536H168.781C167.295 277.536 166.077 276.316 166.077 274.832V266.711C166.077 265.224 167.295 264.01 168.781 264.01H176.901C178.389 264.01 179.603 265.224 179.603 266.711Z" fill="#BFDCF4"/>
<path fill-rule="evenodd" clip-rule="evenodd" d="M179.603 294.443V302.561C179.603 304.047 178.389 305.265 176.901 305.265H168.781C167.295 305.265 166.077 304.047 166.077 302.561V294.443C166.077 292.953 167.295 291.739 168.781 291.739H176.901C178.389 291.739 179.603 292.953 179.603 294.443Z" fill="#BFDCF4"/>
<path fill-rule="evenodd" clip-rule="evenodd" d="M179.603 322.172V330.291C179.603 331.779 178.389 332.995 176.901 332.995H168.781C167.295 332.995 166.077 331.779 166.077 330.291V322.172C166.077 320.684 167.295 319.468 168.781 319.468H176.901C178.389 319.468 179.603 320.684 179.603 322.172Z" fill="#BFDCF4"/>
<path fill-rule="evenodd" clip-rule="evenodd" d="M179.603 349.902V358.024C179.603 359.508 178.389 360.724 176.901 360.724H168.781C167.295 360.724 166.077 359.508 166.077 358.024V349.902C166.077 348.417 167.295 347.2 168.781 347.2H176.901C178.389 347.2 179.603 348.417 179.603 349.902Z" fill="#BFDCF4"/>
<path fill-rule="evenodd" clip-rule="evenodd" d="M544.973 177.25H539.749C538.793 177.25 538.009 176.469 538.009 175.51V170.287C538.009 169.333 538.793 168.549 539.749 168.549H544.973C545.93 168.549 546.713 169.333 546.713 170.287V175.51C546.713 176.469 545.93 177.25 544.973 177.25Z" fill="#BFDCF4"/>
<path fill-rule="evenodd" clip-rule="evenodd" d="M527.133 177.25H521.909C520.951 177.25 520.169 176.469 520.169 175.51V170.287C520.169 169.333 520.951 168.549 521.909 168.549H527.133C528.09 168.549 528.873 169.333 528.873 170.287V175.51C528.873 176.469 528.09 177.25 527.133 177.25Z" fill="#BFDCF4"/>
<path fill-rule="evenodd" clip-rule="evenodd" d="M509.292 177.25H504.069C503.112 177.25 502.329 176.469 502.329 175.51V170.287C502.329 169.333 503.112 168.549 504.069 168.549H509.292C510.249 168.549 511.033 169.333 511.033 170.287V175.51C511.033 176.469 510.249 177.25 509.292 177.25Z" fill="#BFDCF4"/>
<path fill-rule="evenodd" clip-rule="evenodd" d="M491.452 177.25H486.228C485.271 177.25 484.488 176.469 484.488 175.51V170.287C484.488 169.333 485.271 168.549 486.228 168.549H491.452C492.409 168.549 493.192 169.333 493.192 170.287V175.51C493.192 176.469 492.409 177.25 491.452 177.25Z" fill="#BFDCF4"/>
<path fill-rule="evenodd" clip-rule="evenodd" d="M361.541 525.981C361.562 526.637 361.046 527.186 360.389 527.209C359.734 527.229 359.184 526.711 359.164 526.057C359.162 526.01 358.492 509.566 365.886 506.397C366.49 506.141 367.19 506.423 367.446 507.027C367.705 507.633 367.424 508.331 366.818 508.59C360.952 511.105 361.54 525.938 361.541 525.981Z" fill="#58A991"/>
<path fill-rule="evenodd" clip-rule="evenodd" d="M360.305 573.798H369.55C388.879 573.798 391.491 551.622 389.647 536.683C387.595 520.057 374.435 516.963 360.305 523.359C346.174 516.963 333.014 520.057 330.962 536.683C329.118 551.622 331.73 573.798 351.059 573.798H360.305Z" fill="#B62351"/>
<path fill-rule="evenodd" clip-rule="evenodd" d="M347.772 523.926C353.458 524.983 356.986 531.655 355.652 538.827C354.318 545.998 348.628 550.955 342.94 549.898C337.254 548.84 333.726 542.168 335.061 534.996C336.396 527.823 342.086 522.866 347.772 523.926Z" fill="#CE4E73"/>
<path fill-rule="evenodd" clip-rule="evenodd" d="M579.659 469.151C579.659 469.151 563.988 479.798 560.863 479.798H537.442C529.35 479.798 512.122 481.583 507.01 475.479C500.196 467.346 499.787 454.694 514.614 452.564C527.222 450.748 557.94 453.944 558.564 456.495C559.156 458.904 579.659 469.151 579.659 469.151Z" fill="#3330D9"/>
<path d="M550.068 458.503L545.128 469.877" stroke="white" stroke-width="0.945333" stroke-miterlimit="2.613" stroke-linecap="round" stroke-linejoin="round"/>
<path d="M543.497 458.503L538.555 469.877" stroke="white" stroke-width="0.945333" stroke-miterlimit="2.613" stroke-linecap="round" stroke-linejoin="round"/>
<path d="M536.927 458.503L531.984 469.877" stroke="white" stroke-width="0.945333" stroke-miterlimit="2.613" stroke-linecap="round" stroke-linejoin="round"/>
<path d="M530.356 458.503L525.414 469.877" stroke="white" stroke-width="0.945333" stroke-miterlimit="2.613" stroke-linecap="round" stroke-linejoin="round"/>
<path d="M550.068 469.878L545.128 458.503" stroke="white" stroke-width="0.945333" stroke-miterlimit="2.613" stroke-linecap="round" stroke-linejoin="round"/>
<path d="M543.497 469.878L538.555 458.503" stroke="white" stroke-width="0.945333" stroke-miterlimit="2.613" stroke-linecap="round" stroke-linejoin="round"/>
<path d="M536.927 469.878L531.984 458.503" stroke="white" stroke-width="0.945333" stroke-miterlimit="2.613" stroke-linecap="round" stroke-linejoin="round"/>
<path d="M530.356 469.878L525.414 458.503" stroke="white" stroke-width="0.945333" stroke-miterlimit="2.613" stroke-linecap="round" stroke-linejoin="round"/>
<path fill-rule="evenodd" clip-rule="evenodd" d="M623.107 287.659C623.107 287.659 619.433 283.783 630.273 290.063C638.016 294.551 664.407 337.443 675.516 356.276C692.092 384.379 659.732 399.249 632.544 414.307C632.544 414.307 626.415 411.811 625.715 410.603C625.017 409.397 627.82 406.447 625.851 405.672C623.879 404.897 624.569 403.388 625.909 401.607C627.248 399.829 652.917 379.532 654.396 373.728C655.872 367.92 622.879 329.281 619.559 323.724C616.232 318.165 612.039 299.241 623.107 287.659Z" fill="#CE4E73"/>
<path fill-rule="evenodd" clip-rule="evenodd" d="M546.176 287.272C546.176 287.272 549.85 283.396 539.01 289.677C531.268 294.164 504.877 337.059 493.769 355.888C477.189 383.995 509.553 398.861 536.741 413.919C536.741 413.919 542.868 411.424 543.568 410.219C544.266 409.013 541.465 406.063 543.434 405.287C545.405 404.511 544.716 403 543.373 401.22C542.036 399.443 516.368 379.145 514.886 373.341C513.41 367.535 546.404 328.896 549.728 323.337C553.05 317.777 557.245 298.856 546.176 287.272Z" fill="#CE4E73"/>
<path fill-rule="evenodd" clip-rule="evenodd" d="M597.895 273.948C582.073 276.457 586.525 276.409 570.589 273.961L568.752 274.86L542.307 287.773L545.072 334.692C545.243 337.335 545.417 339.877 545.589 342.328L545.693 347.293C545.693 347.293 543.859 386.221 544.292 387.893C544.725 389.564 548.233 393.551 548.233 393.551C548.095 394.607 547.943 395.735 547.783 396.912C554.1 399.559 565.845 402.965 584.231 402.807C602.616 402.965 614.361 399.559 620.679 396.912C620.516 395.735 620.367 394.607 620.229 393.551C620.229 393.551 623.736 389.564 624.169 387.893C624.603 386.221 622.767 347.293 622.767 347.293L622.872 342.328C623.043 339.877 623.215 337.335 623.388 334.692L626.155 287.773L599.708 274.86L597.895 273.948Z" fill="#CE4E73"/>
<path fill-rule="evenodd" clip-rule="evenodd" d="M583.801 275.807L584.397 275.891L585.038 275.799C587.678 275.705 590.675 275.093 597.894 273.947L599.709 274.859L603.378 276.651L602.206 277.923C590.113 291.041 578.358 291.041 566.265 277.923L565.09 276.647L568.751 274.859L570.589 273.961C578.109 275.115 581.089 275.735 583.801 275.807Z" fill="white"/>
<path fill-rule="evenodd" clip-rule="evenodd" d="M595.28 244.254L594.956 251.837V269.731C594.956 270.871 596.021 272.517 597.895 273.949C588.151 284.517 580.321 284.517 570.576 273.949C572.452 272.517 573.515 270.871 573.515 269.731V251.837L573.192 244.254C573.192 244.254 578.628 245.23 584.235 246.603C589.844 245.23 595.28 244.254 595.28 244.254Z" fill="#D7766E"/>
<path fill-rule="evenodd" clip-rule="evenodd" d="M690.335 426.191C691.787 424.157 701.116 407.685 701.116 407.685H676.084C668.961 407.685 647.153 412.525 635.957 412.67C624.763 412.818 535.057 408.454 535.057 408.454C535.057 408.454 493.64 400.459 487.873 399.75C482.108 399.038 492.604 427.937 494.639 430.263C496.675 432.589 588.852 461.667 596.703 459.05C604.552 456.434 690.335 426.191 690.335 426.191Z" fill="#0F1159"/>
<path fill-rule="evenodd" clip-rule="evenodd" d="M586.637 448.538C586.637 448.538 675.614 413.354 686.663 410.156C697.714 406.955 705.855 406.231 711.235 411.755C716.614 417.28 719.085 428.911 711.235 437.055C703.385 445.196 649.009 459.879 626.619 463.076C604.229 466.276 595.433 468.167 592.089 468.602C588.745 469.039 586.709 468.456 585.765 465.55C584.817 462.642 583.365 453.918 583.438 451.955C583.511 449.992 586.637 448.538 586.637 448.538Z" fill="#0F1159"/>
<path fill-rule="evenodd" clip-rule="evenodd" d="M613.608 475.066C613.608 475.066 612.951 479.798 616.079 479.798H639.5C647.591 479.798 664.82 481.584 669.931 475.48C676.743 467.345 677.153 454.694 662.325 452.564C649.719 450.749 618.999 453.944 618.375 456.494C617.784 458.905 613.608 475.066 613.608 475.066Z" fill="#3330D9"/>
<path fill-rule="evenodd" clip-rule="evenodd" d="M657.745 337.391H611.934H556.525H510.717C508.485 337.391 507.002 339.216 507.421 341.448L522.048 419.403C522.465 421.636 524.633 423.461 526.866 423.461H540.378H628.084H641.596C643.826 423.461 645.994 421.636 646.413 419.403L661.041 341.448C661.457 339.216 659.976 337.391 657.745 337.391Z" fill="#A5A7A9"/>
<path fill-rule="evenodd" clip-rule="evenodd" d="M606.701 453.555C606.701 453.555 612.661 456.099 619.641 456.609C626.618 457.116 623.93 464.168 623.783 467.513C623.635 470.856 619.785 475.727 618.113 475.872C616.441 476.017 603.645 472.528 603.645 472.528L606.701 453.555Z" fill="#E5AC9A"/>
<path fill-rule="evenodd" clip-rule="evenodd" d="M607.426 451.81C607.426 451.81 514.378 408.485 498.383 402.67C482.39 396.854 464.654 396.273 458.839 413.135C453.02 430.003 462.036 441.634 490.24 452.973C518.447 464.315 597.975 475.654 601.03 475.221C604.082 474.782 604.664 473.983 606.19 469.621C607.716 465.261 609.39 457.19 609.535 455.954C609.68 454.719 608.734 452.102 607.426 451.81Z" fill="#0F1159"/>
<path d="M624.514 329.353C624.514 329.353 623.337 306.188 627.597 296.96" stroke="#943658" stroke-width="0.756" stroke-miterlimit="2.613" stroke-linecap="round" stroke-linejoin="round"/>
<path d="M544.566 329.353C544.566 329.353 545.744 306.188 541.485 296.96" stroke="#943658" stroke-width="0.756" stroke-miterlimit="2.613" stroke-linecap="round" stroke-linejoin="round"/>
<path d="M609.535 455.954C609.681 454.718 608.734 452.101 607.426 451.81C607.426 451.81 534.358 417.788 506.591 405.993" stroke="#434B9A" stroke-width="0.756" stroke-miterlimit="2.613" stroke-linecap="round" stroke-linejoin="round"/>
<path d="M594.126 445.585C615.793 437.047 677.578 412.786 686.662 410.157" stroke="#434B9A" stroke-width="0.756" stroke-miterlimit="2.613" stroke-linecap="round" stroke-linejoin="round"/>
<path fill-rule="evenodd" clip-rule="evenodd" d="M612.251 232.533C612.443 232.558 612.631 232.59 612.818 232.629L612.826 232.631H612.823C616.263 233.351 618.877 236.369 618.947 240.035C619.029 244.293 615.639 247.814 611.382 247.894C607.121 247.974 603.602 244.587 603.519 240.327C603.474 237.851 604.597 235.626 606.385 234.181C606.186 236.458 606.549 239.278 609.457 239.561L609.371 235.113C609.338 233.311 611.015 232.483 612.251 232.533Z" fill="#CB6A98"/>
<path fill-rule="evenodd" clip-rule="evenodd" d="M556.574 232.533C556.381 232.558 556.193 232.59 556.008 232.629L556.001 232.631C552.561 233.351 549.948 236.369 549.877 240.035C549.797 244.293 553.186 247.814 557.444 247.894C561.705 247.974 565.224 244.587 565.305 240.327C565.352 237.851 564.228 235.626 562.441 234.181C562.64 236.458 562.276 239.278 559.369 239.561L559.452 235.113C559.489 233.311 557.806 232.483 556.574 232.533Z" fill="#CB6A98"/>
<path fill-rule="evenodd" clip-rule="evenodd" d="M584.412 193.996C598.938 193.996 610.826 205.883 610.826 220.411V244.432C610.826 258.96 598.938 270.845 584.412 270.845C569.886 270.845 558 258.96 558 244.432V220.411C558 205.883 569.886 193.996 584.412 193.996Z" fill="#E2B8C7"/>
<path fill-rule="evenodd" clip-rule="evenodd" d="M569.409 247.021C571.325 246.986 572.91 248.51 572.946 250.429C572.983 252.345 571.459 253.931 569.541 253.967C567.623 254.002 566.038 252.478 566.002 250.559C565.966 248.642 567.493 247.057 569.409 247.021Z" fill="#CB6A98"/>
<path fill-rule="evenodd" clip-rule="evenodd" d="M599.283 246.453C601.201 246.418 602.787 247.942 602.824 249.86C602.859 251.777 601.335 253.362 599.417 253.398C597.497 253.436 595.915 251.912 595.877 249.992C595.839 248.076 597.365 246.489 599.283 246.453Z" fill="#CB6A98"/>
<path fill-rule="evenodd" clip-rule="evenodd" d="M601.271 231.769C601.734 232 602.296 231.812 602.53 231.352C602.759 230.888 602.572 230.324 602.112 230.095C599.626 228.813 596.303 228.663 593.862 230.128C593.422 230.392 593.278 230.969 593.54 231.411C593.806 231.856 594.387 232.001 594.827 231.736C596.802 230.552 599.274 230.815 601.271 231.769Z" fill="#271D4C"/>
<path fill-rule="evenodd" clip-rule="evenodd" d="M567.549 231.772C569.552 230.815 572.021 230.552 573.996 231.736C574.439 232.001 575.02 231.856 575.283 231.411C575.549 230.969 575.403 230.392 574.96 230.128C572.521 228.663 569.199 228.813 566.713 230.092C566.252 230.324 566.065 230.888 566.296 231.352C566.525 231.812 567.092 232 567.549 231.772Z" fill="#271D4C"/>
<path fill-rule="evenodd" clip-rule="evenodd" d="M568.832 241.035C568.832 240.385 569.088 239.765 569.549 239.305C570.008 238.845 570.628 238.59 571.276 238.59C571.927 238.59 572.545 238.845 573.004 239.305C573.464 239.765 573.721 240.383 573.721 241.035C573.721 241.554 574.141 241.974 574.661 241.974C575.181 241.974 575.601 241.554 575.601 241.035C575.601 239.885 575.147 238.787 574.335 237.977C573.523 237.163 572.427 236.709 571.276 236.709C570.129 236.709 569.031 237.163 568.217 237.977C567.404 238.787 566.951 239.885 566.951 241.035C566.951 241.554 567.372 241.974 567.892 241.974C568.412 241.974 568.832 241.554 568.832 241.035Z" fill="#271D4C"/>
<path fill-rule="evenodd" clip-rule="evenodd" d="M595.103 241.035C595.103 240.385 595.359 239.765 595.82 239.305C596.277 238.845 596.899 238.59 597.549 238.59C598.196 238.59 598.815 238.845 599.277 239.305C599.737 239.765 599.993 240.383 599.993 241.035C599.993 241.554 600.415 241.974 600.932 241.974C601.452 241.974 601.872 241.554 601.872 241.035C601.872 239.885 601.417 238.787 600.605 237.977C599.793 237.163 598.697 236.709 597.549 236.709C596.399 236.709 595.303 237.163 594.489 237.977C593.675 238.787 593.223 239.885 593.223 241.035C593.223 241.554 593.645 241.974 594.163 241.974C594.683 241.974 595.103 241.554 595.103 241.035Z" fill="#271D4C"/>
<path fill-rule="evenodd" clip-rule="evenodd" d="M610.826 239.995C610.826 239.995 606.878 238.388 606.878 231.632V223.013C606.878 219.488 604.428 213.32 597.28 213.32H584.411H571.539C564.392 213.32 561.946 219.488 561.946 223.013V231.632C561.946 238.388 557.996 239.995 557.996 239.995C557.996 234.637 556.362 232.531 556.362 232.531V219.095C556.362 212.829 558.127 204.408 566.351 198.632C574.576 192.855 584.411 192.953 584.411 192.953C584.411 192.953 594.244 192.855 602.47 198.632C610.696 204.408 612.459 212.829 612.459 219.095V232.531C612.459 232.531 610.826 234.637 610.826 239.995Z" fill="#271D4C"/>
<path fill-rule="evenodd" clip-rule="evenodd" d="M586.353 243.891C586.353 243.891 587.895 247.041 587.801 247.968C587.705 248.895 585.945 249.029 585.233 248.219C584.521 247.409 585.485 244.199 585.751 243.932C586.019 243.669 586.173 243.679 586.353 243.891Z" fill="#EAD2DD"/>
<path fill-rule="evenodd" clip-rule="evenodd" d="M592.126 256.169C592.485 255.841 592.509 255.284 592.182 254.925C591.856 254.568 591.298 254.543 590.937 254.871C589.677 256.027 587.064 256.604 584.413 256.604C581.762 256.604 579.148 256.027 577.886 254.871C577.528 254.543 576.97 254.568 576.644 254.925C576.316 255.284 576.34 255.841 576.697 256.169C578.302 257.637 581.376 258.371 584.413 258.371C587.449 258.371 590.522 257.637 592.126 256.169Z" fill="#CB6A98"/>
<path fill-rule="evenodd" clip-rule="evenodd" d="M612.251 232.533C612.443 232.558 612.631 232.59 612.818 232.629L612.826 232.631H612.823C616.263 233.351 618.877 236.369 618.947 240.035C619.029 244.293 615.639 247.814 611.382 247.894C607.121 247.974 603.602 244.587 603.519 240.327C603.474 237.851 604.597 235.626 606.385 234.181C606.186 236.458 606.549 239.278 609.457 239.561L609.371 235.113C609.338 233.311 611.015 232.483 612.251 232.533Z" fill="#D7766E"/>
<path fill-rule="evenodd" clip-rule="evenodd" d="M556.574 232.533C556.381 232.558 556.193 232.59 556.008 232.629L556.001 232.631C552.561 233.351 549.948 236.369 549.877 240.035C549.797 244.293 553.186 247.814 557.444 247.894C561.705 247.974 565.224 244.587 565.305 240.327C565.352 237.851 564.228 235.626 562.441 234.181C562.64 236.458 562.276 239.278 559.369 239.561L559.452 235.113C559.489 233.311 557.806 232.483 556.574 232.533Z" fill="#D7766E"/>
<path fill-rule="evenodd" clip-rule="evenodd" d="M584.412 193.996C598.938 193.996 610.826 205.883 610.826 220.411V244.432C610.826 258.96 598.938 270.845 584.412 270.845C569.886 270.845 558 258.96 558 244.432V220.411C558 205.883 569.886 193.996 584.412 193.996Z" fill="#E5AC9A"/>
<path fill-rule="evenodd" clip-rule="evenodd" d="M569.409 248.677C571.325 248.641 572.91 250.166 572.946 252.084C572.983 254.001 571.459 255.588 569.541 255.624C567.623 255.66 566.038 254.134 566.002 252.217C565.966 250.3 567.493 248.714 569.409 248.677Z" fill="#D7766E"/>
<path fill-rule="evenodd" clip-rule="evenodd" d="M599.283 248.109C601.201 248.076 602.787 249.599 602.824 251.516C602.859 253.435 601.335 255.02 599.417 255.056C597.497 255.091 595.915 253.567 595.877 251.648C595.839 249.732 597.365 248.145 599.283 248.109Z" fill="#D7766E"/>
<path fill-rule="evenodd" clip-rule="evenodd" d="M601.271 231.769C601.734 232 602.296 231.812 602.53 231.352C602.759 230.888 602.572 230.324 602.112 230.095C599.626 228.813 596.303 228.663 593.862 230.128C593.422 230.392 593.278 230.969 593.54 231.411C593.806 231.856 594.387 232.001 594.827 231.736C596.802 230.552 599.274 230.815 601.271 231.769Z" fill="#0F1159"/>
<path fill-rule="evenodd" clip-rule="evenodd" d="M567.549 231.772C569.552 230.815 572.021 230.552 573.996 231.736C574.439 232.001 575.02 231.856 575.283 231.411C575.549 230.969 575.403 230.392 574.96 230.128C572.521 228.663 569.199 228.813 566.713 230.092C566.252 230.324 566.065 230.888 566.296 231.352C566.525 231.812 567.092 232 567.549 231.772Z" fill="#0F1159"/>
<path fill-rule="evenodd" clip-rule="evenodd" d="M568.832 244.228C568.832 243.577 569.088 242.959 569.549 242.499C570.008 242.039 570.628 241.784 571.276 241.784C571.927 241.784 572.545 242.039 573.004 242.499C573.464 242.959 573.721 243.577 573.721 244.228C573.721 244.747 574.141 245.169 574.661 245.169C575.181 245.169 575.601 244.747 575.601 244.228C575.601 243.079 575.147 241.983 574.335 241.169C573.523 240.357 572.427 239.903 571.276 239.903C570.129 239.903 569.031 240.356 568.217 241.169C567.404 241.983 566.951 243.079 566.951 244.228C566.951 244.747 567.372 245.169 567.892 245.169C568.412 245.169 568.832 244.747 568.832 244.228Z" fill="#0F1159"/>
<path fill-rule="evenodd" clip-rule="evenodd" d="M595.103 244.228C595.103 243.577 595.359 242.959 595.82 242.499C596.277 242.039 596.899 241.784 597.549 241.784C598.196 241.784 598.815 242.039 599.277 242.499C599.737 242.959 599.993 243.577 599.993 244.228C599.993 244.747 600.415 245.169 600.932 245.169C601.452 245.169 601.872 244.747 601.872 244.228C601.872 243.079 601.417 241.983 600.605 241.169C599.793 240.357 598.697 239.903 597.549 239.903C596.399 239.903 595.303 240.356 594.489 241.169C593.675 241.983 593.223 243.079 593.223 244.228C593.223 244.747 593.645 245.169 594.163 245.169C594.683 245.169 595.103 244.747 595.103 244.228Z" fill="#0F1159"/>
<path fill-rule="evenodd" clip-rule="evenodd" d="M610.826 239.995C610.826 239.995 606.878 238.388 606.878 231.632V223.013C606.878 219.488 604.428 213.32 597.28 213.32H584.411H571.539C564.392 213.32 561.946 219.488 561.946 223.013V231.632C561.946 238.388 557.996 239.995 557.996 239.995C557.996 234.637 556.362 232.531 556.362 232.531V219.095C556.362 212.829 558.127 204.408 566.351 198.632C574.576 192.855 584.411 192.953 584.411 192.953C584.411 192.953 594.244 192.855 602.47 198.632C610.696 204.408 612.459 212.829 612.459 219.095V232.531C612.459 232.531 610.826 234.637 610.826 239.995Z" fill="#0F1159"/>
<path fill-rule="evenodd" clip-rule="evenodd" d="M585.387 245.839C585.387 245.839 586.929 248.989 586.833 249.917C586.736 250.844 584.979 250.977 584.265 250.167C583.555 249.357 584.519 246.147 584.785 245.881C585.052 245.619 585.205 245.628 585.387 245.839Z" fill="#EAD2DD"/>
<path fill-rule="evenodd" clip-rule="evenodd" d="M590.706 253.682C590.998 253.417 591.018 252.961 590.751 252.668C590.484 252.377 590.028 252.358 589.738 252.625C588.71 253.566 586.572 254.04 584.412 254.04C582.25 254.04 580.118 253.566 579.087 252.625C578.795 252.358 578.342 252.377 578.075 252.668C577.806 252.961 577.827 253.417 578.119 253.682C579.428 254.88 581.935 255.48 584.412 255.48C586.89 255.48 589.396 254.88 590.706 253.682Z" fill="#D7766E"/>
<path fill-rule="evenodd" clip-rule="evenodd" d="M586.879 209.934C586.879 209.934 597.358 224.875 609.219 220.642C626.198 214.582 627.015 184.578 599.343 185.81C592.102 186.131 585.428 188.882 584.411 193.996C582.382 204.198 586.879 209.934 586.879 209.934Z" fill="#0F1159"/>
<path fill-rule="evenodd" clip-rule="evenodd" d="M573.887 207.639C573.887 207.639 588.173 204.571 590.896 196.399C594.791 184.703 576.081 177.537 564.233 194.678C561.136 199.166 559.84 203.843 562.625 205.601C568.188 209.106 573.887 207.639 573.887 207.639Z" fill="#0F1159"/>
<path d="M626.871 458.503L631.812 469.877" stroke="white" stroke-width="0.945333" stroke-miterlimit="2.613" stroke-linecap="round" stroke-linejoin="round"/>
<path d="M633.441 458.503L638.385 469.877" stroke="white" stroke-width="0.945333" stroke-miterlimit="2.613" stroke-linecap="round" stroke-linejoin="round"/>
<path d="M640.012 458.503L644.956 469.877" stroke="white" stroke-width="0.945333" stroke-miterlimit="2.613" stroke-linecap="round" stroke-linejoin="round"/>
<path d="M646.585 458.503L651.526 469.877" stroke="white" stroke-width="0.945333" stroke-miterlimit="2.613" stroke-linecap="round" stroke-linejoin="round"/>
<path d="M626.871 469.878L631.812 458.503" stroke="white" stroke-width="0.945333" stroke-miterlimit="2.613" stroke-linecap="round" stroke-linejoin="round"/>
<path d="M633.441 469.878L638.385 458.503" stroke="white" stroke-width="0.945333" stroke-miterlimit="2.613" stroke-linecap="round" stroke-linejoin="round"/>
<path d="M640.012 469.878L644.956 458.503" stroke="white" stroke-width="0.945333" stroke-miterlimit="2.613" stroke-linecap="round" stroke-linejoin="round"/>
<path d="M646.585 469.878L651.526 458.503" stroke="white" stroke-width="0.945333" stroke-miterlimit="2.613" stroke-linecap="round" stroke-linejoin="round"/>
<path fill-rule="evenodd" clip-rule="evenodd" d="M634.371 342.937H657.744C658.643 342.937 659.422 343.216 660.004 343.683C660.198 343.84 660.374 344.021 660.52 344.219L661.04 341.448C661.211 340.537 661.067 339.695 660.68 339.02C660.124 338.031 659.066 337.391 657.744 337.391H630.016H623.21H611.934H556.524H545.248H538.963H510.716C508.484 337.391 507.003 339.216 507.42 341.448L507.94 344.219C508.528 343.432 509.511 342.937 510.716 342.937H534.612H545.6H556.524H611.934H622.858H634.371Z" fill="#E5E6E7"/>
<path fill-rule="evenodd" clip-rule="evenodd" d="M553.46 398.942C586.084 391.78 608.036 375.474 623.138 355.428C626.172 351.402 628.93 347.223 631.442 342.937H622.858H611.933H556.525H545.6H534.612H510.716C509.512 342.937 508.529 343.432 507.94 344.219L518.936 402.826C527.508 402.654 535.529 401.979 543.036 400.858C546.626 400.319 550.098 399.678 553.46 398.942Z" fill="#BABCBE"/>
</svg>
