<svg width="456" height="153" viewBox="0 0 456 153" fill="none" xmlns="http://www.w3.org/2000/svg">
<g id="navbar-logo">
<g id="g10">
<g id="g14">
<g id="g16">
<g id="Text">
<g id="Other Letters">
<g id="e">
<path id="path24" d="M150.493 72.5279H171.151C170.7 68.7715 167.02 64.6392 161.386 64.6392C154.925 64.6392 150.943 68.3214 150.493 72.5279ZM139 76.2834C139 59.3065 153.723 54.7996 161.461 54.7996C172.054 54.7996 182.645 62.0111 183.02 75.3068C183.02 78.4625 182.795 80.491 182.795 80.491H150.193C151.545 87.2514 159.207 88.0018 161.461 88.0018C167.696 88.0018 170.776 84.6232 172.054 83.1945L180.767 88.2279C179.114 90.4814 173.556 97.8436 161.461 97.8436C153.423 97.8436 139 93.2602 139 76.2834" fill="#096AA0"/>
</g>
<g id="d">
<path id="path28" d="M212.541 64.4146C205.405 64.4146 201.198 69.3727 201.198 76.1331C201.198 82.6684 205.63 87.7772 212.541 87.7772C219.528 87.7772 223.885 83.3446 223.885 76.1331C223.885 69.2984 219.528 64.4146 212.541 64.4146ZM223.434 92.6599C221.706 94.9887 216.748 97.6933 210.889 97.6933C197.818 97.6933 190.156 88.0022 190.156 76.1331C190.156 64.2639 197.818 54.5739 210.889 54.5739C216.899 54.5739 221.33 56.9781 223.434 59.757V40.0002H234.552V96.7921H223.434V92.6599Z" fill="#096AA0"/>
</g>
<g id="u">
<path id="path32" d="M245.594 80.04V55.6255H256.937V80.04C256.937 86.3493 260.693 88.3023 264.975 88.3023C268.129 88.3023 273.163 86.4257 272.862 77.4861V55.6255H284.131V96.7918H272.862V93.2604C270.158 96.0403 266.176 97.693 261.82 97.693C249.95 97.693 245.594 90.7076 245.594 80.04Z" fill="#096AA0"/>
</g>
<path id="l" d="M295.172 40H306.44V96.792H295.172V40Z" fill="#096AA0"/>
<g id="y">
<path id="path38" d="M322.065 112.266L329.201 95.2892L311.473 55.6259H324.469L334.911 81.917L344.525 55.6259H357.52L334.459 112.266H322.065Z" fill="#096AA0"/>
</g>
<g id="t">
<path id="path42" d="M378.177 82.0676C378.177 84.3221 378.253 88.2283 383.285 88.2283C384.563 88.2283 385.464 88.1518 386.14 88.0775V97.5425C384.788 97.6932 382.684 97.8429 381.107 97.8429C372.394 97.8429 367.059 96.2656 367.059 87.5521V64.6396H362.026V54.7999H367.059V43.7566H378.177V54.7999H386.441V64.6396H378.177V82.0676Z" fill="#096AA0"/>
</g>
</g>
<g id="X">
<path id="path46" d="M397.857 41.9531H412.805L427.003 60.8841L441.201 41.9531H456L434.441 69.5976L455.624 96.792H440.75L427.003 78.5372L413.256 96.792H398.308L419.567 69.5976L397.857 41.9531Z" fill="#00B6B4"/>
</g>
</g>
<g id="Logo">
<g id="Book">
<g id="MainBookBackground">
<path id="path50" d="M111.494 1.51703e-05H12.3057C5.53737 1.51703e-05 0 5.5374 0 12.3058V109.498C0 112.554 1.13185 115.357 2.99506 117.515H2.14315L3.88581 118.446C5.45835 119.927 7.41665 121.002 9.59062 121.496L68.3305 152.888V121.804H111.494C118.262 121.804 123.801 116.267 123.801 109.498V12.3058C123.801 5.5374 118.262 1.51703e-05 111.494 1.51703e-05Z" fill="#242960"/>
</g>
<g id="Page">
<path id="path54" d="M29.2084 9.52556H105.578C105.578 9.52556 118.708 8.18608 118.708 23.728C118.708 39.27 118.55 104.448 118.55 104.448C118.55 104.448 117.636 113.228 111.204 116.176C111.204 116.176 111.741 112.961 111.741 108.674V41.1452C111.741 41.1452 114.154 23.728 93.787 23.728H30.0121C30.0121 23.728 18.7578 24.5317 18.7578 17.2972C18.7578 10.0614 29.2084 9.52556 29.2084 9.52556Z" fill="white"/>
</g>
<g id="PageShadow">
<path id="path58" d="M19.802 13.8709L102.362 13.8133C102.362 13.8133 116.028 12.7417 116.028 30.696V111.919C116.028 111.919 118.707 109.18 118.707 102.213V19.4404C118.707 19.4404 118.977 9.52562 105.579 9.52562H29.2078C29.2078 9.52562 22.4555 9.82031 19.802 13.8709Z" fill="#B0AEB0"/>
</g>
</g>
<g id="FingerTap">
<g id="TapCircles">
<g id="g60">
<path id="path62" d="M37.7456 51.524C37.8179 46.7085 39.4588 42.1771 42.849 38.3274C45.7476 35.0377 49.3642 32.9334 53.6532 31.9971C55.7012 31.5497 57.7707 31.4358 59.8509 31.6542C62.8634 31.9716 65.6803 32.9026 68.2481 34.5166C73.1264 37.5813 76.167 41.9601 77.4275 47.5698C77.915 49.7398 77.9927 51.9419 77.7382 54.1493C77.3886 57.1832 76.3974 60.0015 74.7874 62.5987C74.415 63.1988 73.6635 63.381 73.0769 63.0234C72.4848 62.663 72.2866 61.9263 72.6509 61.3155C73.2778 60.264 73.8337 59.1817 74.2569 58.0311C74.8597 56.3996 75.2227 54.7173 75.3298 52.9786C75.571 49.0901 74.6789 45.4789 72.5719 42.2039C69.8742 38.01 66.062 35.3712 61.1703 34.3867C53.4563 32.8342 45.6056 36.7509 42.1284 43.8193C41.1063 45.8968 40.4607 48.0802 40.3187 50.3908C39.9397 56.5309 42.0909 61.6156 46.7777 65.6032C47.4662 66.1872 48.2538 66.6547 49.0025 67.1664C49.3628 67.4128 49.5798 67.7316 49.5999 68.1736C49.6227 68.6679 49.4231 69.0537 49.0039 69.3042C48.586 69.556 48.1439 69.556 47.722 69.3082C46.3852 68.5232 45.1515 67.599 44.0344 66.5234C41.1224 63.7199 39.2096 60.3444 38.2801 56.4117C37.9238 54.9035 37.763 53.3724 37.7456 51.524Z" fill="#00B6B4"/>
</g>
<g id="g64">
<path id="path66" d="M57.7132 41.6624C53.6707 41.8365 50.4747 43.6462 48.4762 47.2721C46.4416 50.9637 46.5434 54.7263 48.6088 58.4072C49.0495 59.1948 48.7977 59.8846 48.3195 60.2168C47.7101 60.6414 46.9117 60.4592 46.5153 59.7989C45.7464 58.5183 45.1945 57.1481 44.8744 55.6867C43.7024 50.3261 45.741 44.9012 50.1693 41.661C52.0124 40.3135 54.086 39.5326 56.359 39.2728C62.9117 38.52 68.9688 42.8264 70.6191 49.2251C71.4495 52.4411 71.1535 55.5608 69.7605 58.5759C69.3372 59.4921 68.141 59.6181 67.5865 58.8077C67.3092 58.4018 67.2945 57.9665 67.4981 57.5271C67.9321 56.5922 68.2629 55.6224 68.4116 54.6017C68.9996 50.5739 67.8477 47.1368 64.8419 44.3721C63.2439 42.9054 61.3258 42.0642 59.1759 41.7722C58.7232 41.7106 58.2638 41.7026 57.7132 41.6624Z" fill="#00B6B4"/>
</g>
</g>
<g id="Hand">
<path id="path70" d="M54.2252 71.5834C54.2252 65.5249 54.2266 59.4651 54.2239 53.4067C54.2226 52.453 54.4744 51.593 55.1267 50.8871C55.8433 50.1129 56.7608 49.7955 57.8003 49.8035C59.8979 49.8196 61.311 51.2488 61.3151 53.3866C61.3231 57.1291 61.3177 60.8716 61.3177 64.6141V75.0526C61.3177 75.137 61.3177 75.2227 61.3177 75.3071C61.3084 76.6051 62.2339 76.8609 63.1166 76.6721C63.6779 76.5515 64.0034 76.0934 64.0047 75.4665C64.0101 73.7868 63.9927 72.1071 64.0128 70.4261C64.0275 69.2822 64.4387 68.3043 65.3844 67.6078C67.04 66.3929 69.5769 66.8537 70.6003 68.5468C70.9847 69.183 71.12 69.8822 71.12 70.6149C71.12 72.9657 71.1186 75.3165 71.1227 77.6673C71.1227 77.887 71.1361 78.1107 71.1856 78.3223C71.2941 78.7817 71.6129 79.0469 72.0643 79.134C72.2773 79.1742 72.505 79.1715 72.7207 79.1474C73.3797 79.0764 73.7762 78.6478 73.7855 77.9754C73.7989 76.7886 73.7882 75.6005 73.7949 74.4124C73.7989 73.7507 73.7922 73.0876 73.8391 72.4286C73.949 70.8574 75.2831 69.5527 76.8529 69.4108C77.808 69.3237 78.7001 69.4724 79.489 70.0296C80.4909 70.7368 80.8995 71.7615 80.9062 72.951C80.9196 75.3513 80.9102 77.7544 80.9115 80.156C80.9115 80.3087 80.9035 80.4641 80.9316 80.6128C81.0374 81.1928 81.379 81.5236 81.9697 81.5933C82.2014 81.6201 82.4466 81.6147 82.6756 81.5745C83.1672 81.4848 83.5342 81.0963 83.5556 80.5873C83.5932 79.706 83.5905 78.8233 83.5932 77.9419C83.5958 77.4195 83.6508 76.9105 83.849 76.4229C84.3781 75.1263 85.368 74.4485 86.7382 74.3065C87.8245 74.194 88.8131 74.4552 89.6288 75.2093C90.324 75.8536 90.6736 76.6828 90.6816 77.6124C90.7044 80.4976 90.7178 83.3842 90.6763 86.2681C90.6441 88.5425 90.4017 90.8062 89.9369 93.0324C89.4078 95.5546 88.793 98.0608 88.2317 100.578C87.6558 103.162 87.0503 105.74 86.5494 108.337C86.2426 109.931 86.102 111.557 85.9024 113.17C85.8435 113.648 85.8328 114.135 85.8019 114.615C85.7618 115.217 85.2903 115.656 84.6688 115.656C82.4546 115.659 80.2391 115.658 78.025 115.658H60.1002C59.3514 115.658 58.9536 115.288 58.8571 114.538C58.6294 112.758 57.961 111.146 56.9671 109.659C56.201 108.513 55.3182 107.461 54.3846 106.453C53.084 105.049 51.9682 103.5 50.8377 101.967C49.2571 99.8209 47.9311 97.5116 46.601 95.2091C44.4538 91.4893 42.4539 87.6906 40.7582 83.7431C40.2947 82.6649 39.8996 81.5531 39.5634 80.4306C39.3919 79.8587 39.3973 79.2264 39.3598 78.6197C39.2968 77.599 40.0456 76.8582 41.1265 76.7457C42.1941 76.6345 43.1197 76.9158 43.985 77.5441C45.4704 78.6223 46.7081 79.9404 47.8252 81.379C49.2987 83.2757 50.5055 85.3291 51.3909 87.566C51.4753 87.7803 51.5182 88.0214 51.5262 88.2532C51.5449 88.8626 51.5289 89.4748 51.5342 90.0856C51.5382 90.6013 51.6883 91.058 52.1959 91.2777C52.7304 91.5081 53.2729 91.496 53.7671 91.1491C54.1007 90.916 54.1904 90.5517 54.2212 90.17C54.2292 90.0601 54.2252 89.9489 54.2252 89.8391V71.5834Z" fill="white"/>
</g>
</g>
</g>
</g>
</g>
</g>
</g>
</svg>
