<svg width="145" height="123" viewBox="0 0 145 123" fill="none" xmlns="http://www.w3.org/2000/svg">
<path d="M0.292188 86.4C0.292188 77.6 1.75885 69.2 4.69219 61.2C7.62552 52.9333 11.6255 45.0667 16.6922 37.6C21.7589 30.1333 27.6255 23.3333 34.2922 17.2C40.9589 10.8 48.0255 5.2 55.4922 0.399995L63.0922 11.2C53.4922 18.9333 45.6255 26.2667 39.4922 33.2C33.3589 39.8667 28.1589 48.5333 23.8922 59.2L35.4922 69.6C41.6255 74.9333 45.7589 80 47.8922 84.8C50.0255 89.3333 51.0922 94.1333 51.0922 99.2C51.0922 107.2 48.9589 113.2 44.6922 117.2C40.4255 120.933 34.6922 122.8 27.4922 122.8C23.4922 122.8 19.6255 122.267 15.8922 121.2C12.4255 119.867 9.09219 117.733 5.89219 114.8C2.15885 105.733 0.292188 96.2667 0.292188 86.4ZM81.4922 86.4C81.4922 77.6 82.9589 69.2 85.8922 61.2C88.8255 52.9333 92.8255 45.0667 97.8922 37.6C102.959 30.1333 108.826 23.3333 115.492 17.2C122.159 10.8 129.226 5.2 136.692 0.399995L144.292 11.2C134.692 18.9333 126.826 26.2667 120.692 33.2C114.559 39.8667 109.359 48.5333 105.092 59.2L116.692 69.6C122.826 74.9333 126.959 80 129.092 84.8C131.226 89.3333 132.292 94.1333 132.292 99.2C132.292 107.2 130.159 113.2 125.892 117.2C121.626 120.933 115.892 122.8 108.692 122.8C104.692 122.8 100.826 122.267 97.0922 121.2C93.6255 119.867 90.2922 117.733 87.0922 114.8C83.3589 105.733 81.4922 96.2667 81.4922 86.4Z" fill="#58C6C5" fill-opacity="0.73"/>
</svg>
