<svg width="512" height="512" viewBox="0 0 512 512" fill="none" xmlns="http://www.w3.org/2000/svg">
<g id="Side Text - Montone (white) -  No Background">
<g id="g10">
<g id="g14">
<g id="g16">
<g id="Text">
<g id="Other Letters">
<g id="e">
<path id="path24" d="M182.493 252.528H203.151C202.7 248.771 199.02 244.639 193.386 244.639C186.925 244.639 182.943 248.321 182.493 252.528ZM171 256.283C171 239.306 185.723 234.799 193.461 234.799C204.054 234.799 214.645 242.011 215.02 255.307C215.02 258.462 214.795 260.491 214.795 260.491H182.193C183.545 267.251 191.207 268.002 193.461 268.002C199.696 268.002 202.776 264.623 204.054 263.194L212.767 268.228C211.114 270.481 205.556 277.844 193.461 277.844C185.423 277.844 171 273.26 171 256.283Z" fill="white"/>
</g>
<g id="d">
<path id="path28" d="M244.541 244.414C237.405 244.414 233.198 249.372 233.198 256.133C233.198 262.668 237.63 267.777 244.541 267.777C251.528 267.777 255.885 263.344 255.885 256.133C255.885 249.298 251.528 244.414 244.541 244.414ZM255.434 272.66C253.706 274.989 248.748 277.693 242.889 277.693C229.818 277.693 222.156 268.002 222.156 256.133C222.156 244.264 229.818 234.574 242.889 234.574C248.899 234.574 253.33 236.978 255.434 239.757V220H266.552V276.792H255.434V272.66Z" fill="white"/>
</g>
<g id="u">
<path id="path32" d="M277.594 260.04V235.625H288.937V260.04C288.937 266.349 292.693 268.302 296.975 268.302C300.129 268.302 305.163 266.426 304.862 257.486V235.625H316.131V276.792H304.862V273.26C302.158 276.04 298.176 277.693 293.82 277.693C281.95 277.693 277.594 270.707 277.594 260.04Z" fill="white"/>
</g>
<path id="l" d="M327.172 220H338.44V276.792H327.172V220Z" fill="white"/>
<g id="y">
<path id="path38" d="M354.065 292.266L361.201 275.289L343.473 235.626H356.469L366.911 261.917L376.525 235.626H389.52L366.459 292.266H354.065Z" fill="white"/>
</g>
<g id="t">
<path id="path42" d="M410.178 262.067C410.178 264.322 410.253 268.228 415.285 268.228C416.563 268.228 417.464 268.152 418.141 268.077V277.542C416.788 277.693 414.684 277.843 413.107 277.843C404.394 277.843 399.059 276.265 399.059 267.552V244.639H394.026V234.8H399.059V223.756H410.178V234.8H418.441V244.639H410.178V262.067Z" fill="white"/>
</g>
</g>
<g id="X">
<path id="path46" d="M429.857 221.953H444.805L459.003 240.884L473.201 221.953H488L466.441 249.597L487.624 276.792H472.75L459.003 258.537L445.256 276.792H430.308L451.567 249.597L429.857 221.953Z" fill="white"/>
</g>
</g>
<g id="Logo">
<path id="Subtract" fill-rule="evenodd" clip-rule="evenodd" d="M143.494 180C150.262 180 155.801 185.537 155.801 192.306V289.498C155.801 296.266 150.262 301.804 143.494 301.804H100.331V332.888L41.5906 301.496C39.4167 301.001 37.4584 299.927 35.8858 298.446L34.1432 297.515H34.9951C33.1319 295.357 32 292.553 32 289.498V192.306C32 185.537 37.5374 180 44.3057 180H143.494ZM56.2587 190.592C58.7337 189.648 61.1247 189.529 61.2057 189.526L61.2084 189.525H137.578C137.578 189.525 139.201 189.36 141.305 189.82C150.924 191.466 150.707 199.44 150.707 199.44V203.551C150.708 203.61 150.708 203.669 150.708 203.728C150.708 204.274 150.708 204.882 150.707 205.546V282.213C150.707 289.18 148.028 291.919 148.028 291.919V291.727C146.937 293.501 145.389 295.175 143.204 296.176C143.204 296.176 143.741 292.961 143.741 288.673V221.145C143.741 221.145 146.154 203.728 125.787 203.728H62.0121C62.0121 203.728 50.7578 204.532 50.7578 197.297C50.7578 193.552 53.5575 191.602 56.2587 190.592ZM74.849 218.327C71.4588 222.177 69.8179 226.708 69.7456 231.524C69.763 233.372 69.9238 234.903 70.2801 236.412C71.2096 240.344 73.1224 243.72 76.0344 246.523C77.1515 247.599 78.3852 248.523 79.722 249.308C80.1439 249.556 80.586 249.556 81.0039 249.304C81.4231 249.054 81.6227 248.668 81.5999 248.174C81.5798 247.731 81.3628 247.413 81.0025 247.166C80.7949 247.024 80.5842 246.886 80.3735 246.747C79.8245 246.386 79.2752 246.025 78.7777 245.603C74.0909 241.615 71.9397 236.531 72.3187 230.391C72.4607 228.08 73.1063 225.897 74.1284 223.819C77.6056 216.751 85.4563 212.834 93.1703 214.387C98.062 215.371 101.874 218.01 104.572 222.204C106.679 225.479 107.571 229.09 107.33 232.978C107.223 234.717 106.86 236.4 106.257 238.031C105.834 239.182 105.278 240.264 104.651 241.315C104.287 241.926 104.485 242.663 105.077 243.023C105.664 243.381 106.415 243.199 106.787 242.599C108.397 240.001 109.389 237.183 109.738 234.149C109.993 231.942 109.915 229.74 109.427 227.57C108.167 221.96 105.126 217.581 100.248 214.516C97.6803 212.902 94.8634 211.971 91.8509 211.654C89.7707 211.436 87.7012 211.55 85.6532 211.997C81.3642 212.933 77.7476 215.038 74.849 218.327ZM89.7133 221.662C85.6708 221.836 82.4748 223.646 80.4763 227.272C78.4416 230.964 78.5434 234.726 80.6089 238.407C81.0496 239.195 80.7978 239.884 80.3196 240.217C79.7101 240.641 78.9118 240.459 78.5153 239.799C77.7464 238.518 77.1946 237.148 76.8744 235.687C75.7024 230.326 77.7411 224.901 82.1694 221.661C84.0125 220.313 86.086 219.532 88.3591 219.273C94.9118 218.52 100.969 222.826 102.619 229.225C103.45 232.441 103.154 235.561 101.761 238.576C101.337 239.492 100.141 239.618 99.5865 238.808C99.3093 238.402 99.2945 237.966 99.4981 237.527C99.9321 236.592 100.263 235.622 100.412 234.602C101 230.574 99.8477 227.137 96.842 224.372C95.244 222.905 93.3258 222.064 91.176 221.772C90.8742 221.731 90.5694 221.714 90.2367 221.695C90.0702 221.685 89.8968 221.676 89.7133 221.662ZM86.2255 247.043C86.2254 248.556 86.2253 250.07 86.2253 251.583V269.839C86.2253 269.866 86.2255 269.894 86.2258 269.921C86.2265 270.004 86.2273 270.087 86.2213 270.17C86.1905 270.552 86.1007 270.916 85.7672 271.149C85.2729 271.496 84.7304 271.508 84.196 271.278C83.6883 271.058 83.5383 270.601 83.5343 270.085C83.5322 269.853 83.5333 269.62 83.5344 269.387C83.5361 269.009 83.5379 268.63 83.5262 268.253C83.5182 268.021 83.4753 267.78 83.391 267.566C82.5056 265.329 81.2987 263.276 79.8253 261.379C78.7082 259.94 77.4705 258.622 75.985 257.544C75.1197 256.916 74.1941 256.634 73.1266 256.746C72.0456 256.858 71.2969 257.599 71.3598 258.62C71.3672 258.739 71.3729 258.86 71.3787 258.98C71.4021 259.473 71.4257 259.971 71.5634 260.431C71.8996 261.553 72.2948 262.665 72.7582 263.743C74.454 267.69 76.4538 271.489 78.601 275.209L78.6892 275.362C79.9898 277.613 81.2921 279.868 82.8378 281.967C82.929 282.09 83.0202 282.214 83.1113 282.338C84.1496 283.749 85.189 285.162 86.3847 286.452C87.3183 287.461 88.201 288.513 88.9672 289.659C89.9611 291.146 90.6295 292.757 90.8572 294.538C90.9536 295.288 91.3514 295.657 92.1002 295.657H110.025C110.579 295.657 111.132 295.657 111.686 295.658C113.347 295.658 115.008 295.658 116.669 295.656C117.29 295.656 117.762 295.217 117.802 294.615C117.811 294.473 117.818 294.331 117.826 294.188C117.843 293.848 117.861 293.507 117.902 293.17C117.955 292.746 118.003 292.322 118.052 291.897C118.187 290.705 118.323 289.512 118.549 288.337C118.94 286.312 119.394 284.297 119.849 282.283C119.977 281.715 120.105 281.146 120.232 280.578C120.448 279.608 120.672 278.64 120.896 277.672C121.254 276.127 121.612 274.583 121.937 273.032C122.402 270.806 122.644 268.542 122.676 266.268C122.718 263.384 122.704 260.497 122.682 257.612C122.674 256.683 122.324 255.854 121.629 255.209C120.813 254.455 119.825 254.194 118.738 254.306C117.368 254.448 116.378 255.126 115.849 256.423C115.651 256.91 115.596 257.419 115.593 257.942C115.593 258.045 115.593 258.149 115.592 258.253C115.591 259.031 115.589 259.81 115.556 260.587C115.534 261.096 115.167 261.485 114.676 261.574C114.447 261.615 114.201 261.62 113.97 261.593C113.379 261.524 113.037 261.193 112.932 260.613C112.909 260.491 112.91 260.365 112.911 260.239C112.911 260.211 112.912 260.184 112.912 260.156C112.911 259.387 112.912 258.618 112.912 257.85C112.914 256.216 112.915 254.583 112.906 252.951C112.9 251.761 112.491 250.737 111.489 250.029C110.7 249.472 109.808 249.324 108.853 249.411C107.283 249.553 105.949 250.857 105.839 252.428C105.8 252.978 105.798 253.53 105.796 254.081C105.796 254.192 105.796 254.302 105.795 254.412C105.792 254.91 105.792 255.409 105.793 255.907C105.793 256.597 105.793 257.286 105.786 257.975C105.776 258.648 105.38 259.076 104.721 259.147C104.505 259.171 104.277 259.174 104.064 259.134C103.613 259.047 103.294 258.782 103.186 258.322C103.136 258.111 103.123 257.887 103.123 257.667C103.12 255.787 103.12 253.907 103.12 252.027C103.12 251.556 103.12 251.086 103.12 250.615C103.12 249.882 102.985 249.183 102.6 248.547C101.577 246.854 99.04 246.393 97.3844 247.608C96.4388 248.304 96.0275 249.282 96.0128 250.426C96.0003 251.472 96.0023 252.518 96.0043 253.563C96.0056 254.197 96.0068 254.832 96.0048 255.466C96.0034 256.093 95.6779 256.551 95.1167 256.672C94.234 256.861 93.3084 256.605 93.3178 255.307V255.053V244.614C93.3178 243.545 93.3182 242.475 93.3187 241.406C93.3198 238.733 93.3209 236.06 93.3151 233.386C93.3111 231.249 91.898 229.819 89.8003 229.803C88.7609 229.795 87.8434 230.113 87.1268 230.887C86.4744 231.593 86.2226 232.453 86.2239 233.407C86.226 237.952 86.2257 242.497 86.2255 247.043Z" fill="white"/>
</g>
</g>
</g>
</g>
</g>
</svg>
