<svg width="122" height="122" viewBox="0 0 122 122" fill="none" xmlns="http://www.w3.org/2000/svg">
<path d="M60.9503 32.9974C60.5891 32.1195 59.743 31.5529 58.7939 31.5529H58.7915C57.8417 31.5539 56.9954 32.1226 56.6358 33.0017C56.6303 33.0152 56.6249 33.0286 56.6199 33.0424L47.5998 56.7264C47.2483 57.6485 47.7116 58.681 48.6339 59.0324C49.5549 59.3839 50.5885 58.9209 50.94 57.9983L52.7481 53.2511H64.7745L66.5642 57.9933C66.913 58.9178 67.9448 59.3822 68.8672 59.0341C69.7905 58.6857 70.2566 57.6547 69.9079 56.7311L60.9696 33.0465C60.9634 33.0298 60.9568 33.0136 60.9503 32.9974ZM54.1091 49.6766L58.7887 37.3903L63.4253 49.6766H54.1091Z" fill="#2E4057"/>
<path d="M71.651 37.2595V36.1804H72.7302C73.7174 36.1804 74.5173 35.3805 74.5173 34.3933C74.5173 33.4061 73.7174 32.6061 72.7302 32.6061H71.651V31.5267C71.651 30.5395 70.8511 29.7396 69.8639 29.7396C68.8767 29.7396 68.0768 30.5395 68.0768 31.5267V32.6061H66.9976C66.0104 32.6061 65.2105 33.4061 65.2105 34.3933C65.2105 35.3805 66.0104 36.1804 66.9976 36.1804H68.0768V37.2595C68.0768 38.2467 68.8767 39.0467 69.8639 39.0467C70.8511 39.0467 71.651 38.2467 71.651 37.2595Z" fill="#2E4057"/>
<path d="M62.787 94.1545V90.5643C62.787 89.5771 61.9871 88.7772 60.9999 88.7772C60.0127 88.7772 59.2128 89.5771 59.2128 90.5643V94.1545C59.2128 95.1417 60.0127 95.9416 60.9999 95.9416C61.9871 95.9416 62.787 95.1415 62.787 94.1545Z" fill="#2E4057"/>
<path d="M85.5641 44.1612C85.5753 45.1412 86.3732 45.928 87.3507 45.928H87.3714C88.3584 45.9168 89.1492 45.1076 89.138 44.1207C88.9643 28.7102 76.4382 16.3023 60.9999 16.3023C45.4824 16.3023 32.8582 28.9266 32.8582 44.4442C32.8582 59.9619 45.4824 72.5862 60.9999 72.5862C73.7345 72.5862 84.9167 64.0012 88.193 51.7089C88.447 50.7551 87.8801 49.776 86.9265 49.5217C85.9722 49.267 84.9939 49.8346 84.7394 50.7882C81.8796 61.5179 72.1175 69.0118 60.9999 69.0118C47.4532 69.0118 36.4324 57.9906 36.4324 44.444C36.4324 30.8974 47.4532 19.8765 60.9999 19.8765C74.4507 19.8765 85.412 30.6853 85.5641 44.1612Z" fill="#2E4057"/>
<path d="M98.4644 71.6667C101.495 67.502 99.6417 61.3683 100.925 57.4169C102.14 53.6723 107.307 49.7269 107.307 44.4445C107.307 39.159 102.141 35.2191 100.925 31.4724C99.64 27.5153 101.496 21.3891 98.4644 17.2223C95.4046 13.0186 88.9887 12.9047 85.6693 10.4886C82.3901 8.10244 80.3044 2.01345 75.3125 0.393158C70.4747 -1.17877 65.2352 2.47667 61 2.47667C56.7596 2.47667 51.5277 -1.17948 46.6878 0.39292C41.6937 2.01465 39.6119 8.10124 36.3312 10.4886C35.6107 11.013 34.6838 11.4727 33.3261 11.9785C32.4011 12.3233 31.9309 13.3524 32.2757 14.2772C32.62 15.2022 33.6497 15.6721 34.5742 15.3278C36.249 14.7035 37.4397 14.1021 38.4343 13.3784C42.2196 10.6237 44.2726 4.93452 47.7917 3.79245C51.146 2.70256 56.1758 6.05085 61.0003 6.05085C65.8211 6.05085 70.8555 2.70399 74.2092 3.79245C77.7293 4.93523 79.7754 10.6201 83.5665 13.3784C87.3751 16.1501 93.4293 16.3771 95.5748 19.3251C97.6938 22.2371 96.0551 28.0459 97.5258 32.5756C98.9552 36.9766 103.734 40.6623 103.734 44.4443C103.734 48.2441 98.9657 51.8795 97.5258 56.3132C96.0549 60.8433 97.6945 66.6509 95.5748 69.5634C93.4286 72.5126 87.3839 72.732 83.5665 75.5101C79.7833 78.263 77.7274 83.9542 74.209 85.0961C70.854 86.1869 65.8268 82.8377 61.0003 82.8377C56.1794 82.8377 51.1455 86.1848 47.7917 85.0961C44.2702 83.9531 42.2275 78.2703 38.4343 75.5101C34.6256 72.7385 28.5715 72.5114 26.426 69.5634C24.3067 66.6516 25.9459 60.8441 24.475 56.3129C23.0455 51.9119 18.2673 48.2262 18.2673 44.4443C18.2673 40.6461 23.0355 37.0073 24.475 32.5756C25.9466 28.0428 24.306 22.2381 26.426 19.3249C26.8311 18.768 27.402 18.2767 28.1707 17.8218C29.0201 17.3198 29.302 16.2237 28.7997 15.3742C28.2977 14.5245 27.2011 14.2434 26.3521 14.7452C25.155 15.4529 24.2336 16.263 23.5361 17.2221C20.5057 21.386 22.3588 27.5198 21.0754 31.4719C19.8569 35.2257 14.6934 39.1566 14.6934 44.4443C14.6934 49.7317 19.8581 53.6661 21.0754 57.4166C22.3593 61.3697 20.5057 67.5025 23.5361 71.6664C25.6242 74.5353 29.2041 75.4656 32.5316 76.625L19.9098 104.867C19.6515 105.445 19.7182 106.117 20.0854 106.632C20.4523 107.148 21.0633 107.432 21.6962 107.377L38.7286 105.897L47.1057 121.076C47.4203 121.646 48.0198 122 48.6703 122H48.6793C49.3334 121.997 49.9334 121.636 50.2434 121.061L54.9275 112.367C55.3957 111.498 55.0709 110.414 54.2019 109.946C53.3324 109.478 52.249 109.802 51.781 110.671L48.6512 116.481L41.296 103.153C40.9546 102.535 40.2805 102.173 39.5766 102.236L24.4113 103.553L35.8075 78.0542C39.5225 80.3103 41.4552 86.7974 46.6871 88.4958C51.5291 90.0692 56.7582 86.4123 60.9993 86.4123C64.4596 86.4123 68.6864 88.89 72.7119 88.8895C79.9415 88.8895 81.9354 80.6388 86.1913 78.0542L97.5875 103.553L82.4222 102.236C81.7155 102.17 81.0443 102.534 80.7028 103.153L73.3476 116.481L64.3505 99.7812C63.6854 98.5467 62.4011 97.7801 60.9993 97.7801C59.597 97.7801 58.313 98.5469 57.6479 99.7812L55.2079 104.31C54.7397 105.178 55.0645 106.262 55.9335 106.731C56.8023 107.199 57.886 106.874 58.3544 106.005L60.7944 101.477C60.8833 101.312 61.1142 101.31 61.2042 101.477L71.7557 121.061C72.0659 121.636 72.6657 121.997 73.3197 122H73.3288C73.9793 122 74.5788 121.646 74.8933 121.076L83.2705 105.897L100.303 107.377C100.933 107.432 101.547 107.148 101.914 106.632C102.281 106.117 102.348 105.445 102.089 104.867L89.4674 76.6253C92.7917 75.4675 96.3744 74.5377 98.4644 71.6667Z" fill="#2E4057"/>
</svg>
