<svg width="129" height="129" viewBox="0 0 129 129" fill="none" xmlns="http://www.w3.org/2000/svg">
<g clip-path="url(#clip0)">
<path d="M124.495 4.16681H19.5231C18.4792 4.16681 17.6334 5.01262 17.6334 6.05646C17.6334 7.1003 18.4792 7.94611 19.5231 7.94611H124.495C124.895 7.94611 125.221 8.27163 125.221 8.67173V84.2103C125.221 84.6107 124.895 84.9362 124.495 84.9362H116.459C116.645 83.7651 116.743 82.565 116.743 81.3426C116.743 76.2957 115.095 71.6273 112.31 67.8442C113.753 67.0745 115.358 66.6724 117.032 66.6724C118.076 66.6724 118.922 65.8265 118.922 64.7827V47.596C118.922 46.5521 118.076 45.7063 117.032 45.7063C115.988 45.7063 115.143 46.5521 115.143 47.596V63.0193C113.232 63.277 111.417 63.9288 109.775 64.944C105.667 60.9706 100.075 58.5219 93.9221 58.5219C83.591 58.5219 74.8427 65.4237 72.0417 74.8581H25.6937C24.8542 68.7268 19.9884 63.8613 13.8574 63.0215V29.8602C19.9884 29.0207 24.8542 24.155 25.6937 18.0237H103.307C104.146 24.155 109.012 29.0205 115.143 29.8602V40.0407C115.143 41.0845 115.989 41.9303 117.032 41.9303C118.076 41.9303 118.922 41.0845 118.922 40.0407V28.0991C118.922 27.0552 118.076 26.2094 117.032 26.2094C111.477 26.2094 106.958 21.6899 106.958 16.1343C106.958 15.0905 106.112 14.2447 105.068 14.2447H23.9323C22.8884 14.2447 22.0426 15.0905 22.0426 16.1343C22.0426 21.6899 17.5231 26.2094 11.9678 26.2094C10.9239 26.2094 10.0781 27.0552 10.0781 28.0991V64.783C10.0781 65.8268 10.9239 66.6726 11.9678 66.6726C17.5231 66.6726 22.0426 71.1921 22.0426 76.7477C22.0426 77.7915 22.8884 78.6374 23.9323 78.6374H71.2624C71.1571 79.5247 71.1014 80.4272 71.1014 81.3426C71.1014 82.565 71.1992 83.7651 71.3854 84.9362H4.50517C4.10482 84.9362 3.7793 84.6107 3.7793 84.2103V8.67173C3.7793 8.27163 4.10482 7.94611 4.50517 7.94611H11.9678C13.0116 7.94611 13.8574 7.1003 13.8574 6.05646C13.8574 5.01262 13.0116 4.16681 11.9678 4.16681H4.50517C2.02092 4.16681 0 6.18747 0 8.67173V84.2103C0 86.6943 2.02092 88.7155 4.50517 88.7155H72.3242C73.2138 91.3149 74.5605 93.7039 76.268 95.7868V106.44C76.268 107.484 77.1138 108.33 78.1576 108.33C79.2015 108.33 80.0473 107.484 80.0473 106.44V99.4477C83.8948 102.403 88.7064 104.163 93.9218 104.163C99.1375 104.163 103.949 102.403 107.797 99.4477V120.903L96.0208 112.527C94.7651 111.634 93.0785 111.634 91.8228 112.527L80.0473 120.903V113.995C80.0473 112.952 79.2015 112.106 78.1576 112.106C77.1138 112.106 76.268 112.952 76.268 113.995V121.21C76.268 122.571 77.0193 123.804 78.2292 124.428C79.4224 125.045 80.8651 124.96 81.9878 124.161L93.9218 115.671L105.856 124.161C106.965 124.95 108.406 125.052 109.615 124.428C110.825 123.804 111.576 122.571 111.576 121.21V95.7868C113.283 93.7039 114.63 91.3149 115.52 88.7155H124.495C126.979 88.7155 129 86.6946 129 84.2103V8.67173C129 6.18747 126.979 4.16681 124.495 4.16681ZM93.9218 100.384C83.4224 100.384 74.8807 91.8422 74.8807 81.3428C74.8807 70.8434 83.4224 62.3015 93.9218 62.3015C104.421 62.3015 112.963 70.8434 112.963 81.3428C112.963 91.8422 104.421 100.384 93.9218 100.384Z" fill="#2E4057"/>
<path d="M98.0105 32.0603V26.4321C98.0105 24.4415 96.391 22.8219 94.4003 22.8219H34.6C32.6093 22.8219 30.9897 24.4415 30.9897 26.4321V32.0603C30.9897 34.051 32.6093 35.6705 34.6 35.6705H94.4003C96.391 35.6705 98.0105 34.051 98.0105 32.0603ZM94.2312 31.8912H34.769V26.6012H94.2312V31.8912Z" fill="#2E4057"/>
<path d="M106.376 77.5978C106.052 77.2173 105.685 76.786 105.573 76.5164C105.446 76.2098 105.397 75.6444 105.349 75.0977C105.245 73.8878 105.114 72.3821 103.999 71.266C102.883 70.1503 101.377 70.0198 100.167 69.915C99.62 69.8676 99.0549 69.8185 98.7485 69.6915C98.4782 69.5794 98.0471 69.2125 97.6664 68.8885C96.7261 68.0881 95.5552 67.0921 93.9218 67.0921C92.2887 67.0921 91.1178 68.0881 90.1776 68.8885C89.7969 69.2123 89.3658 69.5791 89.0954 69.6915C88.789 69.8185 88.2239 69.8674 87.6774 69.915C86.4673 70.0198 84.9614 70.1506 83.8455 71.266C82.7298 72.3819 82.5993 73.8878 82.4942 75.0979C82.4469 75.6446 82.3977 76.2098 82.2708 76.5162C82.1586 76.7862 81.7918 77.2176 81.468 77.598C80.6673 78.5386 79.6714 79.7092 79.6714 81.3426C79.6714 82.9757 80.6673 84.1466 81.4678 85.0868C81.7915 85.4675 82.1584 85.8986 82.2708 86.169C82.3977 86.4754 82.4466 87.0405 82.4942 87.5872C82.5991 88.7973 82.7298 90.3033 83.8452 91.4192C84.9611 92.5348 86.467 92.6653 87.6772 92.7701C88.2239 92.8175 88.789 92.8666 89.0954 92.9936C89.3658 93.1057 89.7969 93.4726 90.1776 93.7966C91.1178 94.5971 92.2887 95.593 93.9218 95.593C95.5552 95.593 96.7261 94.5971 97.6664 93.7966C98.0471 93.4728 98.4782 93.106 98.7485 92.9936C99.0549 92.8666 99.62 92.8178 100.166 92.7701C101.377 92.6653 102.883 92.5346 103.998 91.4192C105.114 90.3033 105.245 88.7973 105.349 87.5872C105.397 87.0405 105.446 86.4754 105.573 86.169C105.685 85.8986 106.052 85.4675 106.376 85.0868C107.176 84.1466 108.173 82.9757 108.173 81.3426C108.173 79.7092 107.176 78.5383 106.376 77.5978ZM103.498 82.6376C102.993 83.2305 102.422 83.9022 102.082 84.7215C101.731 85.5671 101.653 86.4673 101.584 87.2609C101.542 87.7487 101.471 88.565 101.33 88.7434C101.144 88.8923 100.328 88.9631 99.8402 89.0055C99.0463 89.074 98.1463 89.1521 97.3008 89.5031C96.4817 89.8427 95.81 90.4141 95.2171 90.9185C94.8495 91.2315 94.1647 91.814 93.9216 91.814C93.6784 91.814 92.9941 91.2315 92.6263 90.9185C92.0334 90.4141 91.3617 89.8425 90.5426 89.5031C89.6971 89.1521 88.7968 89.0742 88.0032 89.0055C87.5154 88.9631 86.6991 88.8923 86.5207 88.7507C86.3718 88.5651 86.301 87.7485 86.2587 87.2609C86.1901 86.4673 86.112 85.5671 85.7611 84.7215C85.4214 83.9024 84.85 83.2307 84.3456 82.6379C84.0327 82.27 83.4502 81.5857 83.4502 81.3426C83.4502 81.0994 84.0327 80.4149 84.3458 80.047C84.85 79.4544 85.4217 78.7827 85.7611 77.9634C86.1118 77.1178 86.1899 76.2181 86.2589 75.4242C86.3013 74.9364 86.3718 74.1201 86.5137 73.9417C86.6993 73.7928 87.5157 73.722 88.0032 73.6797C88.7971 73.6111 89.6971 73.533 90.5426 73.1821C91.3617 72.8424 92.0334 72.271 92.6263 71.7666C92.9941 71.4537 93.6784 70.8711 93.9216 70.8711C94.1647 70.8711 94.8495 71.4537 95.2171 71.7666C95.81 72.271 96.4817 72.8427 97.3008 73.1821C98.1463 73.533 99.0466 73.6109 99.8402 73.6797C100.328 73.722 101.144 73.7928 101.323 73.9344C101.471 74.1201 101.542 74.9364 101.584 75.4239C101.653 76.2176 101.731 77.1178 102.082 77.9639C102.422 78.7827 102.993 79.4544 103.498 80.0468C103.81 80.4146 104.393 81.0994 104.393 81.3426C104.393 81.5854 103.811 82.27 103.498 82.6376Z" fill="#2E4057"/>
<path d="M75.4506 47.1125C76.4945 47.1125 77.3403 46.2667 77.3403 45.2228C77.3403 44.179 76.4945 43.3332 75.4506 43.3332H53.5496C52.5058 43.3332 51.66 44.179 51.66 45.2228C51.66 46.2667 52.5058 47.1125 53.5496 47.1125H75.4506Z" fill="#2E4057"/>
<path d="M43.0238 53.6985C43.0238 54.7424 43.8696 55.5882 44.9134 55.5882H84.0868C85.1307 55.5882 85.9765 54.7424 85.9765 53.6985C85.9765 52.6547 85.1307 51.8089 84.0868 51.8089H44.9134C43.8696 51.8089 43.0238 52.6547 43.0238 53.6985Z" fill="#2E4057"/>
<path d="M93.9218 77.7968C92.878 77.7968 92.0322 78.6426 92.0322 79.6865V82.9986C92.0322 84.0425 92.878 84.8883 93.9218 84.8883C94.9657 84.8883 95.8115 84.0425 95.8115 82.9986V79.6865C95.8115 78.6426 94.9657 77.7968 93.9218 77.7968Z" fill="#2E4057"/>
</g>
<defs>
<clipPath id="clip0">
<rect width="129" height="129" fill="white"/>
</clipPath>
</defs>
</svg>
