<svg width="78" height="102" viewBox="0 0 78 102" fill="none" xmlns="http://www.w3.org/2000/svg">
<path d="M68.4077 38.1687C67.8748 37.5388 66.9319 37.4603 66.3022 37.9934C65.6722 38.5265 65.5938 39.4692 66.1269 40.0989C70.7499 45.5614 73.6126 52.2871 74.38 59.3565C72.1071 58.7646 69.8936 58.5252 67.7758 58.6459C63.859 58.8694 60.4197 60.3225 57.5536 62.9645C53.7767 66.4466 51.107 66.7733 48.525 67.0895C45.0751 67.5118 41.8164 67.9106 37.8739 74.6547C33.9169 81.4228 35.564 91.2824 37.9576 99.0014C32.1648 98.8687 26.7082 97.3529 21.9046 94.7727C23.5298 92.2508 24.7324 89.6964 25.4839 87.1598C25.7181 86.3685 25.2667 85.5372 24.4754 85.3029C23.6836 85.0693 22.8526 85.5201 22.6185 86.3114C21.9386 88.6069 20.8342 90.9352 19.3317 93.2489C9.50259 86.86 2.98843 75.7828 2.98843 63.2115C2.98843 49.3742 10.8913 36.8937 23.2656 30.9428V33.7378C23.2656 35.2267 24.1551 36.561 25.5319 37.1374C29.1771 38.6628 32.8437 39.5541 36.5138 39.8152C38.2996 48.1177 34.904 52.5879 28.6584 58.7359C26.5387 60.8225 24.7085 62.6244 23.669 65.5238C22.5972 68.5134 22.4771 72.4298 23.2797 78.2222C23.3941 79.0478 23.4515 79.899 23.4503 80.7525C23.4491 81.5778 24.1174 82.2474 24.9424 82.2486H24.9444C25.7687 82.2486 26.4373 81.5808 26.4385 80.7564C26.4399 79.7649 26.373 78.7744 26.2395 77.8122C24.7153 66.8107 26.7335 64.824 30.7545 60.8656C37.3976 54.3259 41.2892 49.0445 39.5772 39.8881C43.7438 39.7854 47.9086 38.869 52.0461 37.1374C53.4227 36.561 54.3122 35.2267 54.3122 33.738V30.9438C57.106 32.2901 59.7135 33.9952 62.085 36.0293C62.7085 36.5642 63.6522 36.4973 64.1919 35.8682C64.7292 35.2416 64.657 34.2986 64.0307 33.7613C61.0985 31.2456 57.8321 29.1947 54.3122 27.6559V19.3683L61.2447 15.5536C61.8782 15.2051 62.2716 14.5394 62.2718 13.8164C62.272 13.0932 61.8786 12.4273 61.2449 12.078L39.7457 0.247625C39.1467 -0.082276 38.4311 -0.0826744 37.8325 0.247227L28.0583 5.62565C27.3354 6.02348 27.072 6.93211 27.4696 7.65526C27.8675 8.37801 28.7759 8.64178 29.4993 8.24394L38.7889 3.13207L58.2043 13.8158C56.6552 14.6682 49.0427 18.8574 47.3113 19.81L39.8147 12.7297C39.2148 12.1631 38.2691 12.1896 37.7026 12.79C37.1358 13.3899 37.1629 14.3356 37.7629 14.9021L44.5616 21.3232L38.7805 24.5045C37.2304 23.6957 32.8873 21.1946 19.3795 13.8126L24.1589 11.1828C24.882 10.7849 25.1454 9.87631 24.7478 9.15336C24.3499 8.43021 23.4413 8.16685 22.7184 8.56448L16.3325 12.0784C15.699 12.4273 15.3057 13.0932 15.3059 13.8164C15.3061 14.5394 15.6998 15.2051 16.3377 15.5558C18.9564 16.9849 21.2505 18.2416 23.2656 19.3484V27.6555C9.1169 33.8372 0 47.7414 0 63.2113C0 84.5886 17.3939 102 38.7887 102C60.1769 102 77.5776 84.5993 77.5776 63.2113C77.5776 54.1303 74.3686 45.2116 68.4077 38.1687V38.1687ZM37.6177 27.2648C37.942 27.427 38.3703 27.6416 38.86 27.6416C39.1449 27.6416 39.4505 27.5691 39.7684 27.3716L45.5831 24.1718V32.1367C45.5831 32.962 46.2519 33.6308 47.0773 33.6308C47.9026 33.6308 48.5714 32.962 48.5714 32.1367V22.5273L51.3237 21.0127V33.7376C51.3237 34.0185 51.1542 34.2709 50.892 34.3806C42.8613 37.7414 34.7167 37.7414 26.6853 34.3808C26.423 34.2709 26.2534 34.0187 26.2534 33.7376V20.9927C33.8958 25.205 36.5846 26.7487 37.6177 27.2648V27.2648ZM41.0717 98.9369C39.076 92.7448 36.7465 82.5038 40.4535 76.1625C43.6489 70.6967 45.8465 70.4277 48.8881 70.0554C51.6532 69.7169 55.0947 69.2956 59.579 65.1616C62.3113 62.6428 67.1014 60.2107 74.5818 62.52C74.5862 62.7503 74.5895 62.9806 74.5895 63.2113C74.5893 82.1848 59.7524 97.7553 41.0717 98.9369V98.9369Z" fill="#2E4057"/>
</svg>
