<svg width="107" height="107" viewBox="0 0 107 107" fill="none" xmlns="http://www.w3.org/2000/svg">
<g clip-path="url(#clip0)">
<path d="M102.617 84.4316H101.385V28.9976C101.385 26.8558 99.6425 25.1133 97.5006 25.1133H82.8694V11.3449C82.8694 9.22981 81.1488 7.50903 79.0337 7.50903H70.9698C70.1205 7.50903 69.3375 7.78991 68.7013 8.25887C68.0652 7.78991 67.2821 7.50903 66.433 7.50903H55.7683C53.6532 7.50903 51.9326 9.22981 51.9326 11.3449V12.7775C51.705 12.7353 51.4712 12.7102 51.2317 12.7102H43.1678C42.9281 12.7102 42.6945 12.7351 42.4669 12.7775V11.3449C42.4669 9.22981 40.7463 7.50903 38.6312 7.50903H27.9667C25.8516 7.50903 24.131 9.22981 24.131 11.3449V14.1223C24.131 14.9882 24.8326 15.6897 25.6984 15.6897C26.5642 15.6897 27.2658 14.9882 27.2658 14.1223V11.3449C27.2658 10.9581 27.5803 10.6438 27.9667 10.6438H38.6312C39.0178 10.6438 39.3321 10.9583 39.3321 11.3449V42.9526H27.2656V20.3892C27.2656 19.5233 26.564 18.8218 25.6982 18.8218C24.8324 18.8218 24.1308 19.5233 24.1308 20.3892V25.1133H9.49938C7.3575 25.1133 5.61499 26.8558 5.61499 28.9976V84.4316H4.38282C1.96613 84.4316 0 86.3977 0 88.8146V95.1082C0 97.5249 1.96613 99.4912 4.38303 99.4912H35.6496C36.5154 99.4912 37.217 98.7896 37.217 97.9238C37.217 97.058 36.5154 96.3564 35.6496 96.3564H4.38303C3.69484 96.3564 3.13477 95.7964 3.13477 95.1082V88.8146C3.13477 88.1264 3.69484 87.5664 4.38303 87.5664H41.0993L43.0792 91.7226C43.6019 92.8198 44.7247 93.5289 45.94 93.5289H61.06C62.2757 93.5289 63.3988 92.8196 63.921 91.7226L65.9009 87.5664H102.617C103.305 87.5664 103.865 88.1264 103.865 88.8146V95.1082C103.865 95.7964 103.305 96.3564 102.617 96.3564H41.9164C41.0506 96.3564 40.349 97.058 40.349 97.9238C40.349 98.7896 41.0506 99.4912 41.9164 99.4912H102.617C105.034 99.4912 107 97.5251 107 95.1082V88.8146C107 86.3977 105.034 84.4316 102.617 84.4316ZM70.2689 11.3449C70.2689 10.9581 70.5834 10.6438 70.9698 10.6438H79.0337C79.4203 10.6438 79.7346 10.9583 79.7346 11.3449V42.9526H70.2689V11.3449ZM55.0674 11.3449C55.0674 10.9581 55.3819 10.6438 55.7683 10.6438H66.433C66.8196 10.6438 67.1339 10.9583 67.1339 11.3449V42.9526H62.7722C61.2849 42.9526 60.0199 44.0163 59.7647 45.4817L59.4809 47.1118C59.279 48.2712 58.2784 49.1128 57.1014 49.1128H55.0674V11.3449ZM42.4667 16.5459C42.4667 16.1593 42.7812 15.845 43.1676 15.845H51.2315C51.6181 15.845 51.9324 16.1595 51.9324 16.5459V49.1126H49.8986C48.7218 49.1126 47.721 48.271 47.5191 47.1114L47.2353 45.4817C46.9801 44.0161 45.7153 42.9524 44.2276 42.9524H42.4665V16.5459H42.4667ZM44.159 46.0873L44.4311 47.6493C44.8951 50.3136 47.1945 52.2476 49.8988 52.2476H57.1016C59.8059 52.2476 62.1056 50.3136 62.5693 47.6495L62.8414 46.0873H84.2456V58.6534C84.2456 60.1206 83.0516 61.3146 81.5844 61.3146H25.4161C23.9488 61.3146 22.7548 60.1206 22.7548 58.6534V46.0873H44.159ZM8.74976 28.9976C8.74976 28.5843 9.08601 28.248 9.49938 28.248H24.1306V31.3826H13.4519C12.5861 31.3826 11.8845 32.0841 11.8845 32.95V84.4316H8.74976V28.9976ZM61.0907 90.3749C61.0851 90.3868 61.0732 90.3941 61.06 90.3941H45.94C45.927 90.3941 45.9147 90.3864 45.9093 90.3745L44.5718 87.5664H62.4286L61.0907 90.3749ZM95.1157 84.4316V68.8631C95.1157 67.9973 94.4141 67.2957 93.5483 67.2957C92.6825 67.2957 91.9809 67.9973 91.9809 68.8631V84.4316H15.0193V34.5173H24.1306V42.9524H22.1806C20.7687 42.9524 19.6201 44.1009 19.6201 45.5128V58.6531C19.6201 61.8491 22.2201 64.4491 25.4161 64.4491H81.5842C84.7802 64.4491 87.3801 61.8491 87.3801 58.6531V45.5128C87.3801 44.1009 86.2313 42.9524 84.8194 42.9524H82.8696V34.5173H91.9809V62.5961C91.9809 63.4619 92.6825 64.1634 93.5483 64.1634C94.4141 64.1634 95.1157 63.4619 95.1157 62.5961V32.95C95.1157 32.0841 94.4141 31.3826 93.5483 31.3826H82.8696V28.248H97.5008C97.9142 28.248 98.2505 28.5843 98.2505 28.9976V84.4316H95.1157Z" fill="#2E4057"/>
<path d="M63.6247 69.9302H43.3753C42.047 69.9302 40.9664 71.0108 40.9664 72.3391V79.6801C40.9664 81.0084 42.047 82.0891 43.3753 82.0891H63.6247C64.9528 82.0891 66.0334 81.0084 66.0334 79.6801V72.3391C66.0336 71.0108 64.953 69.9302 63.6247 69.9302ZM62.8989 78.9543H44.1013V73.0647H62.8989V78.9543Z" fill="#2E4057"/>
<path d="M34.8659 38.944V17.0481C34.8659 16.1823 34.1643 15.4807 33.2985 15.4807C32.4327 15.4807 31.7311 16.1823 31.7311 17.0481V38.944C31.7311 39.8098 32.4327 40.5114 33.2985 40.5114C34.1643 40.5114 34.8659 39.8098 34.8659 38.944Z" fill="#2E4057"/>
<path d="M48.6486 58.4827H58.3516C59.2174 58.4827 59.9189 57.7811 59.9189 56.9153C59.9189 56.0495 59.2174 55.3479 58.3516 55.3479H48.6486C47.7828 55.3479 47.0813 56.0495 47.0813 56.9153C47.0813 57.7811 47.783 58.4827 48.6486 58.4827Z" fill="#2E4057"/>
<path d="M61.2826 40.5114C62.1484 40.5114 62.85 39.8098 62.85 38.944V17.0481C62.85 16.1823 62.1484 15.4807 61.2826 15.4807C60.4168 15.4807 59.7152 16.1823 59.7152 17.0481V38.944C59.7152 39.8098 60.417 40.5114 61.2826 40.5114Z" fill="#2E4057"/>
</g>
<defs>
<clipPath id="clip0">
<rect width="107" height="107" fill="white"/>
</clipPath>
</defs>
</svg>
