<svg width="346" height="320" viewBox="0 0 346 320" fill="none" xmlns="http://www.w3.org/2000/svg">
<path d="M220.973 136.013L19.3739 22.6135C15.4679 20.4211 10.7051 20.4715 6.84956 22.7143C2.96877 24.9823 0.599976 29.1151 0.599976 33.6007V260.4C0.599976 264.886 2.96877 269.018 6.84956 271.286C8.81515 272.42 11.0075 273 13.1999 273C15.3167 273 17.4587 272.471 19.3739 271.387L220.973 157.987C224.93 155.745 227.399 151.562 227.399 147C227.399 142.439 224.93 138.256 220.973 136.013Z" fill="#226799" fill-opacity="0.31"/>
<path d="M337.84 146.049L81.84 2.0491C76.88 -0.734898 70.832 -0.670898 65.936 2.1771C61.008 5.0571 58 10.3051 58 16.0011V304.001C58 309.697 61.008 314.945 65.936 317.825C68.432 319.265 71.216 320.001 74 320.001C76.688 320.001 79.408 319.329 81.84 317.953L337.84 173.953C342.864 171.105 346 165.793 346 160.001C346 154.209 342.864 148.897 337.84 146.049Z" fill="#58C6C5" fill-opacity="0.47"/>
</svg>
